%TF.GenerationSoftware,KiCad,Pcbnew,7.0.1*%
%TF.CreationDate,2023-04-14T12:40:57+03:00*%
%TF.ProjectId,Piirilevy,50696972-696c-4657-9679-2e6b69636164,rev?*%
%TF.SameCoordinates,Original*%
%TF.FileFunction,Copper,L2,Bot*%
%TF.FilePolarity,Positive*%
%FSLAX46Y46*%
G04 Gerber Fmt 4.6, Leading zero omitted, Abs format (unit mm)*
G04 Created by KiCad (PCBNEW 7.0.1) date 2023-04-14 12:40:57*
%MOMM*%
%LPD*%
G01*
G04 APERTURE LIST*
G04 Aperture macros list*
%AMRoundRect*
0 Rectangle with rounded corners*
0 $1 Rounding radius*
0 $2 $3 $4 $5 $6 $7 $8 $9 X,Y pos of 4 corners*
0 Add a 4 corners polygon primitive as box body*
4,1,4,$2,$3,$4,$5,$6,$7,$8,$9,$2,$3,0*
0 Add four circle primitives for the rounded corners*
1,1,$1+$1,$2,$3*
1,1,$1+$1,$4,$5*
1,1,$1+$1,$6,$7*
1,1,$1+$1,$8,$9*
0 Add four rect primitives between the rounded corners*
20,1,$1+$1,$2,$3,$4,$5,0*
20,1,$1+$1,$4,$5,$6,$7,0*
20,1,$1+$1,$6,$7,$8,$9,0*
20,1,$1+$1,$8,$9,$2,$3,0*%
G04 Aperture macros list end*
%TA.AperFunction,ComponentPad*%
%ADD10C,1.600000*%
%TD*%
%TA.AperFunction,ComponentPad*%
%ADD11R,1.800000X1.800000*%
%TD*%
%TA.AperFunction,ComponentPad*%
%ADD12C,1.800000*%
%TD*%
%TA.AperFunction,ComponentPad*%
%ADD13R,1.350000X1.350000*%
%TD*%
%TA.AperFunction,ComponentPad*%
%ADD14O,1.350000X1.350000*%
%TD*%
%TA.AperFunction,ComponentPad*%
%ADD15R,1.700000X1.700000*%
%TD*%
%TA.AperFunction,ComponentPad*%
%ADD16O,1.700000X1.700000*%
%TD*%
%TA.AperFunction,ComponentPad*%
%ADD17O,1.600000X1.600000*%
%TD*%
%TA.AperFunction,ComponentPad*%
%ADD18R,1.905000X2.000000*%
%TD*%
%TA.AperFunction,ComponentPad*%
%ADD19O,1.905000X2.000000*%
%TD*%
%TA.AperFunction,ComponentPad*%
%ADD20R,2.000000X2.000000*%
%TD*%
%TA.AperFunction,ComponentPad*%
%ADD21C,2.000000*%
%TD*%
%TA.AperFunction,ComponentPad*%
%ADD22C,1.500000*%
%TD*%
%TA.AperFunction,ComponentPad*%
%ADD23RoundRect,0.250000X-0.620000X-0.620000X0.620000X-0.620000X0.620000X0.620000X-0.620000X0.620000X0*%
%TD*%
%TA.AperFunction,ComponentPad*%
%ADD24C,1.740000*%
%TD*%
%TA.AperFunction,ComponentPad*%
%ADD25R,1.600000X1.600000*%
%TD*%
G04 APERTURE END LIST*
D10*
%TO.P,C8,1*%
%TO.N,GND*%
X48260000Y-71120000D03*
%TO.P,C8,2*%
%TO.N,Net-(U1-XTAL2)*%
X48260000Y-76120000D03*
%TD*%
D11*
%TO.P,D1,1,K*%
%TO.N,Net-(D1-K)*%
X63500000Y-40640000D03*
D12*
%TO.P,D1,2,A*%
%TO.N,Net-(D1-A)*%
X60960000Y-40640000D03*
%TD*%
D13*
%TO.P,J4,1,Pin_1*%
%TO.N,Net-(J4-Pin_3)*%
X66040000Y-53880000D03*
D14*
%TO.P,J4,2,Pin_2*%
%TO.N,+5V*%
X64040000Y-53880000D03*
%TO.P,J4,3,Pin_3*%
%TO.N,Net-(J4-Pin_1)*%
X66040000Y-55880000D03*
%TO.P,J4,4,Pin_4*%
%TO.N,unconnected-(U1-PB7-Pad8)*%
X64040000Y-55880000D03*
%TO.P,J4,5,Pin_5*%
%TO.N,Net-(J4-Pin_5)*%
X66040000Y-57880000D03*
%TO.P,J4,6,Pin_6*%
%TO.N,GND*%
X64040000Y-57880000D03*
%TD*%
D15*
%TO.P,J2,1,Pin_1*%
%TO.N,Net-(J2-Pin_1)*%
X91440000Y-50800000D03*
D16*
%TO.P,J2,2,Pin_2*%
%TO.N,GND*%
X91440000Y-53340000D03*
%TD*%
D10*
%TO.P,R1,1*%
%TO.N,Net-(U1-PA1)*%
X101600000Y-48260000D03*
D17*
%TO.P,R1,2*%
%TO.N,GND*%
X127000000Y-48260000D03*
%TD*%
D15*
%TO.P,J5,1,Pin_1*%
%TO.N,unconnected-(J5-Pin_1-Pad1)*%
X106680000Y-106680000D03*
D16*
%TO.P,J5,2,Pin_2*%
%TO.N,unconnected-(J5-Pin_2-Pad2)*%
X106680000Y-104140000D03*
%TO.P,J5,3,Pin_3*%
%TO.N,unconnected-(J5-Pin_3-Pad3)*%
X106680000Y-101600000D03*
%TO.P,J5,4,Pin_4*%
%TO.N,unconnected-(J5-Pin_4-Pad4)*%
X106680000Y-99060000D03*
%TO.P,J5,5,Pin_5*%
%TO.N,unconnected-(J5-Pin_5-Pad5)*%
X106680000Y-96520000D03*
%TO.P,J5,6,Pin_6*%
%TO.N,unconnected-(J5-Pin_6-Pad6)*%
X106680000Y-93980000D03*
%TO.P,J5,7,Pin_7*%
%TO.N,unconnected-(J5-Pin_7-Pad7)*%
X106680000Y-91440000D03*
%TO.P,J5,8,Pin_8*%
%TO.N,unconnected-(J5-Pin_8-Pad8)*%
X106680000Y-88900000D03*
%TO.P,J5,9,Pin_9*%
%TO.N,unconnected-(J5-Pin_9-Pad9)*%
X106680000Y-86360000D03*
%TO.P,J5,10,Pin_10*%
%TO.N,unconnected-(J5-Pin_10-Pad10)*%
X106680000Y-83820000D03*
%TO.P,J5,11,Pin_11*%
%TO.N,unconnected-(J5-Pin_11-Pad11)*%
X106680000Y-81280000D03*
%TO.P,J5,12,Pin_12*%
%TO.N,unconnected-(J5-Pin_12-Pad12)*%
X106680000Y-78740000D03*
%TO.P,J5,13,Pin_13*%
%TO.N,unconnected-(J5-Pin_13-Pad13)*%
X106680000Y-76200000D03*
%TO.P,J5,14,Pin_14*%
%TO.N,unconnected-(J5-Pin_14-Pad14)*%
X106680000Y-73660000D03*
%TO.P,J5,15,Pin_15*%
%TO.N,unconnected-(J5-Pin_15-Pad15)*%
X106680000Y-71120000D03*
%TO.P,J5,16,Pin_16*%
%TO.N,unconnected-(J5-Pin_16-Pad16)*%
X106680000Y-68580000D03*
%TO.P,J5,17,Pin_17*%
%TO.N,unconnected-(J5-Pin_17-Pad17)*%
X106680000Y-66040000D03*
%TO.P,J5,18,Pin_18*%
%TO.N,unconnected-(J5-Pin_18-Pad18)*%
X106680000Y-63500000D03*
%TO.P,J5,19,Pin_19*%
%TO.N,+3.3V*%
X106680000Y-60960000D03*
%TD*%
D10*
%TO.P,R2,1*%
%TO.N,+5V*%
X101600000Y-40640000D03*
%TO.P,R2,2*%
%TO.N,Net-(U1-PA1)*%
X101600000Y-43180000D03*
%TD*%
%TO.P,C13,1*%
%TO.N,GND*%
X147050000Y-42500000D03*
%TO.P,C13,2*%
%TO.N,+3.3V*%
X152050000Y-42500000D03*
%TD*%
%TO.P,C7,1*%
%TO.N,GND*%
X53340000Y-71200000D03*
%TO.P,C7,2*%
%TO.N,Net-(U1-XTAL1)*%
X53340000Y-76200000D03*
%TD*%
D18*
%TO.P,U6,1,IN*%
%TO.N,Net-(J1-Pin_2)*%
X121680000Y-24739600D03*
D19*
%TO.P,U6,2,GND*%
%TO.N,GND*%
X124220000Y-24739600D03*
%TO.P,U6,3,OUT*%
%TO.N,+5V*%
X126760000Y-24739600D03*
%TD*%
D20*
%TO.P,C5,1*%
%TO.N,Net-(J1-Pin_2)*%
X116600000Y-32439600D03*
D21*
%TO.P,C5,2*%
%TO.N,GND*%
X116600000Y-37439600D03*
%TD*%
D22*
%TO.P,16MHz1,1,1*%
%TO.N,Net-(U1-XTAL2)*%
X60960000Y-73660000D03*
%TO.P,16MHz1,2,2*%
%TO.N,Net-(U1-XTAL1)*%
X60960000Y-78560000D03*
%TD*%
D23*
%TO.P,J6,1,Pin_1*%
%TO.N,Net-(J6-Pin_1)*%
X86360000Y-35560000D03*
D24*
%TO.P,J6,2,Pin_2*%
%TO.N,+5V*%
X88900000Y-35560000D03*
%TO.P,J6,3,Pin_3*%
%TO.N,GND*%
X91440000Y-35560000D03*
%TD*%
D20*
%TO.P,C6,1*%
%TO.N,+5V*%
X131840000Y-32439600D03*
D21*
%TO.P,C6,2*%
%TO.N,GND*%
X131840000Y-37439600D03*
%TD*%
D15*
%TO.P,J3,1,Pin_1*%
%TO.N,GND*%
X132080000Y-60960000D03*
D16*
%TO.P,J3,2,Pin_2*%
%TO.N,unconnected-(J3-Pin_2-Pad2)*%
X132080000Y-63500000D03*
%TO.P,J3,3,Pin_3*%
%TO.N,unconnected-(J3-Pin_3-Pad3)*%
X132080000Y-66040000D03*
%TO.P,J3,4,Pin_4*%
%TO.N,unconnected-(J3-Pin_4-Pad4)*%
X132080000Y-68580000D03*
%TO.P,J3,5,Pin_5*%
%TO.N,unconnected-(J3-Pin_5-Pad5)*%
X132080000Y-71120000D03*
%TO.P,J3,6,Pin_6*%
%TO.N,unconnected-(J3-Pin_6-Pad6)*%
X132080000Y-73660000D03*
%TO.P,J3,7,Pin_7*%
%TO.N,unconnected-(J3-Pin_7-Pad7)*%
X132080000Y-76200000D03*
%TO.P,J3,8,Pin_8*%
%TO.N,unconnected-(J3-Pin_8-Pad8)*%
X132080000Y-78740000D03*
%TO.P,J3,9,Pin_9*%
%TO.N,unconnected-(J3-Pin_9-Pad9)*%
X132080000Y-81280000D03*
%TO.P,J3,10,Pin_10*%
%TO.N,unconnected-(J3-Pin_10-Pad10)*%
X132080000Y-83820000D03*
%TO.P,J3,11,Pin_11*%
%TO.N,unconnected-(J3-Pin_11-Pad11)*%
X132080000Y-86360000D03*
%TO.P,J3,12,Pin_12*%
%TO.N,unconnected-(J3-Pin_12-Pad12)*%
X132080000Y-88900000D03*
%TO.P,J3,13,Pin_13*%
%TO.N,unconnected-(J3-Pin_13-Pad13)*%
X132080000Y-91440000D03*
%TO.P,J3,14,Pin_14*%
%TO.N,unconnected-(J3-Pin_14-Pad14)*%
X132080000Y-93980000D03*
%TO.P,J3,15,Pin_15*%
%TO.N,Net-(J3-Pin_15)*%
X132080000Y-96520000D03*
%TO.P,J3,16,Pin_16*%
%TO.N,Net-(J3-Pin_16)*%
X132080000Y-99060000D03*
%TO.P,J3,17,Pin_17*%
%TO.N,unconnected-(J3-Pin_17-Pad17)*%
X132080000Y-101600000D03*
%TO.P,J3,18,Pin_18*%
%TO.N,unconnected-(J3-Pin_18-Pad18)*%
X132080000Y-104140000D03*
%TO.P,J3,19,Pin_19*%
%TO.N,unconnected-(J3-Pin_19-Pad19)*%
X132080000Y-106680000D03*
%TD*%
D15*
%TO.P,J1,1,Pin_1*%
%TO.N,GND*%
X101360000Y-34899600D03*
D16*
%TO.P,J1,2,Pin_2*%
%TO.N,Net-(J1-Pin_2)*%
X101360000Y-32359600D03*
%TD*%
D10*
%TO.P,C1,1*%
%TO.N,GND*%
X60960000Y-68580000D03*
%TO.P,C1,2*%
%TO.N,+5V*%
X60960000Y-63580000D03*
%TD*%
%TO.P,R3,1*%
%TO.N,Net-(D1-A)*%
X53340000Y-40640000D03*
D17*
%TO.P,R3,2*%
%TO.N,GND*%
X53340000Y-66040000D03*
%TD*%
D10*
%TO.P,C3,1*%
%TO.N,GND*%
X66040000Y-68580000D03*
%TO.P,C3,2*%
%TO.N,+5V*%
X66040000Y-63580000D03*
%TD*%
D25*
%TO.P,U1,1,PB0*%
%TO.N,unconnected-(U1-PB0-Pad1)*%
X71120000Y-45720000D03*
D17*
%TO.P,U1,2,PB1*%
%TO.N,unconnected-(U1-PB1-Pad2)*%
X71120000Y-48260000D03*
%TO.P,U1,3,PB2*%
%TO.N,Net-(D1-K)*%
X71120000Y-50800000D03*
%TO.P,U1,4,PB3*%
%TO.N,unconnected-(U1-PB3-Pad4)*%
X71120000Y-53340000D03*
%TO.P,U1,5,PB4*%
%TO.N,Net-(J4-Pin_4)*%
X71120000Y-55880000D03*
%TO.P,U1,6,PB5*%
%TO.N,Net-(J4-Pin_1)*%
X71120000Y-58420000D03*
%TO.P,U1,7,PB6*%
%TO.N,Net-(J4-Pin_3)*%
X71120000Y-60960000D03*
%TO.P,U1,8,PB7*%
%TO.N,unconnected-(U1-PB7-Pad8)*%
X71120000Y-63500000D03*
%TO.P,U1,9,~{RESET}*%
%TO.N,Net-(J4-Pin_5)*%
X71120000Y-66040000D03*
%TO.P,U1,10,VCC*%
%TO.N,+5V*%
X71120000Y-68580000D03*
%TO.P,U1,11,GND*%
%TO.N,GND*%
X71120000Y-71120000D03*
%TO.P,U1,12,XTAL2*%
%TO.N,Net-(U1-XTAL2)*%
X71120000Y-73660000D03*
%TO.P,U1,13,XTAL1*%
%TO.N,Net-(U1-XTAL1)*%
X71120000Y-76200000D03*
%TO.P,U1,14,PD0*%
%TO.N,unconnected-(J3-Pin_11-Pad11)*%
X71120000Y-78740000D03*
%TO.P,U1,15,PD1*%
%TO.N,unconnected-(J3-Pin_12-Pad12)*%
X71120000Y-81280000D03*
%TO.P,U1,16,PD2*%
%TO.N,unconnected-(U1-PD2-Pad16)*%
X71120000Y-83820000D03*
%TO.P,U1,17,PD3*%
%TO.N,unconnected-(U1-PD3-Pad17)*%
X71120000Y-86360000D03*
%TO.P,U1,18,PD4*%
%TO.N,unconnected-(U1-PD4-Pad18)*%
X71120000Y-88900000D03*
%TO.P,U1,19,PD5*%
%TO.N,unconnected-(U1-PD5-Pad19)*%
X71120000Y-91440000D03*
%TO.P,U1,20,PD6*%
%TO.N,unconnected-(U1-PD6-Pad20)*%
X71120000Y-93980000D03*
%TO.P,U1,21,PD7*%
%TO.N,unconnected-(U1-PD7-Pad21)*%
X86360000Y-93980000D03*
%TO.P,U1,22,PC0*%
%TO.N,unconnected-(U1-PC0-Pad22)*%
X86360000Y-91440000D03*
%TO.P,U1,23,PC1*%
%TO.N,unconnected-(U1-PC1-Pad23)*%
X86360000Y-88900000D03*
%TO.P,U1,24,PC2*%
%TO.N,unconnected-(U1-PC2-Pad24)*%
X86360000Y-86360000D03*
%TO.P,U1,25,PC3*%
%TO.N,unconnected-(U1-PC3-Pad25)*%
X86360000Y-83820000D03*
%TO.P,U1,26,PC4*%
%TO.N,unconnected-(U1-PC4-Pad26)*%
X86360000Y-81280000D03*
%TO.P,U1,27,PC5*%
%TO.N,unconnected-(U1-PC5-Pad27)*%
X86360000Y-78740000D03*
%TO.P,U1,28,PC6*%
%TO.N,unconnected-(U1-PC6-Pad28)*%
X86360000Y-76200000D03*
%TO.P,U1,29,PC7*%
%TO.N,unconnected-(U1-PC7-Pad29)*%
X86360000Y-73660000D03*
%TO.P,U1,30,AVCC*%
%TO.N,+5V*%
X86360000Y-71120000D03*
%TO.P,U1,31,AGND*%
%TO.N,GND*%
X86360000Y-68580000D03*
%TO.P,U1,32,AREF*%
%TO.N,unconnected-(U1-AREF-Pad32)*%
X86360000Y-66040000D03*
%TO.P,U1,33,PA7*%
%TO.N,unconnected-(U1-PA7-Pad33)*%
X86360000Y-63500000D03*
%TO.P,U1,34,PA6*%
%TO.N,unconnected-(U1-PA6-Pad34)*%
X86360000Y-60960000D03*
%TO.P,U1,35,PA5*%
%TO.N,unconnected-(U1-PA5-Pad35)*%
X86360000Y-58420000D03*
%TO.P,U1,36,PA4*%
%TO.N,unconnected-(U1-PA4-Pad36)*%
X86360000Y-55880000D03*
%TO.P,U1,37,PA3*%
%TO.N,unconnected-(U1-PA3-Pad37)*%
X86360000Y-53340000D03*
%TO.P,U1,38,PA2*%
%TO.N,Net-(J2-Pin_1)*%
X86360000Y-50800000D03*
%TO.P,U1,39,PA1*%
%TO.N,Net-(U1-PA1)*%
X86360000Y-48260000D03*
%TO.P,U1,40,PA0*%
%TO.N,Net-(J6-Pin_1)*%
X86360000Y-45720000D03*
%TD*%
%TA.AperFunction,Conductor*%
%TO.N,GND*%
G36*
X157418000Y-17796613D02*
G01*
X157463387Y-17842000D01*
X157480000Y-17904000D01*
X157480000Y-114176000D01*
X157463387Y-114238000D01*
X157418000Y-114283387D01*
X157356000Y-114300000D01*
X43304000Y-114300000D01*
X43242000Y-114283387D01*
X43196613Y-114238000D01*
X43180000Y-114176000D01*
X43180000Y-104140000D01*
X105324340Y-104140000D01*
X105344936Y-104375407D01*
X105389709Y-104542501D01*
X105406097Y-104603663D01*
X105505965Y-104817830D01*
X105641505Y-105011401D01*
X105641508Y-105011404D01*
X105763430Y-105133326D01*
X105794726Y-105186072D01*
X105796915Y-105247365D01*
X105769462Y-105302209D01*
X105719083Y-105337189D01*
X105587669Y-105386204D01*
X105472454Y-105472454D01*
X105386204Y-105587668D01*
X105335909Y-105722516D01*
X105329500Y-105782130D01*
X105329500Y-107577869D01*
X105335909Y-107637483D01*
X105386204Y-107772331D01*
X105472454Y-107887546D01*
X105587669Y-107973796D01*
X105722517Y-108024091D01*
X105782127Y-108030500D01*
X107577872Y-108030499D01*
X107637483Y-108024091D01*
X107772331Y-107973796D01*
X107887546Y-107887546D01*
X107973796Y-107772331D01*
X108024091Y-107637483D01*
X108030500Y-107577873D01*
X108030499Y-106679999D01*
X130724340Y-106679999D01*
X130744936Y-106915407D01*
X130789709Y-107082502D01*
X130806097Y-107143663D01*
X130905965Y-107357830D01*
X131041505Y-107551401D01*
X131208599Y-107718495D01*
X131402170Y-107854035D01*
X131616337Y-107953903D01*
X131844592Y-108015063D01*
X132080000Y-108035659D01*
X132315408Y-108015063D01*
X132543663Y-107953903D01*
X132757830Y-107854035D01*
X132951401Y-107718495D01*
X133118495Y-107551401D01*
X133254035Y-107357830D01*
X133353903Y-107143663D01*
X133415063Y-106915408D01*
X133435659Y-106680000D01*
X133415063Y-106444592D01*
X133353903Y-106216337D01*
X133254035Y-106002171D01*
X133118495Y-105808599D01*
X132951401Y-105641505D01*
X132765839Y-105511573D01*
X132726975Y-105467257D01*
X132712964Y-105410000D01*
X132726975Y-105352743D01*
X132765839Y-105308426D01*
X132951401Y-105178495D01*
X133118495Y-105011401D01*
X133254035Y-104817830D01*
X133353903Y-104603663D01*
X133415063Y-104375408D01*
X133435659Y-104140000D01*
X133415063Y-103904592D01*
X133353903Y-103676337D01*
X133254035Y-103462171D01*
X133118495Y-103268599D01*
X132951401Y-103101505D01*
X132765839Y-102971573D01*
X132726974Y-102927255D01*
X132712964Y-102869999D01*
X132726975Y-102812742D01*
X132765837Y-102768428D01*
X132951401Y-102638495D01*
X133118495Y-102471401D01*
X133254035Y-102277830D01*
X133353903Y-102063663D01*
X133415063Y-101835408D01*
X133435659Y-101600000D01*
X133415063Y-101364592D01*
X133353903Y-101136337D01*
X133254035Y-100922171D01*
X133118495Y-100728599D01*
X132951401Y-100561505D01*
X132765839Y-100431573D01*
X132726974Y-100387255D01*
X132712964Y-100329999D01*
X132726975Y-100272742D01*
X132765837Y-100228428D01*
X132951401Y-100098495D01*
X133118495Y-99931401D01*
X133254035Y-99737830D01*
X133353903Y-99523663D01*
X133415063Y-99295408D01*
X133435659Y-99060000D01*
X133415063Y-98824592D01*
X133353903Y-98596337D01*
X133254035Y-98382171D01*
X133118495Y-98188599D01*
X132951401Y-98021505D01*
X132765839Y-97891573D01*
X132726976Y-97847257D01*
X132712965Y-97790000D01*
X132726976Y-97732743D01*
X132765839Y-97688426D01*
X132951401Y-97558495D01*
X133118495Y-97391401D01*
X133254035Y-97197830D01*
X133353903Y-96983663D01*
X133415063Y-96755408D01*
X133435659Y-96520000D01*
X133415063Y-96284592D01*
X133353903Y-96056337D01*
X133254035Y-95842171D01*
X133118495Y-95648599D01*
X132951401Y-95481505D01*
X132765839Y-95351573D01*
X132726975Y-95307257D01*
X132712964Y-95250000D01*
X132726975Y-95192743D01*
X132765839Y-95148426D01*
X132951401Y-95018495D01*
X133118495Y-94851401D01*
X133254035Y-94657830D01*
X133353903Y-94443663D01*
X133415063Y-94215408D01*
X133435659Y-93980000D01*
X133415063Y-93744592D01*
X133353903Y-93516337D01*
X133254035Y-93302171D01*
X133118495Y-93108599D01*
X132951401Y-92941505D01*
X132765839Y-92811573D01*
X132726974Y-92767255D01*
X132712964Y-92709999D01*
X132726975Y-92652742D01*
X132765837Y-92608428D01*
X132951401Y-92478495D01*
X133118495Y-92311401D01*
X133254035Y-92117830D01*
X133353903Y-91903663D01*
X133415063Y-91675408D01*
X133435659Y-91440000D01*
X133415063Y-91204592D01*
X133353903Y-90976337D01*
X133254035Y-90762171D01*
X133118495Y-90568599D01*
X132951401Y-90401505D01*
X132765839Y-90271573D01*
X132726975Y-90227257D01*
X132712964Y-90170000D01*
X132726975Y-90112743D01*
X132765839Y-90068426D01*
X132951401Y-89938495D01*
X133118495Y-89771401D01*
X133254035Y-89577830D01*
X133353903Y-89363663D01*
X133415063Y-89135408D01*
X133435659Y-88900000D01*
X133415063Y-88664592D01*
X133353903Y-88436337D01*
X133254035Y-88222171D01*
X133118495Y-88028599D01*
X132951401Y-87861505D01*
X132765839Y-87731573D01*
X132726975Y-87687257D01*
X132712964Y-87630000D01*
X132726975Y-87572743D01*
X132765839Y-87528426D01*
X132951401Y-87398495D01*
X133118495Y-87231401D01*
X133254035Y-87037830D01*
X133353903Y-86823663D01*
X133415063Y-86595408D01*
X133435659Y-86360000D01*
X133415063Y-86124592D01*
X133353903Y-85896337D01*
X133254035Y-85682171D01*
X133118495Y-85488599D01*
X132951401Y-85321505D01*
X132765839Y-85191573D01*
X132726975Y-85147257D01*
X132712964Y-85090000D01*
X132726975Y-85032743D01*
X132765839Y-84988426D01*
X132951401Y-84858495D01*
X133118495Y-84691401D01*
X133254035Y-84497830D01*
X133353903Y-84283663D01*
X133415063Y-84055408D01*
X133435659Y-83820000D01*
X133415063Y-83584592D01*
X133353903Y-83356337D01*
X133254035Y-83142171D01*
X133118495Y-82948599D01*
X132951401Y-82781505D01*
X132765839Y-82651573D01*
X132726975Y-82607257D01*
X132712964Y-82550000D01*
X132726975Y-82492743D01*
X132765839Y-82448426D01*
X132951401Y-82318495D01*
X133118495Y-82151401D01*
X133254035Y-81957830D01*
X133353903Y-81743663D01*
X133415063Y-81515408D01*
X133435659Y-81280000D01*
X133415063Y-81044592D01*
X133353903Y-80816337D01*
X133254035Y-80602171D01*
X133118495Y-80408599D01*
X132951401Y-80241505D01*
X132765839Y-80111573D01*
X132726976Y-80067257D01*
X132712965Y-80010000D01*
X132726976Y-79952743D01*
X132765839Y-79908426D01*
X132951401Y-79778495D01*
X133118495Y-79611401D01*
X133254035Y-79417830D01*
X133353903Y-79203663D01*
X133415063Y-78975408D01*
X133435659Y-78740000D01*
X133415063Y-78504592D01*
X133353903Y-78276337D01*
X133254035Y-78062171D01*
X133118495Y-77868599D01*
X132951401Y-77701505D01*
X132765839Y-77571573D01*
X132726975Y-77527257D01*
X132712964Y-77470000D01*
X132726975Y-77412743D01*
X132765839Y-77368426D01*
X132951401Y-77238495D01*
X133118495Y-77071401D01*
X133254035Y-76877830D01*
X133353903Y-76663663D01*
X133415063Y-76435408D01*
X133435659Y-76200000D01*
X133415063Y-75964592D01*
X133353903Y-75736337D01*
X133254035Y-75522171D01*
X133118495Y-75328599D01*
X132951401Y-75161505D01*
X132765839Y-75031573D01*
X132726975Y-74987257D01*
X132712964Y-74930000D01*
X132726975Y-74872743D01*
X132765839Y-74828426D01*
X132951401Y-74698495D01*
X133118495Y-74531401D01*
X133254035Y-74337830D01*
X133353903Y-74123663D01*
X133415063Y-73895408D01*
X133435659Y-73660000D01*
X133415063Y-73424592D01*
X133353903Y-73196337D01*
X133254035Y-72982171D01*
X133118495Y-72788599D01*
X132951401Y-72621505D01*
X132765839Y-72491573D01*
X132726975Y-72447257D01*
X132712964Y-72390000D01*
X132726975Y-72332743D01*
X132765839Y-72288426D01*
X132951401Y-72158495D01*
X133118495Y-71991401D01*
X133254035Y-71797830D01*
X133353903Y-71583663D01*
X133415063Y-71355408D01*
X133435659Y-71120000D01*
X133415063Y-70884592D01*
X133353903Y-70656337D01*
X133254035Y-70442171D01*
X133118495Y-70248599D01*
X132951401Y-70081505D01*
X132765839Y-69951573D01*
X132726975Y-69907257D01*
X132712964Y-69850000D01*
X132726975Y-69792743D01*
X132765839Y-69748426D01*
X132951401Y-69618495D01*
X133118495Y-69451401D01*
X133254035Y-69257830D01*
X133353903Y-69043663D01*
X133415063Y-68815408D01*
X133435659Y-68580000D01*
X133415063Y-68344592D01*
X133353903Y-68116337D01*
X133254035Y-67902171D01*
X133118495Y-67708599D01*
X132951401Y-67541505D01*
X132765839Y-67411573D01*
X132726975Y-67367257D01*
X132712964Y-67310000D01*
X132726975Y-67252743D01*
X132765839Y-67208426D01*
X132951401Y-67078495D01*
X133118495Y-66911401D01*
X133254035Y-66717830D01*
X133353903Y-66503663D01*
X133415063Y-66275408D01*
X133435659Y-66040000D01*
X133415063Y-65804592D01*
X133353903Y-65576337D01*
X133254035Y-65362171D01*
X133118495Y-65168599D01*
X132951401Y-65001505D01*
X132765839Y-64871573D01*
X132726976Y-64827257D01*
X132712965Y-64770000D01*
X132726976Y-64712743D01*
X132765839Y-64668426D01*
X132951401Y-64538495D01*
X133118495Y-64371401D01*
X133254035Y-64177830D01*
X133353903Y-63963663D01*
X133415063Y-63735408D01*
X133435659Y-63500000D01*
X133415063Y-63264592D01*
X133353903Y-63036337D01*
X133254035Y-62822171D01*
X133118495Y-62628599D01*
X132996181Y-62506285D01*
X132964885Y-62453539D01*
X132962696Y-62392246D01*
X132990149Y-62337401D01*
X133040528Y-62302422D01*
X133172089Y-62253352D01*
X133287188Y-62167188D01*
X133373352Y-62052089D01*
X133423597Y-61917375D01*
X133430000Y-61857824D01*
X133430000Y-61210000D01*
X130730000Y-61210000D01*
X130730000Y-61857824D01*
X130736402Y-61917375D01*
X130786647Y-62052089D01*
X130872811Y-62167188D01*
X130987911Y-62253352D01*
X131119471Y-62302422D01*
X131169850Y-62337401D01*
X131197303Y-62392246D01*
X131195114Y-62453539D01*
X131163819Y-62506285D01*
X131041503Y-62628601D01*
X130905965Y-62822170D01*
X130806097Y-63036336D01*
X130744936Y-63264592D01*
X130724340Y-63500000D01*
X130744936Y-63735407D01*
X130764036Y-63806689D01*
X130806097Y-63963663D01*
X130905965Y-64177830D01*
X131041505Y-64371401D01*
X131208599Y-64538495D01*
X131394160Y-64668426D01*
X131433024Y-64712743D01*
X131447035Y-64770000D01*
X131433024Y-64827257D01*
X131394159Y-64871575D01*
X131208595Y-65001508D01*
X131041505Y-65168598D01*
X130905965Y-65362170D01*
X130806097Y-65576336D01*
X130744936Y-65804592D01*
X130724340Y-66039999D01*
X130744936Y-66275407D01*
X130789709Y-66442502D01*
X130806097Y-66503663D01*
X130905965Y-66717830D01*
X131041505Y-66911401D01*
X131208599Y-67078495D01*
X131394160Y-67208426D01*
X131433024Y-67252743D01*
X131447035Y-67310000D01*
X131433024Y-67367257D01*
X131394158Y-67411575D01*
X131266487Y-67500972D01*
X131208595Y-67541508D01*
X131041505Y-67708598D01*
X130905965Y-67902170D01*
X130806097Y-68116336D01*
X130744936Y-68344592D01*
X130724340Y-68579999D01*
X130744936Y-68815407D01*
X130776593Y-68933553D01*
X130806097Y-69043663D01*
X130905965Y-69257830D01*
X131041505Y-69451401D01*
X131208599Y-69618495D01*
X131394160Y-69748426D01*
X131433024Y-69792743D01*
X131447035Y-69850000D01*
X131433024Y-69907257D01*
X131394158Y-69951575D01*
X131225222Y-70069866D01*
X131208595Y-70081508D01*
X131041505Y-70248598D01*
X130905965Y-70442170D01*
X130806097Y-70656336D01*
X130744936Y-70884592D01*
X130724340Y-71120000D01*
X130744936Y-71355407D01*
X130764013Y-71426602D01*
X130806097Y-71583663D01*
X130905965Y-71797830D01*
X131041505Y-71991401D01*
X131208599Y-72158495D01*
X131394160Y-72288426D01*
X131433024Y-72332743D01*
X131447035Y-72390000D01*
X131433024Y-72447257D01*
X131394159Y-72491575D01*
X131208595Y-72621508D01*
X131041505Y-72788598D01*
X130905965Y-72982170D01*
X130806097Y-73196336D01*
X130744936Y-73424592D01*
X130724340Y-73660000D01*
X130744936Y-73895407D01*
X130789709Y-74062501D01*
X130806097Y-74123663D01*
X130905965Y-74337830D01*
X131041505Y-74531401D01*
X131208599Y-74698495D01*
X131394160Y-74828426D01*
X131433024Y-74872743D01*
X131447035Y-74930000D01*
X131433024Y-74987257D01*
X131394159Y-75031575D01*
X131208595Y-75161508D01*
X131041505Y-75328598D01*
X130905965Y-75522170D01*
X130806097Y-75736336D01*
X130744936Y-75964592D01*
X130724340Y-76199999D01*
X130744936Y-76435407D01*
X130780061Y-76566496D01*
X130806097Y-76663663D01*
X130905965Y-76877830D01*
X131041505Y-77071401D01*
X131208599Y-77238495D01*
X131394160Y-77368426D01*
X131433024Y-77412743D01*
X131447035Y-77470000D01*
X131433024Y-77527257D01*
X131394159Y-77571575D01*
X131208595Y-77701508D01*
X131041505Y-77868598D01*
X130905965Y-78062170D01*
X130806097Y-78276336D01*
X130744936Y-78504592D01*
X130724340Y-78739999D01*
X130744936Y-78975407D01*
X130789709Y-79142501D01*
X130806097Y-79203663D01*
X130905965Y-79417830D01*
X131041505Y-79611401D01*
X131208599Y-79778495D01*
X131394160Y-79908426D01*
X131433024Y-79952743D01*
X131447035Y-80010000D01*
X131433024Y-80067257D01*
X131394159Y-80111575D01*
X131208595Y-80241508D01*
X131041505Y-80408598D01*
X130905965Y-80602170D01*
X130806097Y-80816336D01*
X130744936Y-81044592D01*
X130724340Y-81280000D01*
X130744936Y-81515407D01*
X130789709Y-81682502D01*
X130806097Y-81743663D01*
X130905965Y-81957830D01*
X131041505Y-82151401D01*
X131208599Y-82318495D01*
X131394160Y-82448426D01*
X131433024Y-82492743D01*
X131447035Y-82550000D01*
X131433024Y-82607257D01*
X131394159Y-82651575D01*
X131208595Y-82781508D01*
X131041505Y-82948598D01*
X130905965Y-83142170D01*
X130806097Y-83356336D01*
X130744936Y-83584592D01*
X130724340Y-83820000D01*
X130744936Y-84055407D01*
X130789709Y-84222501D01*
X130806097Y-84283663D01*
X130905965Y-84497830D01*
X131041505Y-84691401D01*
X131208599Y-84858495D01*
X131394160Y-84988426D01*
X131433024Y-85032743D01*
X131447035Y-85090000D01*
X131433024Y-85147257D01*
X131394159Y-85191575D01*
X131208595Y-85321508D01*
X131041505Y-85488598D01*
X130905965Y-85682170D01*
X130806097Y-85896336D01*
X130744936Y-86124592D01*
X130724340Y-86360000D01*
X130744936Y-86595407D01*
X130789709Y-86762502D01*
X130806097Y-86823663D01*
X130905965Y-87037830D01*
X131041505Y-87231401D01*
X131208599Y-87398495D01*
X131394160Y-87528426D01*
X131433024Y-87572743D01*
X131447035Y-87630000D01*
X131433024Y-87687257D01*
X131394159Y-87731575D01*
X131208595Y-87861508D01*
X131041505Y-88028598D01*
X130905965Y-88222170D01*
X130806097Y-88436336D01*
X130744936Y-88664592D01*
X130724340Y-88899999D01*
X130744936Y-89135407D01*
X130789709Y-89302501D01*
X130806097Y-89363663D01*
X130905965Y-89577830D01*
X131041505Y-89771401D01*
X131208599Y-89938495D01*
X131394160Y-90068426D01*
X131433024Y-90112743D01*
X131447035Y-90170000D01*
X131433024Y-90227257D01*
X131394159Y-90271575D01*
X131208595Y-90401508D01*
X131041505Y-90568598D01*
X130905965Y-90762170D01*
X130806097Y-90976336D01*
X130744936Y-91204592D01*
X130724340Y-91440000D01*
X130744936Y-91675407D01*
X130789709Y-91842502D01*
X130806097Y-91903663D01*
X130905965Y-92117830D01*
X131041505Y-92311401D01*
X131208599Y-92478495D01*
X131394160Y-92608426D01*
X131433024Y-92652743D01*
X131447035Y-92710000D01*
X131433024Y-92767257D01*
X131394159Y-92811575D01*
X131208595Y-92941508D01*
X131041505Y-93108598D01*
X130905965Y-93302170D01*
X130806097Y-93516336D01*
X130744936Y-93744592D01*
X130724340Y-93979999D01*
X130744936Y-94215407D01*
X130789709Y-94382501D01*
X130806097Y-94443663D01*
X130905965Y-94657830D01*
X131041505Y-94851401D01*
X131208599Y-95018495D01*
X131394160Y-95148426D01*
X131433024Y-95192743D01*
X131447035Y-95250000D01*
X131433024Y-95307257D01*
X131394159Y-95351575D01*
X131208595Y-95481508D01*
X131041505Y-95648598D01*
X130905965Y-95842170D01*
X130806097Y-96056336D01*
X130744936Y-96284592D01*
X130724340Y-96519999D01*
X130744936Y-96755407D01*
X130789709Y-96922501D01*
X130806097Y-96983663D01*
X130905965Y-97197830D01*
X131041505Y-97391401D01*
X131208599Y-97558495D01*
X131394160Y-97688426D01*
X131433024Y-97732743D01*
X131447035Y-97790000D01*
X131433024Y-97847257D01*
X131394159Y-97891575D01*
X131208595Y-98021508D01*
X131041505Y-98188598D01*
X130905965Y-98382170D01*
X130806097Y-98596336D01*
X130744936Y-98824592D01*
X130724340Y-99060000D01*
X130744936Y-99295407D01*
X130789709Y-99462502D01*
X130806097Y-99523663D01*
X130905965Y-99737830D01*
X131041505Y-99931401D01*
X131208599Y-100098495D01*
X131394160Y-100228426D01*
X131433024Y-100272743D01*
X131447035Y-100330000D01*
X131433024Y-100387257D01*
X131394159Y-100431575D01*
X131208595Y-100561508D01*
X131041505Y-100728598D01*
X130905965Y-100922170D01*
X130806097Y-101136336D01*
X130744936Y-101364592D01*
X130724340Y-101600000D01*
X130744936Y-101835407D01*
X130789709Y-102002501D01*
X130806097Y-102063663D01*
X130905965Y-102277830D01*
X131041505Y-102471401D01*
X131208599Y-102638495D01*
X131394160Y-102768426D01*
X131433024Y-102812743D01*
X131447035Y-102870000D01*
X131433024Y-102927257D01*
X131394159Y-102971575D01*
X131208595Y-103101508D01*
X131041505Y-103268598D01*
X130905965Y-103462170D01*
X130806097Y-103676336D01*
X130744936Y-103904592D01*
X130724340Y-104140000D01*
X130744936Y-104375407D01*
X130789709Y-104542501D01*
X130806097Y-104603663D01*
X130905965Y-104817830D01*
X131041505Y-105011401D01*
X131208599Y-105178495D01*
X131394160Y-105308426D01*
X131433024Y-105352743D01*
X131447035Y-105410000D01*
X131433024Y-105467257D01*
X131394159Y-105511575D01*
X131208595Y-105641508D01*
X131041505Y-105808598D01*
X130905965Y-106002170D01*
X130806097Y-106216336D01*
X130744936Y-106444592D01*
X130724340Y-106679999D01*
X108030499Y-106679999D01*
X108030499Y-105782128D01*
X108024091Y-105722517D01*
X107973796Y-105587669D01*
X107887546Y-105472454D01*
X107772331Y-105386204D01*
X107710898Y-105363291D01*
X107640916Y-105337189D01*
X107590537Y-105302209D01*
X107563084Y-105247365D01*
X107565273Y-105186072D01*
X107596566Y-105133329D01*
X107718495Y-105011401D01*
X107854035Y-104817830D01*
X107953903Y-104603663D01*
X108015063Y-104375408D01*
X108035659Y-104140000D01*
X108015063Y-103904592D01*
X107953903Y-103676337D01*
X107854035Y-103462171D01*
X107718495Y-103268599D01*
X107551401Y-103101505D01*
X107365839Y-102971573D01*
X107326974Y-102927255D01*
X107312964Y-102869999D01*
X107326975Y-102812742D01*
X107365837Y-102768428D01*
X107551401Y-102638495D01*
X107718495Y-102471401D01*
X107854035Y-102277830D01*
X107953903Y-102063663D01*
X108015063Y-101835408D01*
X108035659Y-101600000D01*
X108015063Y-101364592D01*
X107953903Y-101136337D01*
X107854035Y-100922171D01*
X107718495Y-100728599D01*
X107551401Y-100561505D01*
X107365839Y-100431573D01*
X107326975Y-100387257D01*
X107312964Y-100330000D01*
X107326975Y-100272743D01*
X107365839Y-100228426D01*
X107551401Y-100098495D01*
X107718495Y-99931401D01*
X107854035Y-99737830D01*
X107953903Y-99523663D01*
X108015063Y-99295408D01*
X108035659Y-99060000D01*
X108015063Y-98824592D01*
X107953903Y-98596337D01*
X107854035Y-98382171D01*
X107718495Y-98188599D01*
X107551401Y-98021505D01*
X107365839Y-97891573D01*
X107326976Y-97847257D01*
X107312965Y-97790000D01*
X107326976Y-97732743D01*
X107365839Y-97688426D01*
X107551401Y-97558495D01*
X107718495Y-97391401D01*
X107854035Y-97197830D01*
X107953903Y-96983663D01*
X108015063Y-96755408D01*
X108035659Y-96520000D01*
X108015063Y-96284592D01*
X107953903Y-96056337D01*
X107854035Y-95842171D01*
X107718495Y-95648599D01*
X107551401Y-95481505D01*
X107365839Y-95351573D01*
X107326975Y-95307257D01*
X107312964Y-95250000D01*
X107326975Y-95192743D01*
X107365839Y-95148426D01*
X107551401Y-95018495D01*
X107718495Y-94851401D01*
X107854035Y-94657830D01*
X107953903Y-94443663D01*
X108015063Y-94215408D01*
X108035659Y-93980000D01*
X108015063Y-93744592D01*
X107953903Y-93516337D01*
X107854035Y-93302171D01*
X107718495Y-93108599D01*
X107551401Y-92941505D01*
X107365839Y-92811573D01*
X107326974Y-92767255D01*
X107312964Y-92709999D01*
X107326975Y-92652742D01*
X107365837Y-92608428D01*
X107551401Y-92478495D01*
X107718495Y-92311401D01*
X107854035Y-92117830D01*
X107953903Y-91903663D01*
X108015063Y-91675408D01*
X108035659Y-91440000D01*
X108015063Y-91204592D01*
X107953903Y-90976337D01*
X107854035Y-90762171D01*
X107718495Y-90568599D01*
X107551401Y-90401505D01*
X107365839Y-90271573D01*
X107326975Y-90227257D01*
X107312964Y-90170000D01*
X107326975Y-90112743D01*
X107365839Y-90068426D01*
X107551401Y-89938495D01*
X107718495Y-89771401D01*
X107854035Y-89577830D01*
X107953903Y-89363663D01*
X108015063Y-89135408D01*
X108035659Y-88900000D01*
X108015063Y-88664592D01*
X107953903Y-88436337D01*
X107854035Y-88222171D01*
X107718495Y-88028599D01*
X107551401Y-87861505D01*
X107365839Y-87731573D01*
X107326975Y-87687257D01*
X107312964Y-87630000D01*
X107326975Y-87572743D01*
X107365839Y-87528426D01*
X107551401Y-87398495D01*
X107718495Y-87231401D01*
X107854035Y-87037830D01*
X107953903Y-86823663D01*
X108015063Y-86595408D01*
X108035659Y-86360000D01*
X108015063Y-86124592D01*
X107953903Y-85896337D01*
X107854035Y-85682171D01*
X107718495Y-85488599D01*
X107551401Y-85321505D01*
X107365839Y-85191573D01*
X107326975Y-85147257D01*
X107312964Y-85090000D01*
X107326975Y-85032743D01*
X107365839Y-84988426D01*
X107551401Y-84858495D01*
X107718495Y-84691401D01*
X107854035Y-84497830D01*
X107953903Y-84283663D01*
X108015063Y-84055408D01*
X108035659Y-83820000D01*
X108015063Y-83584592D01*
X107953903Y-83356337D01*
X107854035Y-83142171D01*
X107718495Y-82948599D01*
X107551401Y-82781505D01*
X107365839Y-82651573D01*
X107326975Y-82607257D01*
X107312964Y-82550000D01*
X107326975Y-82492743D01*
X107365839Y-82448426D01*
X107551401Y-82318495D01*
X107718495Y-82151401D01*
X107854035Y-81957830D01*
X107953903Y-81743663D01*
X108015063Y-81515408D01*
X108035659Y-81280000D01*
X108015063Y-81044592D01*
X107953903Y-80816337D01*
X107854035Y-80602171D01*
X107718495Y-80408599D01*
X107551401Y-80241505D01*
X107365839Y-80111573D01*
X107326976Y-80067257D01*
X107312965Y-80010000D01*
X107326976Y-79952743D01*
X107365839Y-79908426D01*
X107551401Y-79778495D01*
X107718495Y-79611401D01*
X107854035Y-79417830D01*
X107953903Y-79203663D01*
X108015063Y-78975408D01*
X108035659Y-78740000D01*
X108015063Y-78504592D01*
X107953903Y-78276337D01*
X107854035Y-78062171D01*
X107718495Y-77868599D01*
X107551401Y-77701505D01*
X107365839Y-77571573D01*
X107326975Y-77527257D01*
X107312964Y-77470000D01*
X107326975Y-77412743D01*
X107365839Y-77368426D01*
X107551401Y-77238495D01*
X107718495Y-77071401D01*
X107854035Y-76877830D01*
X107953903Y-76663663D01*
X108015063Y-76435408D01*
X108035659Y-76200000D01*
X108015063Y-75964592D01*
X107953903Y-75736337D01*
X107854035Y-75522171D01*
X107718495Y-75328599D01*
X107551401Y-75161505D01*
X107365839Y-75031573D01*
X107326975Y-74987257D01*
X107312964Y-74930000D01*
X107326975Y-74872743D01*
X107365839Y-74828426D01*
X107551401Y-74698495D01*
X107718495Y-74531401D01*
X107854035Y-74337830D01*
X107953903Y-74123663D01*
X108015063Y-73895408D01*
X108035659Y-73660000D01*
X108015063Y-73424592D01*
X107953903Y-73196337D01*
X107854035Y-72982171D01*
X107718495Y-72788599D01*
X107551401Y-72621505D01*
X107365839Y-72491573D01*
X107326976Y-72447257D01*
X107312965Y-72390000D01*
X107326976Y-72332743D01*
X107365839Y-72288426D01*
X107551401Y-72158495D01*
X107718495Y-71991401D01*
X107854035Y-71797830D01*
X107953903Y-71583663D01*
X108015063Y-71355408D01*
X108035659Y-71120000D01*
X108015063Y-70884592D01*
X107953903Y-70656337D01*
X107854035Y-70442171D01*
X107718495Y-70248599D01*
X107551401Y-70081505D01*
X107365839Y-69951573D01*
X107326975Y-69907257D01*
X107312964Y-69850000D01*
X107326975Y-69792743D01*
X107365839Y-69748426D01*
X107551401Y-69618495D01*
X107718495Y-69451401D01*
X107854035Y-69257830D01*
X107953903Y-69043663D01*
X108015063Y-68815408D01*
X108035659Y-68580000D01*
X108015063Y-68344592D01*
X107953903Y-68116337D01*
X107854035Y-67902171D01*
X107718495Y-67708599D01*
X107551401Y-67541505D01*
X107365839Y-67411573D01*
X107326975Y-67367257D01*
X107312964Y-67310000D01*
X107326975Y-67252743D01*
X107365839Y-67208426D01*
X107551401Y-67078495D01*
X107718495Y-66911401D01*
X107854035Y-66717830D01*
X107953903Y-66503663D01*
X108015063Y-66275408D01*
X108035659Y-66040000D01*
X108015063Y-65804592D01*
X107953903Y-65576337D01*
X107854035Y-65362171D01*
X107718495Y-65168599D01*
X107551401Y-65001505D01*
X107365839Y-64871573D01*
X107326976Y-64827257D01*
X107312965Y-64770000D01*
X107326976Y-64712743D01*
X107365839Y-64668426D01*
X107551401Y-64538495D01*
X107718495Y-64371401D01*
X107854035Y-64177830D01*
X107953903Y-63963663D01*
X108015063Y-63735408D01*
X108035659Y-63500000D01*
X108015063Y-63264592D01*
X107953903Y-63036337D01*
X107854035Y-62822171D01*
X107718495Y-62628599D01*
X107551401Y-62461505D01*
X107365839Y-62331573D01*
X107326974Y-62287255D01*
X107312964Y-62229999D01*
X107326975Y-62172742D01*
X107365837Y-62128428D01*
X107551401Y-61998495D01*
X107718495Y-61831401D01*
X107854035Y-61637830D01*
X107953903Y-61423663D01*
X108015063Y-61195408D01*
X108035659Y-60960000D01*
X108015063Y-60724592D01*
X108011153Y-60710000D01*
X130730000Y-60710000D01*
X131830000Y-60710000D01*
X131830000Y-59610000D01*
X132330000Y-59610000D01*
X132330000Y-60710000D01*
X133430000Y-60710000D01*
X133430000Y-60062176D01*
X133423597Y-60002624D01*
X133373352Y-59867910D01*
X133287188Y-59752811D01*
X133172089Y-59666647D01*
X133037375Y-59616402D01*
X132977824Y-59610000D01*
X132330000Y-59610000D01*
X131830000Y-59610000D01*
X131182176Y-59610000D01*
X131122624Y-59616402D01*
X130987910Y-59666647D01*
X130872811Y-59752811D01*
X130786647Y-59867910D01*
X130736402Y-60002624D01*
X130730000Y-60062176D01*
X130730000Y-60710000D01*
X108011153Y-60710000D01*
X107953903Y-60496337D01*
X107854035Y-60282171D01*
X107718495Y-60088599D01*
X107551401Y-59921505D01*
X107357830Y-59785965D01*
X107143663Y-59686097D01*
X107071074Y-59666647D01*
X106915407Y-59624936D01*
X106680000Y-59604340D01*
X106444592Y-59624936D01*
X106216336Y-59686097D01*
X106002170Y-59785965D01*
X105808598Y-59921505D01*
X105641505Y-60088598D01*
X105505965Y-60282170D01*
X105406097Y-60496336D01*
X105344936Y-60724592D01*
X105324340Y-60960000D01*
X105344936Y-61195407D01*
X105389709Y-61362502D01*
X105406097Y-61423663D01*
X105505965Y-61637830D01*
X105641505Y-61831401D01*
X105808599Y-61998495D01*
X105994160Y-62128426D01*
X106033024Y-62172743D01*
X106047035Y-62230000D01*
X106033024Y-62287257D01*
X105994159Y-62331575D01*
X105808595Y-62461508D01*
X105641505Y-62628598D01*
X105505965Y-62822170D01*
X105406097Y-63036336D01*
X105344936Y-63264592D01*
X105324340Y-63500000D01*
X105344936Y-63735407D01*
X105364036Y-63806689D01*
X105406097Y-63963663D01*
X105505965Y-64177830D01*
X105641505Y-64371401D01*
X105808599Y-64538495D01*
X105994160Y-64668426D01*
X106033024Y-64712743D01*
X106047035Y-64770000D01*
X106033024Y-64827257D01*
X105994159Y-64871575D01*
X105808595Y-65001508D01*
X105641505Y-65168598D01*
X105505965Y-65362170D01*
X105406097Y-65576336D01*
X105344936Y-65804592D01*
X105324340Y-66039999D01*
X105344936Y-66275407D01*
X105389709Y-66442502D01*
X105406097Y-66503663D01*
X105505965Y-66717830D01*
X105641505Y-66911401D01*
X105808599Y-67078495D01*
X105994160Y-67208426D01*
X106033024Y-67252743D01*
X106047035Y-67310000D01*
X106033024Y-67367257D01*
X105994158Y-67411575D01*
X105866487Y-67500972D01*
X105808595Y-67541508D01*
X105641505Y-67708598D01*
X105505965Y-67902170D01*
X105406097Y-68116336D01*
X105344936Y-68344592D01*
X105324340Y-68579999D01*
X105344936Y-68815407D01*
X105376593Y-68933553D01*
X105406097Y-69043663D01*
X105505965Y-69257830D01*
X105641505Y-69451401D01*
X105808599Y-69618495D01*
X105994160Y-69748426D01*
X106033024Y-69792743D01*
X106047035Y-69850000D01*
X106033024Y-69907257D01*
X105994158Y-69951575D01*
X105825222Y-70069866D01*
X105808595Y-70081508D01*
X105641505Y-70248598D01*
X105505965Y-70442170D01*
X105406097Y-70656336D01*
X105344936Y-70884592D01*
X105324340Y-71119999D01*
X105344936Y-71355407D01*
X105364013Y-71426602D01*
X105406097Y-71583663D01*
X105505965Y-71797830D01*
X105641505Y-71991401D01*
X105808599Y-72158495D01*
X105994160Y-72288426D01*
X106033024Y-72332743D01*
X106047035Y-72390000D01*
X106033024Y-72447257D01*
X105994159Y-72491575D01*
X105808595Y-72621508D01*
X105641505Y-72788598D01*
X105505965Y-72982170D01*
X105406097Y-73196336D01*
X105344936Y-73424592D01*
X105324340Y-73660000D01*
X105344936Y-73895407D01*
X105389709Y-74062501D01*
X105406097Y-74123663D01*
X105505965Y-74337830D01*
X105641505Y-74531401D01*
X105808599Y-74698495D01*
X105994160Y-74828426D01*
X106033024Y-74872743D01*
X106047035Y-74930000D01*
X106033024Y-74987257D01*
X105994159Y-75031575D01*
X105808595Y-75161508D01*
X105641505Y-75328598D01*
X105505965Y-75522170D01*
X105406097Y-75736336D01*
X105344936Y-75964592D01*
X105324340Y-76199999D01*
X105344936Y-76435407D01*
X105380061Y-76566496D01*
X105406097Y-76663663D01*
X105505965Y-76877830D01*
X105641505Y-77071401D01*
X105808599Y-77238495D01*
X105994160Y-77368426D01*
X106033024Y-77412743D01*
X106047035Y-77470000D01*
X106033024Y-77527257D01*
X105994159Y-77571575D01*
X105808595Y-77701508D01*
X105641505Y-77868598D01*
X105505965Y-78062170D01*
X105406097Y-78276336D01*
X105344936Y-78504592D01*
X105324340Y-78740000D01*
X105344936Y-78975407D01*
X105389709Y-79142501D01*
X105406097Y-79203663D01*
X105505965Y-79417830D01*
X105641505Y-79611401D01*
X105808599Y-79778495D01*
X105994160Y-79908426D01*
X106033024Y-79952743D01*
X106047035Y-80010000D01*
X106033024Y-80067257D01*
X105994159Y-80111575D01*
X105808595Y-80241508D01*
X105641505Y-80408598D01*
X105505965Y-80602170D01*
X105406097Y-80816336D01*
X105344936Y-81044592D01*
X105324340Y-81279999D01*
X105344936Y-81515407D01*
X105389709Y-81682502D01*
X105406097Y-81743663D01*
X105505965Y-81957830D01*
X105641505Y-82151401D01*
X105808599Y-82318495D01*
X105994160Y-82448426D01*
X106033024Y-82492743D01*
X106047035Y-82550000D01*
X106033024Y-82607257D01*
X105994159Y-82651575D01*
X105808595Y-82781508D01*
X105641505Y-82948598D01*
X105505965Y-83142170D01*
X105406097Y-83356336D01*
X105344936Y-83584592D01*
X105324340Y-83820000D01*
X105344936Y-84055407D01*
X105389709Y-84222501D01*
X105406097Y-84283663D01*
X105505965Y-84497830D01*
X105641505Y-84691401D01*
X105808599Y-84858495D01*
X105994160Y-84988426D01*
X106033024Y-85032743D01*
X106047035Y-85090000D01*
X106033024Y-85147257D01*
X105994159Y-85191575D01*
X105808595Y-85321508D01*
X105641505Y-85488598D01*
X105505965Y-85682170D01*
X105406097Y-85896336D01*
X105344936Y-86124592D01*
X105324340Y-86360000D01*
X105344936Y-86595407D01*
X105389709Y-86762502D01*
X105406097Y-86823663D01*
X105505965Y-87037830D01*
X105641505Y-87231401D01*
X105808599Y-87398495D01*
X105994160Y-87528426D01*
X106033024Y-87572743D01*
X106047035Y-87630000D01*
X106033024Y-87687257D01*
X105994159Y-87731575D01*
X105808595Y-87861508D01*
X105641505Y-88028598D01*
X105505965Y-88222170D01*
X105406097Y-88436336D01*
X105344936Y-88664592D01*
X105324340Y-88899999D01*
X105344936Y-89135407D01*
X105389709Y-89302501D01*
X105406097Y-89363663D01*
X105505965Y-89577830D01*
X105641505Y-89771401D01*
X105808599Y-89938495D01*
X105994160Y-90068426D01*
X106033024Y-90112743D01*
X106047035Y-90170000D01*
X106033024Y-90227257D01*
X105994159Y-90271575D01*
X105808595Y-90401508D01*
X105641505Y-90568598D01*
X105505965Y-90762170D01*
X105406097Y-90976336D01*
X105344936Y-91204592D01*
X105324340Y-91440000D01*
X105344936Y-91675407D01*
X105389709Y-91842502D01*
X105406097Y-91903663D01*
X105505965Y-92117830D01*
X105641505Y-92311401D01*
X105808599Y-92478495D01*
X105994160Y-92608426D01*
X106033024Y-92652743D01*
X106047035Y-92710000D01*
X106033024Y-92767257D01*
X105994159Y-92811575D01*
X105808595Y-92941508D01*
X105641505Y-93108598D01*
X105505965Y-93302170D01*
X105406097Y-93516336D01*
X105344936Y-93744592D01*
X105324340Y-93979999D01*
X105344936Y-94215407D01*
X105389709Y-94382501D01*
X105406097Y-94443663D01*
X105505965Y-94657830D01*
X105641505Y-94851401D01*
X105808599Y-95018495D01*
X105994160Y-95148426D01*
X106033024Y-95192743D01*
X106047035Y-95250000D01*
X106033024Y-95307257D01*
X105994159Y-95351575D01*
X105808595Y-95481508D01*
X105641505Y-95648598D01*
X105505965Y-95842170D01*
X105406097Y-96056336D01*
X105344936Y-96284592D01*
X105324340Y-96520000D01*
X105344936Y-96755407D01*
X105389709Y-96922501D01*
X105406097Y-96983663D01*
X105505965Y-97197830D01*
X105641505Y-97391401D01*
X105808599Y-97558495D01*
X105994160Y-97688426D01*
X106033024Y-97732743D01*
X106047035Y-97790000D01*
X106033024Y-97847257D01*
X105994159Y-97891575D01*
X105808595Y-98021508D01*
X105641505Y-98188598D01*
X105505965Y-98382170D01*
X105406097Y-98596336D01*
X105344936Y-98824592D01*
X105324340Y-99059999D01*
X105344936Y-99295407D01*
X105389709Y-99462502D01*
X105406097Y-99523663D01*
X105505965Y-99737830D01*
X105641505Y-99931401D01*
X105808599Y-100098495D01*
X105994160Y-100228426D01*
X106033024Y-100272743D01*
X106047035Y-100330000D01*
X106033024Y-100387257D01*
X105994159Y-100431575D01*
X105808595Y-100561508D01*
X105641505Y-100728598D01*
X105505965Y-100922170D01*
X105406097Y-101136336D01*
X105344936Y-101364592D01*
X105324340Y-101600000D01*
X105344936Y-101835407D01*
X105389709Y-102002501D01*
X105406097Y-102063663D01*
X105505965Y-102277830D01*
X105641505Y-102471401D01*
X105808599Y-102638495D01*
X105994160Y-102768426D01*
X106033024Y-102812743D01*
X106047035Y-102870000D01*
X106033024Y-102927257D01*
X105994159Y-102971575D01*
X105808595Y-103101508D01*
X105641505Y-103268598D01*
X105505965Y-103462170D01*
X105406097Y-103676336D01*
X105344936Y-103904592D01*
X105324340Y-104140000D01*
X43180000Y-104140000D01*
X43180000Y-93979999D01*
X69814531Y-93979999D01*
X69834364Y-94206689D01*
X69893261Y-94426497D01*
X69989432Y-94632735D01*
X70119953Y-94819140D01*
X70280859Y-94980046D01*
X70467264Y-95110567D01*
X70467265Y-95110567D01*
X70467266Y-95110568D01*
X70673504Y-95206739D01*
X70893308Y-95265635D01*
X71120000Y-95285468D01*
X71346692Y-95265635D01*
X71566496Y-95206739D01*
X71772734Y-95110568D01*
X71959139Y-94980047D01*
X72120047Y-94819139D01*
X72250568Y-94632734D01*
X72346739Y-94426496D01*
X72405635Y-94206692D01*
X72425468Y-93980000D01*
X85054531Y-93980000D01*
X85074364Y-94206689D01*
X85133261Y-94426497D01*
X85229432Y-94632735D01*
X85359953Y-94819140D01*
X85520859Y-94980046D01*
X85707264Y-95110567D01*
X85707265Y-95110567D01*
X85707266Y-95110568D01*
X85913504Y-95206739D01*
X86133308Y-95265635D01*
X86360000Y-95285468D01*
X86586692Y-95265635D01*
X86806496Y-95206739D01*
X87012734Y-95110568D01*
X87199139Y-94980047D01*
X87360047Y-94819139D01*
X87490568Y-94632734D01*
X87586739Y-94426496D01*
X87645635Y-94206692D01*
X87665468Y-93980000D01*
X87645635Y-93753308D01*
X87586739Y-93533504D01*
X87490568Y-93327266D01*
X87472996Y-93302171D01*
X87360046Y-93140859D01*
X87199140Y-92979953D01*
X87012732Y-92849430D01*
X86954724Y-92822380D01*
X86902549Y-92776623D01*
X86883130Y-92709997D01*
X86902550Y-92643373D01*
X86954721Y-92597619D01*
X87012734Y-92570568D01*
X87199139Y-92440047D01*
X87360047Y-92279139D01*
X87490568Y-92092734D01*
X87586739Y-91886496D01*
X87645635Y-91666692D01*
X87665468Y-91440000D01*
X87645635Y-91213308D01*
X87586739Y-90993504D01*
X87490568Y-90787266D01*
X87472996Y-90762171D01*
X87360046Y-90600859D01*
X87199140Y-90439953D01*
X87012733Y-90309431D01*
X86954725Y-90282382D01*
X86902549Y-90236625D01*
X86883129Y-90170000D01*
X86902549Y-90103375D01*
X86954725Y-90057618D01*
X87012734Y-90030568D01*
X87199139Y-89900047D01*
X87360047Y-89739139D01*
X87490568Y-89552734D01*
X87586739Y-89346496D01*
X87645635Y-89126692D01*
X87665468Y-88900000D01*
X87645635Y-88673308D01*
X87586739Y-88453504D01*
X87490568Y-88247266D01*
X87472996Y-88222171D01*
X87360046Y-88060859D01*
X87199140Y-87899953D01*
X87012733Y-87769431D01*
X86954725Y-87742382D01*
X86902549Y-87696625D01*
X86883129Y-87630000D01*
X86902549Y-87563375D01*
X86954725Y-87517618D01*
X87012734Y-87490568D01*
X87199139Y-87360047D01*
X87360047Y-87199139D01*
X87490568Y-87012734D01*
X87586739Y-86806496D01*
X87645635Y-86586692D01*
X87665468Y-86360000D01*
X87645635Y-86133308D01*
X87586739Y-85913504D01*
X87490568Y-85707266D01*
X87472996Y-85682171D01*
X87360046Y-85520859D01*
X87199140Y-85359953D01*
X87012733Y-85229431D01*
X86954725Y-85202382D01*
X86902549Y-85156625D01*
X86883129Y-85090000D01*
X86902549Y-85023375D01*
X86954725Y-84977618D01*
X87012734Y-84950568D01*
X87199139Y-84820047D01*
X87360047Y-84659139D01*
X87490568Y-84472734D01*
X87586739Y-84266496D01*
X87645635Y-84046692D01*
X87665468Y-83820000D01*
X87645635Y-83593308D01*
X87586739Y-83373504D01*
X87490568Y-83167266D01*
X87472996Y-83142171D01*
X87360046Y-82980859D01*
X87199140Y-82819953D01*
X87012733Y-82689431D01*
X86954725Y-82662382D01*
X86902549Y-82616625D01*
X86883129Y-82550000D01*
X86902549Y-82483375D01*
X86954725Y-82437618D01*
X87012734Y-82410568D01*
X87199139Y-82280047D01*
X87360047Y-82119139D01*
X87490568Y-81932734D01*
X87586739Y-81726496D01*
X87645635Y-81506692D01*
X87665468Y-81280000D01*
X87645635Y-81053308D01*
X87586739Y-80833504D01*
X87490568Y-80627266D01*
X87472996Y-80602171D01*
X87360046Y-80440859D01*
X87199140Y-80279953D01*
X87012736Y-80149433D01*
X86954723Y-80122381D01*
X86902548Y-80076623D01*
X86883129Y-80009997D01*
X86902549Y-79943372D01*
X86954721Y-79897619D01*
X87012734Y-79870568D01*
X87199139Y-79740047D01*
X87360047Y-79579139D01*
X87490568Y-79392734D01*
X87586739Y-79186496D01*
X87645635Y-78966692D01*
X87665468Y-78740000D01*
X87645635Y-78513308D01*
X87586739Y-78293504D01*
X87490568Y-78087266D01*
X87472996Y-78062171D01*
X87360046Y-77900859D01*
X87199140Y-77739953D01*
X87012733Y-77609431D01*
X86954725Y-77582382D01*
X86902549Y-77536625D01*
X86883129Y-77470000D01*
X86902549Y-77403375D01*
X86954725Y-77357618D01*
X86978055Y-77346739D01*
X87012734Y-77330568D01*
X87199139Y-77200047D01*
X87360047Y-77039139D01*
X87490568Y-76852734D01*
X87586739Y-76646496D01*
X87645635Y-76426692D01*
X87665468Y-76200000D01*
X87645635Y-75973308D01*
X87586739Y-75753504D01*
X87490568Y-75547266D01*
X87472996Y-75522171D01*
X87360046Y-75360859D01*
X87199140Y-75199953D01*
X87012732Y-75069430D01*
X86954724Y-75042380D01*
X86902549Y-74996623D01*
X86883130Y-74929997D01*
X86902550Y-74863373D01*
X86954721Y-74817619D01*
X87012734Y-74790568D01*
X87199139Y-74660047D01*
X87360047Y-74499139D01*
X87490568Y-74312734D01*
X87586739Y-74106496D01*
X87645635Y-73886692D01*
X87665468Y-73660000D01*
X87645635Y-73433308D01*
X87586739Y-73213504D01*
X87490568Y-73007266D01*
X87472996Y-72982171D01*
X87360046Y-72820859D01*
X87199140Y-72659953D01*
X87012733Y-72529431D01*
X86954725Y-72502382D01*
X86902549Y-72456625D01*
X86883129Y-72390000D01*
X86902549Y-72323375D01*
X86954725Y-72277618D01*
X86955317Y-72277342D01*
X87012734Y-72250568D01*
X87199139Y-72120047D01*
X87360047Y-71959139D01*
X87490568Y-71772734D01*
X87586739Y-71566496D01*
X87645635Y-71346692D01*
X87665468Y-71120000D01*
X87645635Y-70893308D01*
X87586739Y-70673504D01*
X87490568Y-70467266D01*
X87472996Y-70442171D01*
X87360046Y-70280859D01*
X87199140Y-70119953D01*
X87012736Y-69989433D01*
X87012730Y-69989430D01*
X86954132Y-69962105D01*
X86901958Y-69916348D01*
X86882539Y-69849723D01*
X86901959Y-69783098D01*
X86954135Y-69737342D01*
X87012479Y-69710135D01*
X87198819Y-69579658D01*
X87359658Y-69418819D01*
X87490134Y-69232480D01*
X87586266Y-69026326D01*
X87638872Y-68830000D01*
X85081128Y-68830000D01*
X85133733Y-69026326D01*
X85229865Y-69232480D01*
X85360341Y-69418819D01*
X85521180Y-69579658D01*
X85707519Y-69710134D01*
X85765865Y-69737342D01*
X85818040Y-69783099D01*
X85837460Y-69849723D01*
X85818041Y-69916348D01*
X85765866Y-69962105D01*
X85707267Y-69989430D01*
X85520859Y-70119953D01*
X85359953Y-70280859D01*
X85229432Y-70467264D01*
X85133261Y-70673502D01*
X85074364Y-70893310D01*
X85054531Y-71120000D01*
X85074364Y-71346689D01*
X85133261Y-71566497D01*
X85229432Y-71772735D01*
X85359953Y-71959140D01*
X85520859Y-72120046D01*
X85707263Y-72250566D01*
X85707266Y-72250568D01*
X85764683Y-72277342D01*
X85765275Y-72277618D01*
X85817450Y-72323375D01*
X85836869Y-72390000D01*
X85817450Y-72456625D01*
X85765275Y-72502381D01*
X85744576Y-72512033D01*
X85707263Y-72529433D01*
X85520859Y-72659953D01*
X85359953Y-72820859D01*
X85229432Y-73007264D01*
X85133261Y-73213502D01*
X85074364Y-73433310D01*
X85054531Y-73660000D01*
X85074364Y-73886689D01*
X85133261Y-74106497D01*
X85229432Y-74312735D01*
X85359953Y-74499140D01*
X85520859Y-74660046D01*
X85707262Y-74790565D01*
X85707266Y-74790568D01*
X85765273Y-74817617D01*
X85817449Y-74863373D01*
X85836869Y-74929997D01*
X85817451Y-74996622D01*
X85765276Y-75042380D01*
X85707266Y-75069431D01*
X85520859Y-75199953D01*
X85359953Y-75360859D01*
X85229432Y-75547264D01*
X85133261Y-75753502D01*
X85074364Y-75973310D01*
X85054531Y-76200000D01*
X85074364Y-76426689D01*
X85133261Y-76646497D01*
X85229432Y-76852735D01*
X85359953Y-77039140D01*
X85520859Y-77200046D01*
X85593013Y-77250568D01*
X85707266Y-77330568D01*
X85741945Y-77346739D01*
X85765275Y-77357618D01*
X85817450Y-77403375D01*
X85836869Y-77470000D01*
X85817450Y-77536625D01*
X85765275Y-77582382D01*
X85707263Y-77609433D01*
X85520859Y-77739953D01*
X85359953Y-77900859D01*
X85229432Y-78087264D01*
X85133261Y-78293502D01*
X85074364Y-78513310D01*
X85054531Y-78740000D01*
X85074364Y-78966689D01*
X85133261Y-79186497D01*
X85229432Y-79392735D01*
X85359953Y-79579140D01*
X85520859Y-79740046D01*
X85707263Y-79870566D01*
X85707266Y-79870568D01*
X85765275Y-79897618D01*
X85817450Y-79943375D01*
X85836869Y-80010000D01*
X85817450Y-80076625D01*
X85765275Y-80122382D01*
X85707263Y-80149433D01*
X85520859Y-80279953D01*
X85359953Y-80440859D01*
X85229432Y-80627264D01*
X85133261Y-80833502D01*
X85074364Y-81053310D01*
X85054531Y-81280000D01*
X85074364Y-81506689D01*
X85133261Y-81726497D01*
X85229432Y-81932735D01*
X85359953Y-82119140D01*
X85520859Y-82280046D01*
X85707263Y-82410566D01*
X85707266Y-82410568D01*
X85765275Y-82437618D01*
X85817450Y-82483375D01*
X85836869Y-82550000D01*
X85817450Y-82616625D01*
X85765275Y-82662382D01*
X85707263Y-82689433D01*
X85520859Y-82819953D01*
X85359953Y-82980859D01*
X85229432Y-83167264D01*
X85133261Y-83373502D01*
X85074364Y-83593310D01*
X85054531Y-83820000D01*
X85074364Y-84046689D01*
X85133261Y-84266497D01*
X85229432Y-84472735D01*
X85359953Y-84659140D01*
X85520859Y-84820046D01*
X85707263Y-84950566D01*
X85707266Y-84950568D01*
X85765275Y-84977618D01*
X85817450Y-85023375D01*
X85836869Y-85090000D01*
X85817450Y-85156625D01*
X85765275Y-85202382D01*
X85707263Y-85229433D01*
X85520859Y-85359953D01*
X85359953Y-85520859D01*
X85229432Y-85707264D01*
X85133261Y-85913502D01*
X85074364Y-86133310D01*
X85054531Y-86360000D01*
X85074364Y-86586689D01*
X85133261Y-86806497D01*
X85229432Y-87012735D01*
X85359953Y-87199140D01*
X85520859Y-87360046D01*
X85707263Y-87490566D01*
X85707266Y-87490568D01*
X85765275Y-87517618D01*
X85817450Y-87563375D01*
X85836869Y-87630000D01*
X85817450Y-87696625D01*
X85765275Y-87742382D01*
X85707263Y-87769433D01*
X85520859Y-87899953D01*
X85359953Y-88060859D01*
X85229432Y-88247264D01*
X85133261Y-88453502D01*
X85074364Y-88673310D01*
X85054531Y-88900000D01*
X85074364Y-89126689D01*
X85133261Y-89346497D01*
X85229432Y-89552735D01*
X85359953Y-89739140D01*
X85520859Y-89900046D01*
X85707263Y-90030566D01*
X85707266Y-90030568D01*
X85765275Y-90057618D01*
X85817450Y-90103375D01*
X85836869Y-90170000D01*
X85817450Y-90236625D01*
X85765275Y-90282382D01*
X85707263Y-90309433D01*
X85520859Y-90439953D01*
X85359953Y-90600859D01*
X85229432Y-90787264D01*
X85133261Y-90993502D01*
X85074364Y-91213310D01*
X85054531Y-91440000D01*
X85074364Y-91666689D01*
X85133261Y-91886497D01*
X85229432Y-92092735D01*
X85359953Y-92279140D01*
X85520859Y-92440046D01*
X85575765Y-92478491D01*
X85707266Y-92570568D01*
X85765273Y-92597617D01*
X85817449Y-92643373D01*
X85836869Y-92709997D01*
X85817451Y-92776622D01*
X85765276Y-92822380D01*
X85707266Y-92849431D01*
X85520859Y-92979953D01*
X85359953Y-93140859D01*
X85229432Y-93327264D01*
X85133261Y-93533502D01*
X85074364Y-93753310D01*
X85054531Y-93980000D01*
X72425468Y-93980000D01*
X72405635Y-93753308D01*
X72346739Y-93533504D01*
X72250568Y-93327266D01*
X72232996Y-93302171D01*
X72120046Y-93140859D01*
X71959140Y-92979953D01*
X71772732Y-92849430D01*
X71714724Y-92822380D01*
X71662549Y-92776623D01*
X71643130Y-92709997D01*
X71662550Y-92643373D01*
X71714721Y-92597619D01*
X71772734Y-92570568D01*
X71959139Y-92440047D01*
X72120047Y-92279139D01*
X72250568Y-92092734D01*
X72346739Y-91886496D01*
X72405635Y-91666692D01*
X72425468Y-91440000D01*
X72405635Y-91213308D01*
X72346739Y-90993504D01*
X72250568Y-90787266D01*
X72232996Y-90762171D01*
X72120046Y-90600859D01*
X71959140Y-90439953D01*
X71772733Y-90309431D01*
X71714725Y-90282382D01*
X71662549Y-90236625D01*
X71643129Y-90170000D01*
X71662549Y-90103375D01*
X71714725Y-90057618D01*
X71772734Y-90030568D01*
X71959139Y-89900047D01*
X72120047Y-89739139D01*
X72250568Y-89552734D01*
X72346739Y-89346496D01*
X72405635Y-89126692D01*
X72425468Y-88900000D01*
X72405635Y-88673308D01*
X72346739Y-88453504D01*
X72250568Y-88247266D01*
X72232996Y-88222171D01*
X72120046Y-88060859D01*
X71959140Y-87899953D01*
X71772733Y-87769431D01*
X71714725Y-87742382D01*
X71662549Y-87696625D01*
X71643129Y-87630000D01*
X71662549Y-87563375D01*
X71714725Y-87517618D01*
X71772734Y-87490568D01*
X71959139Y-87360047D01*
X72120047Y-87199139D01*
X72250568Y-87012734D01*
X72346739Y-86806496D01*
X72405635Y-86586692D01*
X72425468Y-86360000D01*
X72405635Y-86133308D01*
X72346739Y-85913504D01*
X72250568Y-85707266D01*
X72232996Y-85682171D01*
X72120046Y-85520859D01*
X71959140Y-85359953D01*
X71772733Y-85229431D01*
X71714725Y-85202382D01*
X71662549Y-85156625D01*
X71643129Y-85090000D01*
X71662549Y-85023375D01*
X71714725Y-84977618D01*
X71772734Y-84950568D01*
X71959139Y-84820047D01*
X72120047Y-84659139D01*
X72250568Y-84472734D01*
X72346739Y-84266496D01*
X72405635Y-84046692D01*
X72425468Y-83820000D01*
X72405635Y-83593308D01*
X72346739Y-83373504D01*
X72250568Y-83167266D01*
X72232996Y-83142171D01*
X72120046Y-82980859D01*
X71959140Y-82819953D01*
X71772733Y-82689431D01*
X71714725Y-82662382D01*
X71662549Y-82616625D01*
X71643129Y-82550000D01*
X71662549Y-82483375D01*
X71714725Y-82437618D01*
X71772734Y-82410568D01*
X71959139Y-82280047D01*
X72120047Y-82119139D01*
X72250568Y-81932734D01*
X72346739Y-81726496D01*
X72405635Y-81506692D01*
X72425468Y-81280000D01*
X72405635Y-81053308D01*
X72346739Y-80833504D01*
X72250568Y-80627266D01*
X72232996Y-80602171D01*
X72120046Y-80440859D01*
X71959140Y-80279953D01*
X71772736Y-80149433D01*
X71714723Y-80122381D01*
X71662548Y-80076623D01*
X71643129Y-80009997D01*
X71662549Y-79943372D01*
X71714721Y-79897619D01*
X71772734Y-79870568D01*
X71959139Y-79740047D01*
X72120047Y-79579139D01*
X72250568Y-79392734D01*
X72346739Y-79186496D01*
X72405635Y-78966692D01*
X72425468Y-78740000D01*
X72405635Y-78513308D01*
X72346739Y-78293504D01*
X72250568Y-78087266D01*
X72232996Y-78062171D01*
X72120046Y-77900859D01*
X71959140Y-77739953D01*
X71772733Y-77609431D01*
X71714725Y-77582382D01*
X71662549Y-77536625D01*
X71643129Y-77470000D01*
X71662549Y-77403375D01*
X71714725Y-77357618D01*
X71738055Y-77346739D01*
X71772734Y-77330568D01*
X71959139Y-77200047D01*
X72120047Y-77039139D01*
X72250568Y-76852734D01*
X72346739Y-76646496D01*
X72405635Y-76426692D01*
X72425468Y-76200000D01*
X72405635Y-75973308D01*
X72346739Y-75753504D01*
X72250568Y-75547266D01*
X72232996Y-75522171D01*
X72120046Y-75360859D01*
X71959140Y-75199953D01*
X71772732Y-75069430D01*
X71714724Y-75042380D01*
X71662549Y-74996623D01*
X71643130Y-74929997D01*
X71662550Y-74863373D01*
X71714721Y-74817619D01*
X71772734Y-74790568D01*
X71959139Y-74660047D01*
X72120047Y-74499139D01*
X72250568Y-74312734D01*
X72346739Y-74106496D01*
X72405635Y-73886692D01*
X72425468Y-73660000D01*
X72405635Y-73433308D01*
X72346739Y-73213504D01*
X72250568Y-73007266D01*
X72232996Y-72982171D01*
X72120046Y-72820859D01*
X71959140Y-72659953D01*
X71772736Y-72529433D01*
X71772730Y-72529430D01*
X71714132Y-72502105D01*
X71661958Y-72456348D01*
X71642539Y-72389723D01*
X71661959Y-72323098D01*
X71714135Y-72277342D01*
X71772479Y-72250135D01*
X71958819Y-72119658D01*
X72119658Y-71958819D01*
X72250134Y-71772480D01*
X72346266Y-71566326D01*
X72398872Y-71370000D01*
X69841128Y-71370000D01*
X69893733Y-71566326D01*
X69989865Y-71772480D01*
X70120341Y-71958819D01*
X70281180Y-72119658D01*
X70467519Y-72250134D01*
X70525865Y-72277342D01*
X70578040Y-72323099D01*
X70597460Y-72389723D01*
X70578041Y-72456348D01*
X70525866Y-72502105D01*
X70467267Y-72529430D01*
X70280859Y-72659953D01*
X70119953Y-72820859D01*
X69989432Y-73007264D01*
X69893261Y-73213502D01*
X69834364Y-73433310D01*
X69814531Y-73659999D01*
X69834364Y-73886689D01*
X69893261Y-74106497D01*
X69989432Y-74312735D01*
X70119953Y-74499140D01*
X70280859Y-74660046D01*
X70467262Y-74790565D01*
X70467266Y-74790568D01*
X70525273Y-74817617D01*
X70577449Y-74863373D01*
X70596869Y-74929997D01*
X70577451Y-74996622D01*
X70525276Y-75042380D01*
X70467266Y-75069431D01*
X70280859Y-75199953D01*
X70119953Y-75360859D01*
X69989432Y-75547264D01*
X69893261Y-75753502D01*
X69834364Y-75973310D01*
X69814531Y-76199999D01*
X69834364Y-76426689D01*
X69893261Y-76646497D01*
X69989432Y-76852735D01*
X70119953Y-77039140D01*
X70280859Y-77200046D01*
X70353013Y-77250568D01*
X70467266Y-77330568D01*
X70501945Y-77346739D01*
X70525275Y-77357618D01*
X70577450Y-77403375D01*
X70596869Y-77470000D01*
X70577450Y-77536625D01*
X70525275Y-77582382D01*
X70467263Y-77609433D01*
X70280859Y-77739953D01*
X70119953Y-77900859D01*
X69989432Y-78087264D01*
X69893261Y-78293502D01*
X69834364Y-78513310D01*
X69814531Y-78739999D01*
X69834364Y-78966689D01*
X69893261Y-79186497D01*
X69989432Y-79392735D01*
X70119953Y-79579140D01*
X70280859Y-79740046D01*
X70467263Y-79870566D01*
X70467266Y-79870568D01*
X70525275Y-79897618D01*
X70577450Y-79943375D01*
X70596869Y-80010000D01*
X70577450Y-80076625D01*
X70525275Y-80122382D01*
X70467263Y-80149433D01*
X70280859Y-80279953D01*
X70119953Y-80440859D01*
X69989432Y-80627264D01*
X69893261Y-80833502D01*
X69834364Y-81053310D01*
X69814531Y-81279999D01*
X69834364Y-81506689D01*
X69893261Y-81726497D01*
X69989432Y-81932735D01*
X70119953Y-82119140D01*
X70280859Y-82280046D01*
X70467263Y-82410566D01*
X70467266Y-82410568D01*
X70525275Y-82437618D01*
X70577450Y-82483375D01*
X70596869Y-82550000D01*
X70577450Y-82616625D01*
X70525275Y-82662382D01*
X70467263Y-82689433D01*
X70280859Y-82819953D01*
X70119953Y-82980859D01*
X69989432Y-83167264D01*
X69893261Y-83373502D01*
X69834364Y-83593310D01*
X69814531Y-83819999D01*
X69834364Y-84046689D01*
X69893261Y-84266497D01*
X69989432Y-84472735D01*
X70119953Y-84659140D01*
X70280859Y-84820046D01*
X70467263Y-84950566D01*
X70467266Y-84950568D01*
X70525275Y-84977618D01*
X70577450Y-85023375D01*
X70596869Y-85090000D01*
X70577450Y-85156625D01*
X70525275Y-85202382D01*
X70467263Y-85229433D01*
X70280859Y-85359953D01*
X70119953Y-85520859D01*
X69989432Y-85707264D01*
X69893261Y-85913502D01*
X69834364Y-86133310D01*
X69814531Y-86359999D01*
X69834364Y-86586689D01*
X69893261Y-86806497D01*
X69989432Y-87012735D01*
X70119953Y-87199140D01*
X70280859Y-87360046D01*
X70467263Y-87490566D01*
X70467266Y-87490568D01*
X70525275Y-87517618D01*
X70577450Y-87563375D01*
X70596869Y-87630000D01*
X70577450Y-87696625D01*
X70525275Y-87742382D01*
X70467263Y-87769433D01*
X70280859Y-87899953D01*
X70119953Y-88060859D01*
X69989432Y-88247264D01*
X69893261Y-88453502D01*
X69834364Y-88673310D01*
X69814531Y-88899999D01*
X69834364Y-89126689D01*
X69893261Y-89346497D01*
X69989432Y-89552735D01*
X70119953Y-89739140D01*
X70280859Y-89900046D01*
X70467263Y-90030566D01*
X70467266Y-90030568D01*
X70525275Y-90057618D01*
X70577450Y-90103375D01*
X70596869Y-90170000D01*
X70577450Y-90236625D01*
X70525275Y-90282382D01*
X70467263Y-90309433D01*
X70280859Y-90439953D01*
X70119953Y-90600859D01*
X69989432Y-90787264D01*
X69893261Y-90993502D01*
X69834364Y-91213310D01*
X69814531Y-91439999D01*
X69834364Y-91666689D01*
X69893261Y-91886497D01*
X69989432Y-92092735D01*
X70119953Y-92279140D01*
X70280859Y-92440046D01*
X70335765Y-92478491D01*
X70467266Y-92570568D01*
X70525273Y-92597617D01*
X70577449Y-92643373D01*
X70596869Y-92709997D01*
X70577451Y-92776622D01*
X70525276Y-92822380D01*
X70467266Y-92849431D01*
X70280859Y-92979953D01*
X70119953Y-93140859D01*
X69989432Y-93327264D01*
X69893261Y-93533502D01*
X69834364Y-93753310D01*
X69814531Y-93979999D01*
X43180000Y-93979999D01*
X43180000Y-78560000D01*
X59704722Y-78560000D01*
X59723792Y-78777974D01*
X59776694Y-78975408D01*
X59780425Y-78989330D01*
X59872898Y-79187639D01*
X59998402Y-79366877D01*
X60153123Y-79521598D01*
X60332361Y-79647102D01*
X60530670Y-79739575D01*
X60742023Y-79796207D01*
X60960000Y-79815277D01*
X61177977Y-79796207D01*
X61389330Y-79739575D01*
X61587639Y-79647102D01*
X61766877Y-79521598D01*
X61921598Y-79366877D01*
X62047102Y-79187639D01*
X62139575Y-78989330D01*
X62196207Y-78777977D01*
X62215277Y-78560000D01*
X62196207Y-78342023D01*
X62139575Y-78130670D01*
X62047102Y-77932362D01*
X61921598Y-77753123D01*
X61766877Y-77598402D01*
X61587639Y-77472898D01*
X61485925Y-77425468D01*
X61389331Y-77380425D01*
X61177974Y-77323792D01*
X60960000Y-77304722D01*
X60742025Y-77323792D01*
X60530668Y-77380425D01*
X60332361Y-77472898D01*
X60153122Y-77598402D01*
X59998402Y-77753122D01*
X59872898Y-77932361D01*
X59780425Y-78130668D01*
X59723792Y-78342025D01*
X59704722Y-78560000D01*
X43180000Y-78560000D01*
X43180000Y-76120000D01*
X46954531Y-76120000D01*
X46974364Y-76346689D01*
X47033261Y-76566497D01*
X47129432Y-76772735D01*
X47259953Y-76959140D01*
X47420859Y-77120046D01*
X47607264Y-77250567D01*
X47607265Y-77250567D01*
X47607266Y-77250568D01*
X47813504Y-77346739D01*
X48033308Y-77405635D01*
X48184435Y-77418856D01*
X48259999Y-77425468D01*
X48259999Y-77425467D01*
X48260000Y-77425468D01*
X48486692Y-77405635D01*
X48706496Y-77346739D01*
X48912734Y-77250568D01*
X49099139Y-77120047D01*
X49260047Y-76959139D01*
X49390568Y-76772734D01*
X49486739Y-76566496D01*
X49545635Y-76346692D01*
X49558469Y-76199999D01*
X52034531Y-76199999D01*
X52054364Y-76426689D01*
X52113261Y-76646497D01*
X52209432Y-76852735D01*
X52339953Y-77039140D01*
X52500859Y-77200046D01*
X52687264Y-77330567D01*
X52687265Y-77330567D01*
X52687266Y-77330568D01*
X52893504Y-77426739D01*
X53113308Y-77485635D01*
X53264436Y-77498857D01*
X53339999Y-77505468D01*
X53339999Y-77505467D01*
X53340000Y-77505468D01*
X53566692Y-77485635D01*
X53786496Y-77426739D01*
X53992734Y-77330568D01*
X54179139Y-77200047D01*
X54340047Y-77039139D01*
X54470568Y-76852734D01*
X54566739Y-76646496D01*
X54625635Y-76426692D01*
X54645468Y-76200000D01*
X54625635Y-75973308D01*
X54566739Y-75753504D01*
X54470568Y-75547266D01*
X54452996Y-75522171D01*
X54340046Y-75360859D01*
X54179140Y-75199953D01*
X53992735Y-75069432D01*
X53786497Y-74973261D01*
X53566689Y-74914364D01*
X53340000Y-74894531D01*
X53113310Y-74914364D01*
X52893502Y-74973261D01*
X52687264Y-75069432D01*
X52500859Y-75199953D01*
X52339953Y-75360859D01*
X52209432Y-75547264D01*
X52113261Y-75753502D01*
X52054364Y-75973310D01*
X52034531Y-76199999D01*
X49558469Y-76199999D01*
X49565468Y-76120000D01*
X49545635Y-75893308D01*
X49486739Y-75673504D01*
X49390568Y-75467266D01*
X49293473Y-75328599D01*
X49260046Y-75280859D01*
X49099140Y-75119953D01*
X48912735Y-74989432D01*
X48706497Y-74893261D01*
X48486689Y-74834364D01*
X48260000Y-74814531D01*
X48033310Y-74834364D01*
X47813502Y-74893261D01*
X47607264Y-74989432D01*
X47420859Y-75119953D01*
X47259953Y-75280859D01*
X47129432Y-75467264D01*
X47033261Y-75673502D01*
X46974364Y-75893310D01*
X46954531Y-76120000D01*
X43180000Y-76120000D01*
X43180000Y-73660000D01*
X59704722Y-73660000D01*
X59723792Y-73877974D01*
X59780425Y-74089331D01*
X59830261Y-74196205D01*
X59872898Y-74287639D01*
X59998402Y-74466877D01*
X60153123Y-74621598D01*
X60332361Y-74747102D01*
X60530670Y-74839575D01*
X60742023Y-74896207D01*
X60960000Y-74915277D01*
X61177977Y-74896207D01*
X61389330Y-74839575D01*
X61587639Y-74747102D01*
X61766877Y-74621598D01*
X61921598Y-74466877D01*
X62047102Y-74287639D01*
X62139575Y-74089330D01*
X62196207Y-73877977D01*
X62215277Y-73660000D01*
X62196207Y-73442023D01*
X62139575Y-73230670D01*
X62047102Y-73032362D01*
X61921598Y-72853123D01*
X61766877Y-72698402D01*
X61587639Y-72572898D01*
X61494422Y-72529430D01*
X61389331Y-72480425D01*
X61177974Y-72423792D01*
X60960000Y-72404722D01*
X60742025Y-72423792D01*
X60530668Y-72480425D01*
X60332361Y-72572898D01*
X60153122Y-72698402D01*
X59998402Y-72853122D01*
X59872898Y-73032361D01*
X59780425Y-73230668D01*
X59723792Y-73442025D01*
X59704722Y-73660000D01*
X43180000Y-73660000D01*
X43180000Y-72199026D01*
X47534526Y-72199026D01*
X47607515Y-72250133D01*
X47813673Y-72346266D01*
X48033397Y-72405141D01*
X48260000Y-72424966D01*
X48486602Y-72405141D01*
X48706326Y-72346266D01*
X48850521Y-72279026D01*
X52614526Y-72279026D01*
X52687515Y-72330133D01*
X52893673Y-72426266D01*
X53113397Y-72485141D01*
X53340000Y-72504966D01*
X53566602Y-72485141D01*
X53786326Y-72426266D01*
X53992480Y-72330134D01*
X54065472Y-72279025D01*
X53340001Y-71553553D01*
X53340000Y-71553553D01*
X52614526Y-72279025D01*
X52614526Y-72279026D01*
X48850521Y-72279026D01*
X48912480Y-72250134D01*
X48985472Y-72199025D01*
X48260001Y-71473553D01*
X48260000Y-71473553D01*
X47534526Y-72199025D01*
X47534526Y-72199026D01*
X43180000Y-72199026D01*
X43180000Y-71120000D01*
X46955033Y-71120000D01*
X46974858Y-71346602D01*
X47033733Y-71566326D01*
X47129866Y-71772484D01*
X47180972Y-71845471D01*
X47180974Y-71845472D01*
X47906446Y-71120001D01*
X48613553Y-71120001D01*
X49339025Y-71845472D01*
X49390134Y-71772480D01*
X49486266Y-71566326D01*
X49545141Y-71346602D01*
X49557967Y-71200000D01*
X52035033Y-71200000D01*
X52054858Y-71426602D01*
X52113733Y-71646326D01*
X52209866Y-71852484D01*
X52260972Y-71925471D01*
X52260974Y-71925472D01*
X52986446Y-71200001D01*
X53693553Y-71200001D01*
X54419025Y-71925472D01*
X54470134Y-71852480D01*
X54566266Y-71646326D01*
X54625141Y-71426602D01*
X54644966Y-71200000D01*
X54625141Y-70973397D01*
X54566266Y-70753673D01*
X54470133Y-70547515D01*
X54419025Y-70474526D01*
X53693553Y-71200000D01*
X53693553Y-71200001D01*
X52986446Y-71200001D01*
X52986446Y-71200000D01*
X52260973Y-70474526D01*
X52260973Y-70474527D01*
X52209865Y-70547516D01*
X52113733Y-70753672D01*
X52054858Y-70973397D01*
X52035033Y-71200000D01*
X49557967Y-71200000D01*
X49564966Y-71120000D01*
X49545141Y-70893397D01*
X49486266Y-70673673D01*
X49390133Y-70467515D01*
X49339025Y-70394526D01*
X48613553Y-71120000D01*
X48613553Y-71120001D01*
X47906446Y-71120001D01*
X47906446Y-71120000D01*
X47180973Y-70394526D01*
X47180973Y-70394527D01*
X47129865Y-70467516D01*
X47033733Y-70673672D01*
X46974858Y-70893397D01*
X46955033Y-71120000D01*
X43180000Y-71120000D01*
X43180000Y-70040973D01*
X47534526Y-70040973D01*
X48260000Y-70766446D01*
X48260001Y-70766446D01*
X48905473Y-70120973D01*
X52614526Y-70120973D01*
X53340000Y-70846446D01*
X53340001Y-70846446D01*
X54065472Y-70120974D01*
X54065471Y-70120972D01*
X53992484Y-70069866D01*
X53786326Y-69973733D01*
X53566602Y-69914858D01*
X53340000Y-69895033D01*
X53113397Y-69914858D01*
X52893672Y-69973733D01*
X52687516Y-70069865D01*
X52614527Y-70120973D01*
X52614526Y-70120973D01*
X48905473Y-70120973D01*
X48985472Y-70040974D01*
X48985471Y-70040972D01*
X48912484Y-69989866D01*
X48706326Y-69893733D01*
X48486602Y-69834858D01*
X48260000Y-69815033D01*
X48033397Y-69834858D01*
X47813672Y-69893733D01*
X47607516Y-69989865D01*
X47534527Y-70040973D01*
X47534526Y-70040973D01*
X43180000Y-70040973D01*
X43180000Y-69659026D01*
X60234526Y-69659026D01*
X60307515Y-69710133D01*
X60513673Y-69806266D01*
X60733397Y-69865141D01*
X60960000Y-69884966D01*
X61186602Y-69865141D01*
X61406326Y-69806266D01*
X61612480Y-69710134D01*
X61685471Y-69659026D01*
X65314526Y-69659026D01*
X65387515Y-69710133D01*
X65593673Y-69806266D01*
X65813397Y-69865141D01*
X66040000Y-69884966D01*
X66266602Y-69865141D01*
X66486326Y-69806266D01*
X66692480Y-69710134D01*
X66765472Y-69659025D01*
X66040001Y-68933553D01*
X66040000Y-68933553D01*
X65314526Y-69659025D01*
X65314526Y-69659026D01*
X61685471Y-69659026D01*
X61685472Y-69659025D01*
X60960001Y-68933553D01*
X60960000Y-68933553D01*
X60234526Y-69659025D01*
X60234526Y-69659026D01*
X43180000Y-69659026D01*
X43180000Y-68579999D01*
X59655033Y-68579999D01*
X59674858Y-68806602D01*
X59733733Y-69026326D01*
X59829866Y-69232484D01*
X59880972Y-69305471D01*
X59880974Y-69305472D01*
X60606446Y-68580001D01*
X61313553Y-68580001D01*
X62039025Y-69305472D01*
X62090134Y-69232480D01*
X62186266Y-69026326D01*
X62245141Y-68806602D01*
X62264966Y-68579999D01*
X64735033Y-68579999D01*
X64754858Y-68806602D01*
X64813733Y-69026326D01*
X64909866Y-69232484D01*
X64960972Y-69305471D01*
X64960974Y-69305472D01*
X65686446Y-68580001D01*
X66393553Y-68580001D01*
X67119025Y-69305472D01*
X67170134Y-69232480D01*
X67266266Y-69026326D01*
X67325141Y-68806602D01*
X67344966Y-68579999D01*
X69814531Y-68579999D01*
X69834364Y-68806689D01*
X69893261Y-69026497D01*
X69989432Y-69232735D01*
X70119953Y-69419140D01*
X70280859Y-69580046D01*
X70467264Y-69710567D01*
X70467265Y-69710567D01*
X70467266Y-69710568D01*
X70525865Y-69737893D01*
X70578040Y-69783650D01*
X70597460Y-69850274D01*
X70578041Y-69916899D01*
X70525866Y-69962656D01*
X70467522Y-69989863D01*
X70281180Y-70120341D01*
X70120341Y-70281180D01*
X69989865Y-70467519D01*
X69893733Y-70673673D01*
X69841128Y-70869999D01*
X69841128Y-70870000D01*
X72398872Y-70870000D01*
X72398871Y-70869999D01*
X72346266Y-70673673D01*
X72250134Y-70467519D01*
X72119658Y-70281180D01*
X71958819Y-70120341D01*
X71772482Y-69989866D01*
X71714133Y-69962657D01*
X71661958Y-69916899D01*
X71642539Y-69850274D01*
X71661959Y-69783649D01*
X71714134Y-69737893D01*
X71772734Y-69710568D01*
X71959139Y-69580047D01*
X72120047Y-69419139D01*
X72250568Y-69232734D01*
X72346739Y-69026496D01*
X72405635Y-68806692D01*
X72425468Y-68580000D01*
X72405635Y-68353308D01*
X72346739Y-68133504D01*
X72250568Y-67927266D01*
X72232996Y-67902171D01*
X72120046Y-67740859D01*
X71959140Y-67579953D01*
X71772733Y-67449431D01*
X71714725Y-67422382D01*
X71662549Y-67376625D01*
X71643129Y-67310000D01*
X71662549Y-67243375D01*
X71714725Y-67197618D01*
X71772734Y-67170568D01*
X71959139Y-67040047D01*
X72120047Y-66879139D01*
X72250568Y-66692734D01*
X72346739Y-66486496D01*
X72405635Y-66266692D01*
X72425468Y-66040000D01*
X85054531Y-66040000D01*
X85074364Y-66266689D01*
X85133261Y-66486497D01*
X85229432Y-66692735D01*
X85359953Y-66879140D01*
X85520859Y-67040046D01*
X85707264Y-67170567D01*
X85707265Y-67170567D01*
X85707266Y-67170568D01*
X85765865Y-67197893D01*
X85818040Y-67243650D01*
X85837460Y-67310274D01*
X85818041Y-67376899D01*
X85765866Y-67422656D01*
X85707522Y-67449863D01*
X85521180Y-67580341D01*
X85360341Y-67741180D01*
X85229865Y-67927519D01*
X85133733Y-68133673D01*
X85081128Y-68329999D01*
X85081128Y-68330000D01*
X87638872Y-68330000D01*
X87638871Y-68329999D01*
X87586266Y-68133673D01*
X87490134Y-67927519D01*
X87359658Y-67741180D01*
X87198819Y-67580341D01*
X87012482Y-67449866D01*
X86954133Y-67422657D01*
X86901958Y-67376899D01*
X86882539Y-67310274D01*
X86901959Y-67243649D01*
X86954134Y-67197893D01*
X87012734Y-67170568D01*
X87199139Y-67040047D01*
X87360047Y-66879139D01*
X87490568Y-66692734D01*
X87586739Y-66486496D01*
X87645635Y-66266692D01*
X87665468Y-66040000D01*
X87645635Y-65813308D01*
X87586739Y-65593504D01*
X87490568Y-65387266D01*
X87472996Y-65362171D01*
X87360046Y-65200859D01*
X87199140Y-65039953D01*
X87012733Y-64909431D01*
X86954725Y-64882382D01*
X86902549Y-64836625D01*
X86883129Y-64770000D01*
X86902549Y-64703375D01*
X86954725Y-64657618D01*
X87012734Y-64630568D01*
X87199139Y-64500047D01*
X87360047Y-64339139D01*
X87490568Y-64152734D01*
X87586739Y-63946496D01*
X87645635Y-63726692D01*
X87665468Y-63500000D01*
X87645635Y-63273308D01*
X87586739Y-63053504D01*
X87490568Y-62847266D01*
X87472996Y-62822171D01*
X87360046Y-62660859D01*
X87199140Y-62499953D01*
X87012733Y-62369431D01*
X86954725Y-62342382D01*
X86902549Y-62296625D01*
X86883129Y-62230000D01*
X86902549Y-62163375D01*
X86954725Y-62117618D01*
X87012734Y-62090568D01*
X87199139Y-61960047D01*
X87360047Y-61799139D01*
X87490568Y-61612734D01*
X87586739Y-61406496D01*
X87645635Y-61186692D01*
X87665468Y-60960000D01*
X87645635Y-60733308D01*
X87586739Y-60513504D01*
X87490568Y-60307266D01*
X87472996Y-60282171D01*
X87360046Y-60120859D01*
X87199140Y-59959953D01*
X87012733Y-59829431D01*
X86954725Y-59802382D01*
X86902549Y-59756625D01*
X86883129Y-59690000D01*
X86902549Y-59623375D01*
X86954725Y-59577618D01*
X87012734Y-59550568D01*
X87199139Y-59420047D01*
X87360047Y-59259139D01*
X87490568Y-59072734D01*
X87586739Y-58866496D01*
X87645635Y-58646692D01*
X87665468Y-58420000D01*
X87645635Y-58193308D01*
X87586739Y-57973504D01*
X87490568Y-57767266D01*
X87481279Y-57754000D01*
X87360046Y-57580859D01*
X87199140Y-57419953D01*
X87012733Y-57289431D01*
X86954725Y-57262382D01*
X86902549Y-57216625D01*
X86883129Y-57150000D01*
X86902549Y-57083375D01*
X86954725Y-57037618D01*
X87012734Y-57010568D01*
X87199139Y-56880047D01*
X87360047Y-56719139D01*
X87490568Y-56532734D01*
X87586739Y-56326496D01*
X87645635Y-56106692D01*
X87665468Y-55880000D01*
X87645635Y-55653308D01*
X87586739Y-55433504D01*
X87490568Y-55227266D01*
X87436926Y-55150657D01*
X87360046Y-55040859D01*
X87199140Y-54879953D01*
X87012733Y-54749431D01*
X86954725Y-54722382D01*
X86902549Y-54676625D01*
X86883129Y-54610000D01*
X86902549Y-54543375D01*
X86954725Y-54497618D01*
X87012734Y-54470568D01*
X87199139Y-54340047D01*
X87360047Y-54179139D01*
X87490568Y-53992734D01*
X87586739Y-53786496D01*
X87639390Y-53590000D01*
X90109364Y-53590000D01*
X90166569Y-53803492D01*
X90266399Y-54017576D01*
X90401893Y-54211081D01*
X90568918Y-54378106D01*
X90762423Y-54513600D01*
X90976507Y-54613430D01*
X91189999Y-54670635D01*
X91190000Y-54670636D01*
X91190000Y-53590000D01*
X91690000Y-53590000D01*
X91690000Y-54670635D01*
X91903492Y-54613430D01*
X92117576Y-54513600D01*
X92311081Y-54378106D01*
X92478106Y-54211081D01*
X92613600Y-54017576D01*
X92713430Y-53803492D01*
X92770636Y-53590000D01*
X91690000Y-53590000D01*
X91190000Y-53590000D01*
X90109364Y-53590000D01*
X87639390Y-53590000D01*
X87645635Y-53566692D01*
X87665468Y-53340000D01*
X87645635Y-53113308D01*
X87586739Y-52893504D01*
X87490568Y-52687266D01*
X87360047Y-52500861D01*
X87360046Y-52500859D01*
X87199140Y-52339953D01*
X87012733Y-52209431D01*
X86954725Y-52182382D01*
X86902549Y-52136625D01*
X86883129Y-52070000D01*
X86902549Y-52003375D01*
X86954725Y-51957618D01*
X87012734Y-51930568D01*
X87199139Y-51800047D01*
X87301317Y-51697869D01*
X90089500Y-51697869D01*
X90095909Y-51757483D01*
X90146204Y-51892331D01*
X90232454Y-52007546D01*
X90347669Y-52093796D01*
X90479598Y-52143002D01*
X90529978Y-52177981D01*
X90557431Y-52232825D01*
X90555242Y-52294118D01*
X90523947Y-52346865D01*
X90401888Y-52468924D01*
X90266400Y-52662421D01*
X90166569Y-52876507D01*
X90109364Y-53089999D01*
X90109364Y-53090000D01*
X92770636Y-53090000D01*
X92770635Y-53089999D01*
X92713430Y-52876507D01*
X92613599Y-52662421D01*
X92478109Y-52468921D01*
X92356053Y-52346865D01*
X92324757Y-52294119D01*
X92322568Y-52232826D01*
X92350021Y-52177981D01*
X92400398Y-52143003D01*
X92532331Y-52093796D01*
X92647546Y-52007546D01*
X92733796Y-51892331D01*
X92784091Y-51757483D01*
X92790500Y-51697873D01*
X92790499Y-49902128D01*
X92784091Y-49842517D01*
X92733796Y-49707669D01*
X92647546Y-49592454D01*
X92532331Y-49506204D01*
X92397483Y-49455909D01*
X92337873Y-49449500D01*
X92337869Y-49449500D01*
X90542130Y-49449500D01*
X90482515Y-49455909D01*
X90347669Y-49506204D01*
X90232454Y-49592454D01*
X90146204Y-49707668D01*
X90095909Y-49842516D01*
X90089500Y-49902130D01*
X90089500Y-51697869D01*
X87301317Y-51697869D01*
X87360047Y-51639139D01*
X87490568Y-51452734D01*
X87586739Y-51246496D01*
X87645635Y-51026692D01*
X87665468Y-50800000D01*
X87645635Y-50573308D01*
X87586739Y-50353504D01*
X87490568Y-50147266D01*
X87360047Y-49960861D01*
X87360046Y-49960859D01*
X87199140Y-49799953D01*
X87012732Y-49669430D01*
X86954724Y-49642380D01*
X86902549Y-49596623D01*
X86883130Y-49529997D01*
X86902550Y-49463373D01*
X86954721Y-49417619D01*
X87012734Y-49390568D01*
X87199139Y-49260047D01*
X87360047Y-49099139D01*
X87490568Y-48912734D01*
X87586739Y-48706496D01*
X87645635Y-48486692D01*
X87665468Y-48260000D01*
X87665468Y-48259999D01*
X100294531Y-48259999D01*
X100314364Y-48486689D01*
X100373261Y-48706497D01*
X100469432Y-48912735D01*
X100599953Y-49099140D01*
X100760859Y-49260046D01*
X100947264Y-49390567D01*
X100947265Y-49390567D01*
X100947266Y-49390568D01*
X101153504Y-49486739D01*
X101373308Y-49545635D01*
X101600000Y-49565468D01*
X101826692Y-49545635D01*
X102046496Y-49486739D01*
X102252734Y-49390568D01*
X102439139Y-49260047D01*
X102600047Y-49099139D01*
X102730568Y-48912734D01*
X102826739Y-48706496D01*
X102879390Y-48510000D01*
X125721128Y-48510000D01*
X125773733Y-48706326D01*
X125869865Y-48912480D01*
X126000341Y-49098819D01*
X126161180Y-49259658D01*
X126347519Y-49390134D01*
X126553673Y-49486266D01*
X126749999Y-49538871D01*
X126750000Y-49538872D01*
X126750000Y-48510000D01*
X127250000Y-48510000D01*
X127250000Y-49538871D01*
X127446326Y-49486266D01*
X127652480Y-49390134D01*
X127838819Y-49259658D01*
X127999658Y-49098819D01*
X128130134Y-48912480D01*
X128226266Y-48706326D01*
X128278872Y-48510000D01*
X127250000Y-48510000D01*
X126750000Y-48510000D01*
X125721128Y-48510000D01*
X102879390Y-48510000D01*
X102885635Y-48486692D01*
X102905468Y-48260000D01*
X102885635Y-48033308D01*
X102879390Y-48010000D01*
X125721128Y-48010000D01*
X126750000Y-48010000D01*
X126750000Y-46981128D01*
X127250000Y-46981128D01*
X127250000Y-48010000D01*
X128278872Y-48010000D01*
X128278871Y-48009999D01*
X128226266Y-47813673D01*
X128130134Y-47607519D01*
X127999658Y-47421180D01*
X127838819Y-47260341D01*
X127652480Y-47129865D01*
X127446326Y-47033733D01*
X127250000Y-46981128D01*
X126750000Y-46981128D01*
X126749999Y-46981128D01*
X126553673Y-47033733D01*
X126347519Y-47129865D01*
X126161180Y-47260341D01*
X126000341Y-47421180D01*
X125869865Y-47607519D01*
X125773733Y-47813673D01*
X125721128Y-48009999D01*
X125721128Y-48010000D01*
X102879390Y-48010000D01*
X102826739Y-47813504D01*
X102730568Y-47607266D01*
X102600270Y-47421180D01*
X102600046Y-47420859D01*
X102439140Y-47259953D01*
X102252735Y-47129432D01*
X102046497Y-47033261D01*
X101826689Y-46974364D01*
X101600000Y-46954531D01*
X101373310Y-46974364D01*
X101153502Y-47033261D01*
X100947264Y-47129432D01*
X100760859Y-47259953D01*
X100599953Y-47420859D01*
X100469432Y-47607264D01*
X100373261Y-47813502D01*
X100314364Y-48033310D01*
X100294531Y-48259999D01*
X87665468Y-48259999D01*
X87645635Y-48033308D01*
X87586739Y-47813504D01*
X87490568Y-47607266D01*
X87360270Y-47421180D01*
X87360046Y-47420859D01*
X87199140Y-47259953D01*
X87012733Y-47129431D01*
X86954725Y-47102382D01*
X86902549Y-47056625D01*
X86883129Y-46990000D01*
X86902549Y-46923375D01*
X86954725Y-46877618D01*
X87012734Y-46850568D01*
X87199139Y-46720047D01*
X87360047Y-46559139D01*
X87490568Y-46372734D01*
X87586739Y-46166496D01*
X87645635Y-45946692D01*
X87665468Y-45720000D01*
X87645635Y-45493308D01*
X87586739Y-45273504D01*
X87490568Y-45067266D01*
X87360047Y-44880861D01*
X87360046Y-44880859D01*
X87199140Y-44719953D01*
X87012735Y-44589432D01*
X86806497Y-44493261D01*
X86586689Y-44434364D01*
X86360000Y-44414531D01*
X86133310Y-44434364D01*
X85913502Y-44493261D01*
X85707264Y-44589432D01*
X85520859Y-44719953D01*
X85359953Y-44880859D01*
X85229432Y-45067264D01*
X85133261Y-45273502D01*
X85074364Y-45493310D01*
X85054531Y-45719999D01*
X85074364Y-45946689D01*
X85133261Y-46166497D01*
X85229432Y-46372735D01*
X85359953Y-46559140D01*
X85520859Y-46720046D01*
X85581248Y-46762330D01*
X85707266Y-46850568D01*
X85765273Y-46877617D01*
X85817449Y-46923373D01*
X85836869Y-46989997D01*
X85817451Y-47056622D01*
X85765276Y-47102380D01*
X85707266Y-47129431D01*
X85520859Y-47259953D01*
X85359953Y-47420859D01*
X85229432Y-47607264D01*
X85133261Y-47813502D01*
X85074364Y-48033310D01*
X85054531Y-48259999D01*
X85074364Y-48486689D01*
X85133261Y-48706497D01*
X85229432Y-48912735D01*
X85359953Y-49099140D01*
X85520859Y-49260046D01*
X85706646Y-49390134D01*
X85707266Y-49390568D01*
X85765273Y-49417617D01*
X85817449Y-49463373D01*
X85836869Y-49529997D01*
X85817451Y-49596622D01*
X85765276Y-49642380D01*
X85707266Y-49669431D01*
X85520859Y-49799953D01*
X85359953Y-49960859D01*
X85229432Y-50147264D01*
X85133261Y-50353502D01*
X85074364Y-50573310D01*
X85054531Y-50799999D01*
X85074364Y-51026689D01*
X85133261Y-51246497D01*
X85229432Y-51452735D01*
X85359953Y-51639140D01*
X85520859Y-51800046D01*
X85652656Y-51892330D01*
X85707266Y-51930568D01*
X85765275Y-51957618D01*
X85817450Y-52003375D01*
X85836869Y-52070000D01*
X85817450Y-52136625D01*
X85765275Y-52182382D01*
X85707263Y-52209433D01*
X85520859Y-52339953D01*
X85359953Y-52500859D01*
X85229432Y-52687264D01*
X85133261Y-52893502D01*
X85074364Y-53113310D01*
X85054531Y-53339999D01*
X85074364Y-53566689D01*
X85133261Y-53786497D01*
X85229432Y-53992735D01*
X85359953Y-54179140D01*
X85520859Y-54340046D01*
X85575215Y-54378106D01*
X85707266Y-54470568D01*
X85765273Y-54497617D01*
X85817449Y-54543373D01*
X85836869Y-54609997D01*
X85817451Y-54676622D01*
X85765276Y-54722380D01*
X85707266Y-54749431D01*
X85520859Y-54879953D01*
X85359953Y-55040859D01*
X85229432Y-55227264D01*
X85133261Y-55433502D01*
X85074364Y-55653310D01*
X85054531Y-55879999D01*
X85074364Y-56106689D01*
X85133261Y-56326497D01*
X85229432Y-56532735D01*
X85359953Y-56719140D01*
X85520859Y-56880046D01*
X85651665Y-56971636D01*
X85707266Y-57010568D01*
X85765273Y-57037617D01*
X85817449Y-57083373D01*
X85836869Y-57149997D01*
X85817451Y-57216622D01*
X85765276Y-57262380D01*
X85707266Y-57289431D01*
X85520859Y-57419953D01*
X85359953Y-57580859D01*
X85229432Y-57767264D01*
X85133261Y-57973502D01*
X85074364Y-58193310D01*
X85054531Y-58419999D01*
X85074364Y-58646689D01*
X85133261Y-58866497D01*
X85229432Y-59072735D01*
X85359953Y-59259140D01*
X85520859Y-59420046D01*
X85707263Y-59550566D01*
X85707266Y-59550568D01*
X85765275Y-59577618D01*
X85817450Y-59623375D01*
X85836869Y-59690000D01*
X85817450Y-59756625D01*
X85765275Y-59802382D01*
X85707263Y-59829433D01*
X85520859Y-59959953D01*
X85359953Y-60120859D01*
X85229432Y-60307264D01*
X85133261Y-60513502D01*
X85074364Y-60733310D01*
X85054531Y-60959999D01*
X85074364Y-61186689D01*
X85133261Y-61406497D01*
X85229432Y-61612735D01*
X85359953Y-61799140D01*
X85520859Y-61960046D01*
X85652312Y-62052089D01*
X85707266Y-62090568D01*
X85765275Y-62117618D01*
X85817450Y-62163375D01*
X85836869Y-62230000D01*
X85817450Y-62296625D01*
X85765275Y-62342382D01*
X85707263Y-62369433D01*
X85520859Y-62499953D01*
X85359953Y-62660859D01*
X85229432Y-62847264D01*
X85133261Y-63053502D01*
X85074364Y-63273310D01*
X85054531Y-63499999D01*
X85074364Y-63726689D01*
X85133261Y-63946497D01*
X85229432Y-64152735D01*
X85359953Y-64339140D01*
X85520859Y-64500046D01*
X85635112Y-64580046D01*
X85707266Y-64630568D01*
X85765275Y-64657618D01*
X85817450Y-64703375D01*
X85836869Y-64770000D01*
X85817450Y-64836625D01*
X85765275Y-64882382D01*
X85707263Y-64909433D01*
X85520859Y-65039953D01*
X85359953Y-65200859D01*
X85229432Y-65387264D01*
X85133261Y-65593502D01*
X85074364Y-65813310D01*
X85054531Y-66040000D01*
X72425468Y-66040000D01*
X72405635Y-65813308D01*
X72346739Y-65593504D01*
X72250568Y-65387266D01*
X72232996Y-65362171D01*
X72120046Y-65200859D01*
X71959140Y-65039953D01*
X71772733Y-64909431D01*
X71714725Y-64882382D01*
X71662549Y-64836625D01*
X71643129Y-64770000D01*
X71662549Y-64703375D01*
X71714725Y-64657618D01*
X71772734Y-64630568D01*
X71959139Y-64500047D01*
X72120047Y-64339139D01*
X72250568Y-64152734D01*
X72346739Y-63946496D01*
X72405635Y-63726692D01*
X72425468Y-63500000D01*
X72405635Y-63273308D01*
X72346739Y-63053504D01*
X72250568Y-62847266D01*
X72232996Y-62822171D01*
X72120046Y-62660859D01*
X71959140Y-62499953D01*
X71772733Y-62369431D01*
X71714725Y-62342382D01*
X71662549Y-62296625D01*
X71643129Y-62230000D01*
X71662549Y-62163375D01*
X71714725Y-62117618D01*
X71772734Y-62090568D01*
X71959139Y-61960047D01*
X72120047Y-61799139D01*
X72250568Y-61612734D01*
X72346739Y-61406496D01*
X72405635Y-61186692D01*
X72425468Y-60960000D01*
X72405635Y-60733308D01*
X72346739Y-60513504D01*
X72250568Y-60307266D01*
X72232996Y-60282171D01*
X72120046Y-60120859D01*
X71959140Y-59959953D01*
X71772733Y-59829431D01*
X71714725Y-59802382D01*
X71662549Y-59756625D01*
X71643129Y-59690000D01*
X71662549Y-59623375D01*
X71714725Y-59577618D01*
X71772734Y-59550568D01*
X71959139Y-59420047D01*
X72120047Y-59259139D01*
X72250568Y-59072734D01*
X72346739Y-58866496D01*
X72405635Y-58646692D01*
X72425468Y-58420000D01*
X72405635Y-58193308D01*
X72346739Y-57973504D01*
X72250568Y-57767266D01*
X72241279Y-57754000D01*
X72120046Y-57580859D01*
X71959140Y-57419953D01*
X71772733Y-57289431D01*
X71714725Y-57262382D01*
X71662549Y-57216625D01*
X71643129Y-57150000D01*
X71662549Y-57083375D01*
X71714725Y-57037618D01*
X71772734Y-57010568D01*
X71959139Y-56880047D01*
X72120047Y-56719139D01*
X72250568Y-56532734D01*
X72346739Y-56326496D01*
X72405635Y-56106692D01*
X72425468Y-55880000D01*
X72405635Y-55653308D01*
X72346739Y-55433504D01*
X72250568Y-55227266D01*
X72196926Y-55150657D01*
X72120046Y-55040859D01*
X71959140Y-54879953D01*
X71772733Y-54749431D01*
X71714725Y-54722382D01*
X71662549Y-54676625D01*
X71643129Y-54610000D01*
X71662549Y-54543375D01*
X71714725Y-54497618D01*
X71772734Y-54470568D01*
X71959139Y-54340047D01*
X72120047Y-54179139D01*
X72250568Y-53992734D01*
X72346739Y-53786496D01*
X72405635Y-53566692D01*
X72425468Y-53340000D01*
X72405635Y-53113308D01*
X72346739Y-52893504D01*
X72250568Y-52687266D01*
X72120047Y-52500861D01*
X72120046Y-52500859D01*
X71959140Y-52339953D01*
X71772733Y-52209431D01*
X71714725Y-52182382D01*
X71662549Y-52136625D01*
X71643129Y-52070000D01*
X71662549Y-52003375D01*
X71714725Y-51957618D01*
X71772734Y-51930568D01*
X71959139Y-51800047D01*
X72120047Y-51639139D01*
X72250568Y-51452734D01*
X72346739Y-51246496D01*
X72405635Y-51026692D01*
X72425468Y-50800000D01*
X72405635Y-50573308D01*
X72346739Y-50353504D01*
X72250568Y-50147266D01*
X72120047Y-49960861D01*
X72120046Y-49960859D01*
X71959140Y-49799953D01*
X71772732Y-49669430D01*
X71714724Y-49642380D01*
X71662549Y-49596623D01*
X71643130Y-49529997D01*
X71662550Y-49463373D01*
X71714721Y-49417619D01*
X71772734Y-49390568D01*
X71959139Y-49260047D01*
X72120047Y-49099139D01*
X72250568Y-48912734D01*
X72346739Y-48706496D01*
X72405635Y-48486692D01*
X72425468Y-48260000D01*
X72405635Y-48033308D01*
X72346739Y-47813504D01*
X72250568Y-47607266D01*
X72120270Y-47421180D01*
X72120046Y-47420859D01*
X71959140Y-47259953D01*
X71934537Y-47242726D01*
X71895399Y-47197884D01*
X71881666Y-47139970D01*
X71896500Y-47082328D01*
X71936485Y-47038239D01*
X71992406Y-47017861D01*
X72027483Y-47014091D01*
X72162331Y-46963796D01*
X72277546Y-46877546D01*
X72363796Y-46762331D01*
X72414091Y-46627483D01*
X72420500Y-46567873D01*
X72420499Y-44872128D01*
X72414091Y-44812517D01*
X72363796Y-44677669D01*
X72277546Y-44562454D01*
X72162331Y-44476204D01*
X72027483Y-44425909D01*
X71967873Y-44419500D01*
X71967869Y-44419500D01*
X70272130Y-44419500D01*
X70212515Y-44425909D01*
X70077669Y-44476204D01*
X69962454Y-44562454D01*
X69876204Y-44677668D01*
X69825909Y-44812516D01*
X69819500Y-44872130D01*
X69819500Y-46567869D01*
X69825909Y-46627483D01*
X69876204Y-46762331D01*
X69962454Y-46877546D01*
X70077669Y-46963796D01*
X70212517Y-47014091D01*
X70247594Y-47017862D01*
X70303513Y-47038239D01*
X70343497Y-47082327D01*
X70358332Y-47139968D01*
X70344600Y-47197881D01*
X70305464Y-47242724D01*
X70280860Y-47259952D01*
X70119953Y-47420859D01*
X69989432Y-47607264D01*
X69893261Y-47813502D01*
X69834364Y-48033310D01*
X69814531Y-48259999D01*
X69834364Y-48486689D01*
X69893261Y-48706497D01*
X69989432Y-48912735D01*
X70119953Y-49099140D01*
X70280859Y-49260046D01*
X70466646Y-49390134D01*
X70467266Y-49390568D01*
X70525273Y-49417617D01*
X70577449Y-49463373D01*
X70596869Y-49529997D01*
X70577451Y-49596622D01*
X70525276Y-49642380D01*
X70467266Y-49669431D01*
X70280859Y-49799953D01*
X70119953Y-49960859D01*
X69989432Y-50147264D01*
X69893261Y-50353502D01*
X69834364Y-50573310D01*
X69814531Y-50799999D01*
X69834364Y-51026689D01*
X69893261Y-51246497D01*
X69989432Y-51452735D01*
X70119953Y-51639140D01*
X70280859Y-51800046D01*
X70412656Y-51892330D01*
X70467266Y-51930568D01*
X70525275Y-51957618D01*
X70577450Y-52003375D01*
X70596869Y-52070000D01*
X70577450Y-52136625D01*
X70525275Y-52182382D01*
X70467263Y-52209433D01*
X70280859Y-52339953D01*
X70119953Y-52500859D01*
X69989432Y-52687264D01*
X69893261Y-52893502D01*
X69834364Y-53113310D01*
X69814531Y-53339999D01*
X69834364Y-53566689D01*
X69893261Y-53786497D01*
X69989432Y-53992735D01*
X70119953Y-54179140D01*
X70280859Y-54340046D01*
X70335215Y-54378106D01*
X70467266Y-54470568D01*
X70525273Y-54497617D01*
X70577449Y-54543373D01*
X70596869Y-54609997D01*
X70577451Y-54676622D01*
X70525276Y-54722380D01*
X70467266Y-54749431D01*
X70280859Y-54879953D01*
X70119953Y-55040859D01*
X69989432Y-55227264D01*
X69893261Y-55433502D01*
X69834364Y-55653310D01*
X69814531Y-55879999D01*
X69834364Y-56106689D01*
X69893261Y-56326497D01*
X69989432Y-56532735D01*
X70119953Y-56719140D01*
X70280859Y-56880046D01*
X70411665Y-56971636D01*
X70467266Y-57010568D01*
X70525273Y-57037617D01*
X70577449Y-57083373D01*
X70596869Y-57149997D01*
X70577451Y-57216622D01*
X70525276Y-57262380D01*
X70467266Y-57289431D01*
X70280859Y-57419953D01*
X70119953Y-57580859D01*
X69989432Y-57767264D01*
X69893261Y-57973502D01*
X69834364Y-58193310D01*
X69814531Y-58419999D01*
X69834364Y-58646689D01*
X69893261Y-58866497D01*
X69989432Y-59072735D01*
X70119953Y-59259140D01*
X70280859Y-59420046D01*
X70467263Y-59550566D01*
X70467266Y-59550568D01*
X70525275Y-59577618D01*
X70577450Y-59623375D01*
X70596869Y-59690000D01*
X70577450Y-59756625D01*
X70525275Y-59802382D01*
X70467263Y-59829433D01*
X70280859Y-59959953D01*
X70119953Y-60120859D01*
X69989432Y-60307264D01*
X69893261Y-60513502D01*
X69834364Y-60733310D01*
X69814531Y-60959999D01*
X69834364Y-61186689D01*
X69893261Y-61406497D01*
X69989432Y-61612735D01*
X70119953Y-61799140D01*
X70280859Y-61960046D01*
X70412312Y-62052089D01*
X70467266Y-62090568D01*
X70525275Y-62117618D01*
X70577450Y-62163375D01*
X70596869Y-62230000D01*
X70577450Y-62296625D01*
X70525275Y-62342382D01*
X70467263Y-62369433D01*
X70280859Y-62499953D01*
X70119953Y-62660859D01*
X69989432Y-62847264D01*
X69893261Y-63053502D01*
X69834364Y-63273310D01*
X69814531Y-63499999D01*
X69834364Y-63726689D01*
X69893261Y-63946497D01*
X69989432Y-64152735D01*
X70119953Y-64339140D01*
X70280859Y-64500046D01*
X70395112Y-64580046D01*
X70467266Y-64630568D01*
X70525275Y-64657618D01*
X70577450Y-64703375D01*
X70596869Y-64770000D01*
X70577450Y-64836625D01*
X70525275Y-64882382D01*
X70467263Y-64909433D01*
X70280859Y-65039953D01*
X70119953Y-65200859D01*
X69989432Y-65387264D01*
X69893261Y-65593502D01*
X69834364Y-65813310D01*
X69814531Y-66040000D01*
X69834364Y-66266689D01*
X69893261Y-66486497D01*
X69989432Y-66692735D01*
X70119953Y-66879140D01*
X70280859Y-67040046D01*
X70466646Y-67170134D01*
X70467266Y-67170568D01*
X70525275Y-67197618D01*
X70577450Y-67243375D01*
X70596869Y-67310000D01*
X70577450Y-67376625D01*
X70525275Y-67422382D01*
X70467263Y-67449433D01*
X70280859Y-67579953D01*
X70119953Y-67740859D01*
X69989432Y-67927264D01*
X69893261Y-68133502D01*
X69834364Y-68353310D01*
X69814531Y-68579999D01*
X67344966Y-68579999D01*
X67325141Y-68353397D01*
X67266266Y-68133673D01*
X67170133Y-67927515D01*
X67119025Y-67854526D01*
X66393553Y-68580000D01*
X66393553Y-68580001D01*
X65686446Y-68580001D01*
X65686446Y-68580000D01*
X64960973Y-67854526D01*
X64960973Y-67854527D01*
X64909865Y-67927516D01*
X64813733Y-68133672D01*
X64754858Y-68353397D01*
X64735033Y-68579999D01*
X62264966Y-68579999D01*
X62245141Y-68353397D01*
X62186266Y-68133673D01*
X62090133Y-67927515D01*
X62039025Y-67854526D01*
X61313553Y-68580000D01*
X61313553Y-68580001D01*
X60606446Y-68580001D01*
X60606446Y-68580000D01*
X59880973Y-67854526D01*
X59880973Y-67854527D01*
X59829865Y-67927516D01*
X59733733Y-68133672D01*
X59674858Y-68353397D01*
X59655033Y-68579999D01*
X43180000Y-68579999D01*
X43180000Y-67500973D01*
X60234526Y-67500973D01*
X60960000Y-68226446D01*
X60960001Y-68226446D01*
X61685472Y-67500974D01*
X61685471Y-67500973D01*
X65314526Y-67500973D01*
X66040000Y-68226446D01*
X66040001Y-68226446D01*
X66765472Y-67500974D01*
X66765471Y-67500972D01*
X66692484Y-67449866D01*
X66486326Y-67353733D01*
X66266602Y-67294858D01*
X66039999Y-67275033D01*
X65813397Y-67294858D01*
X65593672Y-67353733D01*
X65387516Y-67449865D01*
X65314527Y-67500973D01*
X65314526Y-67500973D01*
X61685471Y-67500973D01*
X61685471Y-67500972D01*
X61612484Y-67449866D01*
X61406326Y-67353733D01*
X61186602Y-67294858D01*
X60959999Y-67275033D01*
X60733397Y-67294858D01*
X60513672Y-67353733D01*
X60307516Y-67449865D01*
X60234527Y-67500973D01*
X60234526Y-67500973D01*
X43180000Y-67500973D01*
X43180000Y-66290000D01*
X52061128Y-66290000D01*
X52113733Y-66486326D01*
X52209865Y-66692480D01*
X52340341Y-66878819D01*
X52501180Y-67039658D01*
X52687519Y-67170134D01*
X52893673Y-67266266D01*
X53089999Y-67318871D01*
X53090000Y-67318872D01*
X53090000Y-66290000D01*
X53590000Y-66290000D01*
X53590000Y-67318871D01*
X53786326Y-67266266D01*
X53992480Y-67170134D01*
X54178819Y-67039658D01*
X54339658Y-66878819D01*
X54470134Y-66692480D01*
X54566266Y-66486326D01*
X54618872Y-66290000D01*
X53590000Y-66290000D01*
X53090000Y-66290000D01*
X52061128Y-66290000D01*
X43180000Y-66290000D01*
X43180000Y-65790000D01*
X52061128Y-65790000D01*
X53090000Y-65790000D01*
X53090000Y-64761128D01*
X53590000Y-64761128D01*
X53590000Y-65790000D01*
X54618872Y-65790000D01*
X54618871Y-65789999D01*
X54566266Y-65593673D01*
X54470134Y-65387519D01*
X54339658Y-65201180D01*
X54178819Y-65040341D01*
X53992480Y-64909865D01*
X53786326Y-64813733D01*
X53590000Y-64761128D01*
X53090000Y-64761128D01*
X53089999Y-64761128D01*
X52893673Y-64813733D01*
X52687519Y-64909865D01*
X52501180Y-65040341D01*
X52340341Y-65201180D01*
X52209865Y-65387519D01*
X52113733Y-65593673D01*
X52061128Y-65789999D01*
X52061128Y-65790000D01*
X43180000Y-65790000D01*
X43180000Y-63579999D01*
X59654531Y-63579999D01*
X59674364Y-63806689D01*
X59733261Y-64026497D01*
X59829432Y-64232735D01*
X59959953Y-64419140D01*
X60120859Y-64580046D01*
X60307264Y-64710567D01*
X60307265Y-64710567D01*
X60307266Y-64710568D01*
X60513504Y-64806739D01*
X60733308Y-64865635D01*
X60960000Y-64885468D01*
X61186692Y-64865635D01*
X61406496Y-64806739D01*
X61612734Y-64710568D01*
X61799139Y-64580047D01*
X61960047Y-64419139D01*
X62090568Y-64232734D01*
X62186739Y-64026496D01*
X62245635Y-63806692D01*
X62265468Y-63580000D01*
X62265468Y-63579999D01*
X64734531Y-63579999D01*
X64754364Y-63806689D01*
X64813261Y-64026497D01*
X64909432Y-64232735D01*
X65039953Y-64419140D01*
X65200859Y-64580046D01*
X65387264Y-64710567D01*
X65387265Y-64710567D01*
X65387266Y-64710568D01*
X65593504Y-64806739D01*
X65813308Y-64865635D01*
X66040000Y-64885468D01*
X66266692Y-64865635D01*
X66486496Y-64806739D01*
X66692734Y-64710568D01*
X66879139Y-64580047D01*
X67040047Y-64419139D01*
X67170568Y-64232734D01*
X67266739Y-64026496D01*
X67325635Y-63806692D01*
X67345468Y-63580000D01*
X67325635Y-63353308D01*
X67266739Y-63133504D01*
X67170568Y-62927266D01*
X67096980Y-62822171D01*
X67040046Y-62740859D01*
X66879140Y-62579953D01*
X66692735Y-62449432D01*
X66486497Y-62353261D01*
X66266689Y-62294364D01*
X66040000Y-62274531D01*
X65813310Y-62294364D01*
X65593502Y-62353261D01*
X65387264Y-62449432D01*
X65200859Y-62579953D01*
X65039953Y-62740859D01*
X64909432Y-62927264D01*
X64813261Y-63133502D01*
X64754364Y-63353310D01*
X64734531Y-63579999D01*
X62265468Y-63579999D01*
X62245635Y-63353308D01*
X62186739Y-63133504D01*
X62090568Y-62927266D01*
X62016980Y-62822171D01*
X61960046Y-62740859D01*
X61799140Y-62579953D01*
X61612735Y-62449432D01*
X61406497Y-62353261D01*
X61186689Y-62294364D01*
X60960000Y-62274531D01*
X60733310Y-62294364D01*
X60513502Y-62353261D01*
X60307264Y-62449432D01*
X60120859Y-62579953D01*
X59959953Y-62740859D01*
X59829432Y-62927264D01*
X59733261Y-63133502D01*
X59674364Y-63353310D01*
X59654531Y-63579999D01*
X43180000Y-63579999D01*
X43180000Y-58130000D01*
X62889495Y-58130000D01*
X62939651Y-58306278D01*
X63036712Y-58501205D01*
X63167944Y-58674985D01*
X63328868Y-58821685D01*
X63514012Y-58936322D01*
X63717069Y-59014986D01*
X63790000Y-59028620D01*
X63790000Y-58130000D01*
X62889495Y-58130000D01*
X43180000Y-58130000D01*
X43180000Y-55879999D01*
X62859464Y-55879999D01*
X62879564Y-56096925D01*
X62939181Y-56306457D01*
X63036287Y-56501471D01*
X63167573Y-56675323D01*
X63291944Y-56788701D01*
X63327672Y-56846404D01*
X63327672Y-56914272D01*
X63291944Y-56971975D01*
X63167944Y-57085014D01*
X63036712Y-57258794D01*
X62939651Y-57453721D01*
X62889494Y-57629999D01*
X62889495Y-57630000D01*
X64166000Y-57630000D01*
X64228000Y-57646613D01*
X64273387Y-57692000D01*
X64290000Y-57754000D01*
X64290000Y-59028620D01*
X64362930Y-59014986D01*
X64565987Y-58936322D01*
X64751131Y-58821685D01*
X64912052Y-58674987D01*
X64940730Y-58637011D01*
X64984413Y-58600737D01*
X65039685Y-58587736D01*
X65094957Y-58600735D01*
X65138640Y-58637009D01*
X65167573Y-58675323D01*
X65315493Y-58810169D01*
X65328568Y-58822088D01*
X65421178Y-58879429D01*
X65513791Y-58936773D01*
X65697991Y-59008132D01*
X65716931Y-59015470D01*
X65931074Y-59055500D01*
X66148924Y-59055500D01*
X66148926Y-59055500D01*
X66363069Y-59015470D01*
X66498496Y-58963004D01*
X66566208Y-58936773D01*
X66566210Y-58936772D01*
X66751432Y-58822088D01*
X66912427Y-58675322D01*
X67043712Y-58501472D01*
X67140817Y-58306459D01*
X67140818Y-58306457D01*
X67200435Y-58096925D01*
X67203577Y-58063008D01*
X67220536Y-57880000D01*
X67200435Y-57663077D01*
X67200435Y-57663074D01*
X67140818Y-57453542D01*
X67043712Y-57258528D01*
X66912426Y-57084676D01*
X66788427Y-56971637D01*
X66752699Y-56913934D01*
X66752699Y-56846066D01*
X66788427Y-56788363D01*
X66912426Y-56675323D01*
X66941045Y-56637425D01*
X67043712Y-56501472D01*
X67140817Y-56306459D01*
X67140818Y-56306457D01*
X67200435Y-56096925D01*
X67203577Y-56063008D01*
X67220536Y-55880000D01*
X67200435Y-55663077D01*
X67200435Y-55663074D01*
X67140818Y-55453542D01*
X67043712Y-55258528D01*
X66962252Y-55150657D01*
X66938125Y-55090996D01*
X66947150Y-55027277D01*
X66986894Y-54976664D01*
X67072546Y-54912546D01*
X67158796Y-54797331D01*
X67209091Y-54662483D01*
X67215500Y-54602873D01*
X67215499Y-53157128D01*
X67209091Y-53097517D01*
X67158796Y-52962669D01*
X67072546Y-52847454D01*
X66957331Y-52761204D01*
X66822483Y-52710909D01*
X66762873Y-52704500D01*
X66762869Y-52704500D01*
X65317130Y-52704500D01*
X65257515Y-52710909D01*
X65122669Y-52761204D01*
X65007451Y-52847455D01*
X64945214Y-52930594D01*
X64891064Y-52971784D01*
X64823332Y-52978203D01*
X64762410Y-52947920D01*
X64751432Y-52937912D01*
X64751429Y-52937910D01*
X64751428Y-52937909D01*
X64566208Y-52823226D01*
X64363073Y-52744531D01*
X64363070Y-52744530D01*
X64363069Y-52744530D01*
X64148926Y-52704500D01*
X63931074Y-52704500D01*
X63716931Y-52744530D01*
X63716926Y-52744531D01*
X63513791Y-52823226D01*
X63328567Y-52937912D01*
X63167573Y-53084676D01*
X63036287Y-53258528D01*
X62939181Y-53453542D01*
X62879564Y-53663074D01*
X62859464Y-53879999D01*
X62879564Y-54096925D01*
X62939181Y-54306457D01*
X63036287Y-54501471D01*
X63167573Y-54675323D01*
X63291572Y-54788363D01*
X63327300Y-54846066D01*
X63327300Y-54913934D01*
X63291572Y-54971637D01*
X63167573Y-55084676D01*
X63036287Y-55258528D01*
X62939181Y-55453542D01*
X62879564Y-55663074D01*
X62859464Y-55879999D01*
X43180000Y-55879999D01*
X43180000Y-43179999D01*
X100294531Y-43179999D01*
X100314364Y-43406689D01*
X100373261Y-43626497D01*
X100469432Y-43832735D01*
X100599953Y-44019140D01*
X100760859Y-44180046D01*
X100947264Y-44310567D01*
X100947265Y-44310567D01*
X100947266Y-44310568D01*
X101153504Y-44406739D01*
X101373308Y-44465635D01*
X101600000Y-44485468D01*
X101826692Y-44465635D01*
X102046496Y-44406739D01*
X102252734Y-44310568D01*
X102439139Y-44180047D01*
X102600047Y-44019139D01*
X102730568Y-43832734D01*
X102826739Y-43626496D01*
X102839458Y-43579026D01*
X146324526Y-43579026D01*
X146397515Y-43630133D01*
X146603673Y-43726266D01*
X146823397Y-43785141D01*
X147050000Y-43804966D01*
X147276602Y-43785141D01*
X147496326Y-43726266D01*
X147702480Y-43630134D01*
X147775472Y-43579025D01*
X147050001Y-42853553D01*
X147050000Y-42853553D01*
X146324526Y-43579025D01*
X146324526Y-43579026D01*
X102839458Y-43579026D01*
X102885635Y-43406692D01*
X102905468Y-43180000D01*
X102885635Y-42953308D01*
X102826739Y-42733504D01*
X102730568Y-42527266D01*
X102711476Y-42500000D01*
X145745033Y-42500000D01*
X145764858Y-42726602D01*
X145823733Y-42946326D01*
X145919866Y-43152484D01*
X145970972Y-43225471D01*
X145970974Y-43225472D01*
X146696446Y-42500001D01*
X147403553Y-42500001D01*
X148129025Y-43225472D01*
X148180134Y-43152480D01*
X148276266Y-42946326D01*
X148335141Y-42726602D01*
X148354966Y-42500000D01*
X150744531Y-42500000D01*
X150764364Y-42726689D01*
X150823261Y-42946497D01*
X150919432Y-43152735D01*
X151049953Y-43339140D01*
X151210859Y-43500046D01*
X151397264Y-43630567D01*
X151397265Y-43630567D01*
X151397266Y-43630568D01*
X151603504Y-43726739D01*
X151823308Y-43785635D01*
X152050000Y-43805468D01*
X152276692Y-43785635D01*
X152496496Y-43726739D01*
X152702734Y-43630568D01*
X152889139Y-43500047D01*
X153050047Y-43339139D01*
X153180568Y-43152734D01*
X153276739Y-42946496D01*
X153335635Y-42726692D01*
X153355468Y-42500000D01*
X153335635Y-42273308D01*
X153276739Y-42053504D01*
X153180568Y-41847266D01*
X153177842Y-41843373D01*
X153050046Y-41660859D01*
X152889140Y-41499953D01*
X152702735Y-41369432D01*
X152496497Y-41273261D01*
X152276689Y-41214364D01*
X152049999Y-41194531D01*
X151823310Y-41214364D01*
X151603502Y-41273261D01*
X151397264Y-41369432D01*
X151210859Y-41499953D01*
X151049953Y-41660859D01*
X150919432Y-41847264D01*
X150823261Y-42053502D01*
X150764364Y-42273310D01*
X150744531Y-42500000D01*
X148354966Y-42500000D01*
X148335141Y-42273397D01*
X148276266Y-42053673D01*
X148180133Y-41847515D01*
X148129025Y-41774526D01*
X147403553Y-42500000D01*
X147403553Y-42500001D01*
X146696446Y-42500001D01*
X146696446Y-42500000D01*
X145970973Y-41774526D01*
X145970973Y-41774527D01*
X145919865Y-41847516D01*
X145823733Y-42053672D01*
X145764858Y-42273397D01*
X145745033Y-42500000D01*
X102711476Y-42500000D01*
X102600046Y-42340859D01*
X102439140Y-42179953D01*
X102252732Y-42049430D01*
X102194724Y-42022380D01*
X102142549Y-41976623D01*
X102123130Y-41909997D01*
X102142550Y-41843373D01*
X102194721Y-41797619D01*
X102252734Y-41770568D01*
X102439139Y-41640047D01*
X102600047Y-41479139D01*
X102640775Y-41420973D01*
X146324526Y-41420973D01*
X147050000Y-42146446D01*
X147050001Y-42146446D01*
X147775472Y-41420974D01*
X147775471Y-41420972D01*
X147702484Y-41369866D01*
X147496326Y-41273733D01*
X147276602Y-41214858D01*
X147050000Y-41195033D01*
X146823397Y-41214858D01*
X146603672Y-41273733D01*
X146397516Y-41369865D01*
X146324527Y-41420973D01*
X146324526Y-41420973D01*
X102640775Y-41420973D01*
X102730568Y-41292734D01*
X102826739Y-41086496D01*
X102885635Y-40866692D01*
X102905468Y-40640000D01*
X102885635Y-40413308D01*
X102826739Y-40193504D01*
X102730568Y-39987266D01*
X102719284Y-39971151D01*
X102600046Y-39800859D01*
X102439140Y-39639953D01*
X102252735Y-39509432D01*
X102046497Y-39413261D01*
X101826689Y-39354364D01*
X101599999Y-39334531D01*
X101373310Y-39354364D01*
X101153502Y-39413261D01*
X100947264Y-39509432D01*
X100760859Y-39639953D01*
X100599953Y-39800859D01*
X100469432Y-39987264D01*
X100373261Y-40193502D01*
X100314364Y-40413310D01*
X100294531Y-40639999D01*
X100314364Y-40866689D01*
X100373261Y-41086497D01*
X100469432Y-41292735D01*
X100599953Y-41479140D01*
X100760859Y-41640046D01*
X100809227Y-41673913D01*
X100947266Y-41770568D01*
X101005273Y-41797617D01*
X101057449Y-41843373D01*
X101076869Y-41909997D01*
X101057451Y-41976622D01*
X101005276Y-42022380D01*
X100947266Y-42049431D01*
X100760859Y-42179953D01*
X100599953Y-42340859D01*
X100469432Y-42527264D01*
X100373261Y-42733502D01*
X100314364Y-42953310D01*
X100294531Y-43179999D01*
X43180000Y-43179999D01*
X43180000Y-40640000D01*
X52034531Y-40640000D01*
X52054364Y-40866689D01*
X52113261Y-41086497D01*
X52209432Y-41292735D01*
X52339953Y-41479140D01*
X52500859Y-41640046D01*
X52687264Y-41770567D01*
X52687265Y-41770567D01*
X52687266Y-41770568D01*
X52893504Y-41866739D01*
X53113308Y-41925635D01*
X53340000Y-41945468D01*
X53566692Y-41925635D01*
X53786496Y-41866739D01*
X53992734Y-41770568D01*
X54179139Y-41640047D01*
X54340047Y-41479139D01*
X54470568Y-41292734D01*
X54566739Y-41086496D01*
X54625635Y-40866692D01*
X54645468Y-40640000D01*
X59554699Y-40640000D01*
X59573865Y-40871299D01*
X59573865Y-40871301D01*
X59573866Y-40871305D01*
X59628361Y-41086497D01*
X59630844Y-41096303D01*
X59708466Y-41273261D01*
X59724076Y-41308849D01*
X59851021Y-41503153D01*
X60008216Y-41673913D01*
X60191374Y-41816470D01*
X60395497Y-41926936D01*
X60449479Y-41945468D01*
X60615015Y-42002297D01*
X60615017Y-42002297D01*
X60615019Y-42002298D01*
X60843951Y-42040500D01*
X61076048Y-42040500D01*
X61076049Y-42040500D01*
X61304981Y-42002298D01*
X61524503Y-41926936D01*
X61728626Y-41816470D01*
X61911784Y-41673913D01*
X61920132Y-41664843D01*
X61972754Y-41630989D01*
X62035209Y-41627140D01*
X62091592Y-41654277D01*
X62127544Y-41705491D01*
X62156204Y-41782331D01*
X62242454Y-41897546D01*
X62357669Y-41983796D01*
X62492517Y-42034091D01*
X62552127Y-42040500D01*
X64447872Y-42040499D01*
X64507483Y-42034091D01*
X64642331Y-41983796D01*
X64757546Y-41897546D01*
X64843796Y-41782331D01*
X64894091Y-41647483D01*
X64900500Y-41587873D01*
X64900499Y-39692128D01*
X64894091Y-39632517D01*
X64843796Y-39497669D01*
X64757546Y-39382454D01*
X64642331Y-39296204D01*
X64507483Y-39245909D01*
X64447873Y-39239500D01*
X64447869Y-39239500D01*
X62552130Y-39239500D01*
X62492515Y-39245909D01*
X62357669Y-39296204D01*
X62242454Y-39382454D01*
X62156204Y-39497669D01*
X62127545Y-39574508D01*
X62091593Y-39625721D01*
X62035211Y-39652859D01*
X61972757Y-39649011D01*
X61920133Y-39615157D01*
X61911784Y-39606087D01*
X61728627Y-39463531D01*
X61728626Y-39463530D01*
X61524503Y-39353064D01*
X61524499Y-39353062D01*
X61524498Y-39353062D01*
X61304984Y-39277702D01*
X61114456Y-39245909D01*
X61076049Y-39239500D01*
X60843951Y-39239500D01*
X60805544Y-39245909D01*
X60615015Y-39277702D01*
X60395501Y-39353062D01*
X60191372Y-39463531D01*
X60008215Y-39606087D01*
X59851020Y-39776848D01*
X59724076Y-39971150D01*
X59630844Y-40183696D01*
X59573865Y-40408700D01*
X59554699Y-40640000D01*
X54645468Y-40640000D01*
X54625635Y-40413308D01*
X54566739Y-40193504D01*
X54470568Y-39987266D01*
X54459284Y-39971151D01*
X54340046Y-39800859D01*
X54179140Y-39639953D01*
X53992735Y-39509432D01*
X53786497Y-39413261D01*
X53566689Y-39354364D01*
X53340000Y-39334531D01*
X53113310Y-39354364D01*
X52893502Y-39413261D01*
X52687264Y-39509432D01*
X52500859Y-39639953D01*
X52339953Y-39800859D01*
X52209432Y-39987264D01*
X52113261Y-40193502D01*
X52054364Y-40413310D01*
X52034531Y-40640000D01*
X43180000Y-40640000D01*
X43180000Y-38663210D01*
X115729942Y-38663210D01*
X115776766Y-38699655D01*
X115995393Y-38817968D01*
X116230506Y-38898683D01*
X116475707Y-38939600D01*
X116724293Y-38939600D01*
X116969493Y-38898683D01*
X117204606Y-38817968D01*
X117423233Y-38699653D01*
X117470055Y-38663210D01*
X130969942Y-38663210D01*
X131016766Y-38699655D01*
X131235393Y-38817968D01*
X131470506Y-38898683D01*
X131715707Y-38939600D01*
X131964293Y-38939600D01*
X132209493Y-38898683D01*
X132444606Y-38817968D01*
X132663233Y-38699653D01*
X132710056Y-38663209D01*
X131840000Y-37793153D01*
X130969942Y-38663209D01*
X130969942Y-38663210D01*
X117470055Y-38663210D01*
X117470056Y-38663209D01*
X116600000Y-37793153D01*
X115729942Y-38663209D01*
X115729942Y-38663210D01*
X43180000Y-38663210D01*
X43180000Y-37439599D01*
X115094858Y-37439599D01*
X115115386Y-37687332D01*
X115176413Y-37928321D01*
X115276268Y-38155970D01*
X115376563Y-38309482D01*
X115376564Y-38309482D01*
X116246447Y-37439601D01*
X116953553Y-37439601D01*
X117823434Y-38309482D01*
X117923730Y-38155969D01*
X118023586Y-37928321D01*
X118084613Y-37687332D01*
X118105141Y-37439599D01*
X130334858Y-37439599D01*
X130355386Y-37687332D01*
X130416413Y-37928321D01*
X130516268Y-38155970D01*
X130616563Y-38309482D01*
X130616564Y-38309482D01*
X131486447Y-37439601D01*
X132193553Y-37439601D01*
X133063434Y-38309482D01*
X133163730Y-38155969D01*
X133263586Y-37928321D01*
X133324613Y-37687332D01*
X133345141Y-37439600D01*
X133324613Y-37191867D01*
X133263586Y-36950878D01*
X133163730Y-36723230D01*
X133063434Y-36569716D01*
X132193553Y-37439600D01*
X132193553Y-37439601D01*
X131486447Y-37439601D01*
X131486447Y-37439599D01*
X130616564Y-36569716D01*
X130516266Y-36723234D01*
X130416413Y-36950878D01*
X130355386Y-37191867D01*
X130334858Y-37439599D01*
X118105141Y-37439599D01*
X118084613Y-37191867D01*
X118023586Y-36950878D01*
X117923730Y-36723230D01*
X117823434Y-36569716D01*
X116953553Y-37439600D01*
X116953553Y-37439601D01*
X116246447Y-37439601D01*
X116246447Y-37439600D01*
X115376564Y-36569716D01*
X115276266Y-36723234D01*
X115176413Y-36950878D01*
X115115386Y-37191867D01*
X115094858Y-37439599D01*
X43180000Y-37439599D01*
X43180000Y-36230008D01*
X84989500Y-36230008D01*
X85000000Y-36332796D01*
X85055186Y-36499334D01*
X85147288Y-36648657D01*
X85271342Y-36772711D01*
X85271344Y-36772712D01*
X85420666Y-36864814D01*
X85504609Y-36892630D01*
X85587202Y-36919999D01*
X85597703Y-36921071D01*
X85689991Y-36930500D01*
X87030008Y-36930499D01*
X87132797Y-36919999D01*
X87299334Y-36864814D01*
X87448656Y-36772712D01*
X87572712Y-36648656D01*
X87664814Y-36499334D01*
X87664814Y-36499333D01*
X87672422Y-36486999D01*
X87675189Y-36488705D01*
X87696187Y-36456627D01*
X87752915Y-36427683D01*
X87816529Y-36430714D01*
X87870246Y-36464919D01*
X87968604Y-36571765D01*
X88147839Y-36711269D01*
X88347590Y-36819369D01*
X88562409Y-36893116D01*
X88786437Y-36930500D01*
X89013562Y-36930500D01*
X89013563Y-36930500D01*
X89237591Y-36893116D01*
X89452410Y-36819369D01*
X89652161Y-36711269D01*
X89678237Y-36690973D01*
X90662578Y-36690973D01*
X90688113Y-36710848D01*
X90887792Y-36818909D01*
X91102529Y-36892630D01*
X91326479Y-36930000D01*
X91553521Y-36930000D01*
X91777470Y-36892630D01*
X91992207Y-36818909D01*
X92191888Y-36710848D01*
X92217420Y-36690974D01*
X92217420Y-36690973D01*
X91440000Y-35913553D01*
X90662578Y-36690972D01*
X90662578Y-36690973D01*
X89678237Y-36690973D01*
X89831396Y-36571765D01*
X89985224Y-36404663D01*
X90066490Y-36280275D01*
X90111280Y-36239043D01*
X90170298Y-36224098D01*
X90229315Y-36239043D01*
X90274106Y-36280276D01*
X90310486Y-36335959D01*
X90310487Y-36335959D01*
X91086447Y-35560001D01*
X91793553Y-35560001D01*
X92569511Y-36335959D01*
X92649006Y-36214284D01*
X92740209Y-36006364D01*
X92795946Y-35786262D01*
X92814695Y-35559999D01*
X92795946Y-35333737D01*
X92749317Y-35149600D01*
X100010000Y-35149600D01*
X100010000Y-35797424D01*
X100016402Y-35856975D01*
X100066647Y-35991689D01*
X100152811Y-36106788D01*
X100267910Y-36192952D01*
X100402624Y-36243197D01*
X100462176Y-36249600D01*
X101110000Y-36249600D01*
X101110000Y-35149600D01*
X101610000Y-35149600D01*
X101610000Y-36249600D01*
X102257824Y-36249600D01*
X102317375Y-36243197D01*
X102390321Y-36215990D01*
X115729942Y-36215990D01*
X116600000Y-37086047D01*
X116600001Y-37086047D01*
X117470057Y-36215990D01*
X130969942Y-36215990D01*
X131840000Y-37086047D01*
X131840001Y-37086047D01*
X132710057Y-36215990D01*
X132710056Y-36215988D01*
X132663235Y-36179547D01*
X132444606Y-36061231D01*
X132209493Y-35980516D01*
X131964293Y-35939600D01*
X131715707Y-35939600D01*
X131470506Y-35980516D01*
X131235393Y-36061231D01*
X131016764Y-36179546D01*
X130969942Y-36215988D01*
X130969942Y-36215990D01*
X117470057Y-36215990D01*
X117470056Y-36215988D01*
X117423235Y-36179547D01*
X117204606Y-36061231D01*
X116969493Y-35980516D01*
X116724293Y-35939600D01*
X116475707Y-35939600D01*
X116230506Y-35980516D01*
X115995393Y-36061231D01*
X115776764Y-36179546D01*
X115729942Y-36215988D01*
X115729942Y-36215990D01*
X102390321Y-36215990D01*
X102452089Y-36192952D01*
X102567188Y-36106788D01*
X102653352Y-35991689D01*
X102703597Y-35856975D01*
X102710000Y-35797424D01*
X102710000Y-35149600D01*
X101610000Y-35149600D01*
X101110000Y-35149600D01*
X100010000Y-35149600D01*
X92749317Y-35149600D01*
X92740209Y-35113635D01*
X92649006Y-34905715D01*
X92569511Y-34784039D01*
X91793553Y-35560000D01*
X91793553Y-35560001D01*
X91086447Y-35560001D01*
X91086447Y-35559999D01*
X90310486Y-34784039D01*
X90274106Y-34839723D01*
X90229315Y-34880956D01*
X90170298Y-34895901D01*
X90111280Y-34880956D01*
X90066489Y-34839723D01*
X90032176Y-34787203D01*
X89985224Y-34715337D01*
X89831396Y-34548235D01*
X89678235Y-34429025D01*
X90662577Y-34429025D01*
X91440000Y-35206447D01*
X91440001Y-35206447D01*
X92217420Y-34429025D01*
X92191886Y-34409151D01*
X91992207Y-34301090D01*
X91777470Y-34227369D01*
X91553521Y-34190000D01*
X91326479Y-34190000D01*
X91102529Y-34227369D01*
X90887792Y-34301090D01*
X90688115Y-34409149D01*
X90662577Y-34429025D01*
X89678235Y-34429025D01*
X89652161Y-34408731D01*
X89452410Y-34300631D01*
X89452409Y-34300630D01*
X89452406Y-34300629D01*
X89237593Y-34226884D01*
X89076485Y-34200000D01*
X89013563Y-34189500D01*
X88786437Y-34189500D01*
X88730430Y-34198845D01*
X88562406Y-34226884D01*
X88347593Y-34300629D01*
X88147837Y-34408732D01*
X87968603Y-34548235D01*
X87870248Y-34655078D01*
X87816531Y-34689285D01*
X87752920Y-34692318D01*
X87696193Y-34663377D01*
X87675188Y-34631294D01*
X87672422Y-34633001D01*
X87572711Y-34471342D01*
X87448657Y-34347288D01*
X87299334Y-34255186D01*
X87132797Y-34200000D01*
X87030009Y-34189500D01*
X85689991Y-34189500D01*
X85587203Y-34200000D01*
X85420665Y-34255186D01*
X85271342Y-34347288D01*
X85147288Y-34471342D01*
X85055186Y-34620665D01*
X85000000Y-34787202D01*
X84989500Y-34889990D01*
X84989500Y-36230008D01*
X43180000Y-36230008D01*
X43180000Y-32359600D01*
X100004340Y-32359600D01*
X100024936Y-32595007D01*
X100069709Y-32762101D01*
X100086097Y-32823263D01*
X100185965Y-33037430D01*
X100321505Y-33231001D01*
X100321508Y-33231004D01*
X100443818Y-33353314D01*
X100475114Y-33406060D01*
X100477303Y-33467353D01*
X100449850Y-33522197D01*
X100399472Y-33557176D01*
X100267913Y-33606246D01*
X100152811Y-33692411D01*
X100066647Y-33807510D01*
X100016402Y-33942224D01*
X100010000Y-34001776D01*
X100010000Y-34649600D01*
X102710000Y-34649600D01*
X102710000Y-34001776D01*
X102703597Y-33942224D01*
X102653352Y-33807510D01*
X102567188Y-33692411D01*
X102452088Y-33606247D01*
X102320528Y-33557177D01*
X102270149Y-33522197D01*
X102252766Y-33487469D01*
X115099500Y-33487469D01*
X115105909Y-33547084D01*
X115127975Y-33606246D01*
X115156204Y-33681931D01*
X115242454Y-33797146D01*
X115357669Y-33883396D01*
X115492517Y-33933691D01*
X115552127Y-33940100D01*
X117647872Y-33940099D01*
X117707483Y-33933691D01*
X117842331Y-33883396D01*
X117957546Y-33797146D01*
X118043796Y-33681931D01*
X118094091Y-33547083D01*
X118100500Y-33487473D01*
X118100500Y-33487469D01*
X130339500Y-33487469D01*
X130345909Y-33547084D01*
X130367975Y-33606246D01*
X130396204Y-33681931D01*
X130482454Y-33797146D01*
X130597669Y-33883396D01*
X130732517Y-33933691D01*
X130792127Y-33940100D01*
X132887872Y-33940099D01*
X132947483Y-33933691D01*
X133082331Y-33883396D01*
X133197546Y-33797146D01*
X133283796Y-33681931D01*
X133334091Y-33547083D01*
X133340500Y-33487473D01*
X133340499Y-31391728D01*
X133334091Y-31332117D01*
X133283796Y-31197269D01*
X133197546Y-31082054D01*
X133082331Y-30995804D01*
X132947483Y-30945509D01*
X132887873Y-30939100D01*
X132887869Y-30939100D01*
X130792130Y-30939100D01*
X130732515Y-30945509D01*
X130597669Y-30995804D01*
X130482454Y-31082054D01*
X130396204Y-31197268D01*
X130345909Y-31332116D01*
X130339500Y-31391730D01*
X130339500Y-33487469D01*
X118100500Y-33487469D01*
X118100499Y-31391728D01*
X118094091Y-31332117D01*
X118043796Y-31197269D01*
X117957546Y-31082054D01*
X117842331Y-30995804D01*
X117707483Y-30945509D01*
X117647873Y-30939100D01*
X117647869Y-30939100D01*
X115552130Y-30939100D01*
X115492515Y-30945509D01*
X115357669Y-30995804D01*
X115242454Y-31082054D01*
X115156204Y-31197268D01*
X115105909Y-31332116D01*
X115099500Y-31391730D01*
X115099500Y-33487469D01*
X102252766Y-33487469D01*
X102242696Y-33467352D01*
X102244885Y-33406060D01*
X102276178Y-33353317D01*
X102398495Y-33231001D01*
X102534035Y-33037430D01*
X102633903Y-32823263D01*
X102695063Y-32595008D01*
X102715659Y-32359600D01*
X102695063Y-32124192D01*
X102633903Y-31895937D01*
X102534035Y-31681771D01*
X102398495Y-31488199D01*
X102231401Y-31321105D01*
X102037830Y-31185565D01*
X101823663Y-31085697D01*
X101762502Y-31069309D01*
X101595407Y-31024536D01*
X101360000Y-31003940D01*
X101124592Y-31024536D01*
X100896336Y-31085697D01*
X100682170Y-31185565D01*
X100488598Y-31321105D01*
X100321505Y-31488198D01*
X100185965Y-31681770D01*
X100086097Y-31895936D01*
X100024936Y-32124192D01*
X100004340Y-32359600D01*
X43180000Y-32359600D01*
X43180000Y-25787469D01*
X120227000Y-25787469D01*
X120233409Y-25847084D01*
X120251756Y-25896275D01*
X120283704Y-25981931D01*
X120369954Y-26097146D01*
X120485169Y-26183396D01*
X120620017Y-26233691D01*
X120679627Y-26240100D01*
X122680372Y-26240099D01*
X122739983Y-26233691D01*
X122874831Y-26183396D01*
X122990046Y-26097146D01*
X123076296Y-25981931D01*
X123087909Y-25950794D01*
X123120021Y-25902979D01*
X123170274Y-25874829D01*
X123227824Y-25872421D01*
X123280252Y-25896275D01*
X123422836Y-26007252D01*
X123634539Y-26121819D01*
X123862207Y-26199980D01*
X123969999Y-26217966D01*
X123970000Y-26217967D01*
X123970000Y-26217966D01*
X124470000Y-26217966D01*
X124577792Y-26199980D01*
X124805460Y-26121819D01*
X125017164Y-26007251D01*
X125207122Y-25859401D01*
X125370155Y-25682300D01*
X125385892Y-25658214D01*
X125430683Y-25616981D01*
X125489700Y-25602035D01*
X125548718Y-25616980D01*
X125593509Y-25658213D01*
X125593510Y-25658214D01*
X125609449Y-25682610D01*
X125772537Y-25859771D01*
X125962561Y-26007672D01*
X126174336Y-26122279D01*
X126402087Y-26200466D01*
X126639601Y-26240100D01*
X126880399Y-26240100D01*
X127117913Y-26200466D01*
X127345664Y-26122279D01*
X127557439Y-26007672D01*
X127747463Y-25859771D01*
X127910551Y-25682610D01*
X128042255Y-25481022D01*
X128138983Y-25260505D01*
X128198095Y-25027076D01*
X128213000Y-24847200D01*
X128213000Y-24632000D01*
X128198095Y-24452124D01*
X128138983Y-24218695D01*
X128042255Y-23998178D01*
X127910551Y-23796590D01*
X127747463Y-23619429D01*
X127557439Y-23471528D01*
X127345664Y-23356921D01*
X127345660Y-23356919D01*
X127345659Y-23356919D01*
X127117915Y-23278734D01*
X126880399Y-23239100D01*
X126639601Y-23239100D01*
X126402084Y-23278734D01*
X126174340Y-23356919D01*
X126174336Y-23356920D01*
X126174336Y-23356921D01*
X126033152Y-23433325D01*
X125962559Y-23471529D01*
X125772536Y-23619429D01*
X125609446Y-23796592D01*
X125593508Y-23820988D01*
X125548717Y-23862220D01*
X125489699Y-23877164D01*
X125430682Y-23862218D01*
X125385892Y-23820985D01*
X125370153Y-23796894D01*
X125207126Y-23619801D01*
X125017164Y-23471948D01*
X124805460Y-23357380D01*
X124577792Y-23279219D01*
X124470000Y-23261233D01*
X124470000Y-26217966D01*
X123970000Y-26217966D01*
X123970000Y-23261234D01*
X123969999Y-23261233D01*
X123862207Y-23279219D01*
X123634539Y-23357380D01*
X123422835Y-23471948D01*
X123280252Y-23582924D01*
X123227823Y-23606778D01*
X123170274Y-23604370D01*
X123120021Y-23576221D01*
X123087909Y-23528405D01*
X123076296Y-23497269D01*
X122990046Y-23382054D01*
X122874831Y-23295804D01*
X122739983Y-23245509D01*
X122680373Y-23239100D01*
X122680369Y-23239100D01*
X120679630Y-23239100D01*
X120620015Y-23245509D01*
X120485169Y-23295804D01*
X120369954Y-23382054D01*
X120283704Y-23497268D01*
X120233409Y-23632116D01*
X120227000Y-23691730D01*
X120227000Y-25787469D01*
X43180000Y-25787469D01*
X43180000Y-17904000D01*
X43196613Y-17842000D01*
X43242000Y-17796613D01*
X43304000Y-17780000D01*
X157356000Y-17780000D01*
X157418000Y-17796613D01*
G37*
%TD.AperFunction*%
%TD*%
M02*
