M48
; DRILL file {KiCad 7.0.1} date Fri Apr 14 12:41:02 2023
; FORMAT={-:-/ absolute / inch / decimal}
; #@! TF.CreationDate,2023-04-14T12:41:02+03:00
; #@! TF.GenerationSoftware,Kicad,Pcbnew,7.0.1
; #@! TF.FileFunction,Plated,1,2,PTH
FMAT,2
INCH
; #@! TA.AperFunction,Plated,PTH,ComponentDrill
T1C0.0315
; #@! TA.AperFunction,Plated,PTH,ComponentDrill
T2C0.0354
; #@! TA.AperFunction,Plated,PTH,ComponentDrill
T3C0.0394
; #@! TA.AperFunction,Plated,PTH,ComponentDrill
T4C0.0429
; #@! TA.AperFunction,Plated,PTH,ComponentDrill
T5C0.0433
%
G90
G05
T1
X1.9Y-2.8
X1.9Y-2.9969
X2.1Y-1.6
X2.1Y-2.6
X2.1Y-2.8031
X2.1Y-3.0
X2.4Y-2.5031
X2.4Y-2.7
X2.4Y-2.9
X2.4Y-3.0929
X2.5213Y-2.1213
X2.5213Y-2.2
X2.5213Y-2.2787
X2.6Y-2.1213
X2.6Y-2.2
X2.6Y-2.2787
X2.6Y-2.5031
X2.6Y-2.7
X2.8Y-1.8
X2.8Y-1.9
X2.8Y-2.0
X2.8Y-2.1
X2.8Y-2.2
X2.8Y-2.3
X2.8Y-2.4
X2.8Y-2.5
X2.8Y-2.6
X2.8Y-2.7
X2.8Y-2.8
X2.8Y-2.9
X2.8Y-3.0
X2.8Y-3.1
X2.8Y-3.2
X2.8Y-3.3
X2.8Y-3.4
X2.8Y-3.5
X2.8Y-3.6
X2.8Y-3.7
X3.4Y-1.8
X3.4Y-1.9
X3.4Y-2.0
X3.4Y-2.1
X3.4Y-2.2
X3.4Y-2.3
X3.4Y-2.4
X3.4Y-2.5
X3.4Y-2.6
X3.4Y-2.7
X3.4Y-2.8
X3.4Y-2.9
X3.4Y-3.0
X3.4Y-3.1
X3.4Y-3.2
X3.4Y-3.3
X3.4Y-3.4
X3.4Y-3.5
X3.4Y-3.6
X3.4Y-3.7
X4.0Y-1.6
X4.0Y-1.7
X4.0Y-1.9
X5.0Y-1.9
X5.7894Y-1.6732
X5.9862Y-1.6732
T2
X2.4Y-1.6
X2.5Y-1.6
T3
X3.6Y-2.0
X3.6Y-2.1
X3.9906Y-1.274
X3.9906Y-1.374
X4.2Y-2.4
X4.2Y-2.5
X4.2Y-2.6
X4.2Y-2.7
X4.2Y-2.8
X4.2Y-2.9
X4.2Y-3.0
X4.2Y-3.1
X4.2Y-3.2
X4.2Y-3.3
X4.2Y-3.4
X4.2Y-3.5
X4.2Y-3.6
X4.2Y-3.7
X4.2Y-3.8
X4.2Y-3.9
X4.2Y-4.0
X4.2Y-4.1
X4.2Y-4.2
X4.5906Y-1.2771
X4.5906Y-1.474
X5.1906Y-1.2771
X5.1906Y-1.474
X5.2Y-2.4
X5.2Y-2.5
X5.2Y-2.6
X5.2Y-2.7
X5.2Y-2.8
X5.2Y-2.9
X5.2Y-3.0
X5.2Y-3.1
X5.2Y-3.2
X5.2Y-3.3
X5.2Y-3.4
X5.2Y-3.5
X5.2Y-3.6
X5.2Y-3.7
X5.2Y-3.8
X5.2Y-3.9
X5.2Y-4.0
X5.2Y-4.1
X5.2Y-4.2
T4
X3.4Y-1.4
X3.5Y-1.4
X3.6Y-1.4
T5
X4.7906Y-0.974
X4.8906Y-0.974
X4.9906Y-0.974
T0
M30
