%TF.GenerationSoftware,KiCad,Pcbnew,7.0.1*%
%TF.CreationDate,2023-04-14T12:40:57+03:00*%
%TF.ProjectId,Piirilevy,50696972-696c-4657-9679-2e6b69636164,rev?*%
%TF.SameCoordinates,Original*%
%TF.FileFunction,Copper,L1,Top*%
%TF.FilePolarity,Positive*%
%FSLAX46Y46*%
G04 Gerber Fmt 4.6, Leading zero omitted, Abs format (unit mm)*
G04 Created by KiCad (PCBNEW 7.0.1) date 2023-04-14 12:40:57*
%MOMM*%
%LPD*%
G01*
G04 APERTURE LIST*
G04 Aperture macros list*
%AMRoundRect*
0 Rectangle with rounded corners*
0 $1 Rounding radius*
0 $2 $3 $4 $5 $6 $7 $8 $9 X,Y pos of 4 corners*
0 Add a 4 corners polygon primitive as box body*
4,1,4,$2,$3,$4,$5,$6,$7,$8,$9,$2,$3,0*
0 Add four circle primitives for the rounded corners*
1,1,$1+$1,$2,$3*
1,1,$1+$1,$4,$5*
1,1,$1+$1,$6,$7*
1,1,$1+$1,$8,$9*
0 Add four rect primitives between the rounded corners*
20,1,$1+$1,$2,$3,$4,$5,0*
20,1,$1+$1,$4,$5,$6,$7,0*
20,1,$1+$1,$6,$7,$8,$9,0*
20,1,$1+$1,$8,$9,$2,$3,0*%
G04 Aperture macros list end*
%ADD10C,0.300000*%
%TA.AperFunction,NonConductor*%
%ADD11C,0.300000*%
%TD*%
%TA.AperFunction,EtchedComponent*%
%ADD12C,0.100000*%
%TD*%
%TA.AperFunction,SMDPad,CuDef*%
%ADD13R,0.838200X1.600200*%
%TD*%
%TA.AperFunction,ComponentPad*%
%ADD14C,1.600000*%
%TD*%
%TA.AperFunction,ComponentPad*%
%ADD15R,1.800000X1.800000*%
%TD*%
%TA.AperFunction,ComponentPad*%
%ADD16C,1.800000*%
%TD*%
%TA.AperFunction,ComponentPad*%
%ADD17R,1.350000X1.350000*%
%TD*%
%TA.AperFunction,ComponentPad*%
%ADD18O,1.350000X1.350000*%
%TD*%
%TA.AperFunction,ComponentPad*%
%ADD19R,1.700000X1.700000*%
%TD*%
%TA.AperFunction,ComponentPad*%
%ADD20O,1.700000X1.700000*%
%TD*%
%TA.AperFunction,ComponentPad*%
%ADD21O,1.600000X1.600000*%
%TD*%
%TA.AperFunction,ComponentPad*%
%ADD22R,1.905000X2.000000*%
%TD*%
%TA.AperFunction,ComponentPad*%
%ADD23O,1.905000X2.000000*%
%TD*%
%TA.AperFunction,ComponentPad*%
%ADD24R,2.000000X2.000000*%
%TD*%
%TA.AperFunction,ComponentPad*%
%ADD25C,2.000000*%
%TD*%
%TA.AperFunction,ComponentPad*%
%ADD26C,1.500000*%
%TD*%
%TA.AperFunction,ComponentPad*%
%ADD27RoundRect,0.250000X-0.620000X-0.620000X0.620000X-0.620000X0.620000X0.620000X-0.620000X0.620000X0*%
%TD*%
%TA.AperFunction,ComponentPad*%
%ADD28C,1.740000*%
%TD*%
%TA.AperFunction,ComponentPad*%
%ADD29R,1.600000X1.600000*%
%TD*%
%TA.AperFunction,Conductor*%
%ADD30C,0.250000*%
%TD*%
%TA.AperFunction,Conductor*%
%ADD31C,1.000000*%
%TD*%
G04 APERTURE END LIST*
D10*
D11*
X72485714Y-101887857D02*
X73200000Y-101887857D01*
X72342857Y-102316428D02*
X72842857Y-100816428D01*
X72842857Y-100816428D02*
X73342857Y-102316428D01*
X73628571Y-100816428D02*
X74485714Y-100816428D01*
X74057142Y-102316428D02*
X74057142Y-100816428D01*
X74985713Y-102316428D02*
X74985713Y-101316428D01*
X74985713Y-101459285D02*
X75057142Y-101387857D01*
X75057142Y-101387857D02*
X75199999Y-101316428D01*
X75199999Y-101316428D02*
X75414285Y-101316428D01*
X75414285Y-101316428D02*
X75557142Y-101387857D01*
X75557142Y-101387857D02*
X75628571Y-101530714D01*
X75628571Y-101530714D02*
X75628571Y-102316428D01*
X75628571Y-101530714D02*
X75699999Y-101387857D01*
X75699999Y-101387857D02*
X75842856Y-101316428D01*
X75842856Y-101316428D02*
X76057142Y-101316428D01*
X76057142Y-101316428D02*
X76199999Y-101387857D01*
X76199999Y-101387857D02*
X76271428Y-101530714D01*
X76271428Y-101530714D02*
X76271428Y-102316428D01*
X77557142Y-102245000D02*
X77414285Y-102316428D01*
X77414285Y-102316428D02*
X77128571Y-102316428D01*
X77128571Y-102316428D02*
X76985713Y-102245000D01*
X76985713Y-102245000D02*
X76914285Y-102102142D01*
X76914285Y-102102142D02*
X76914285Y-101530714D01*
X76914285Y-101530714D02*
X76985713Y-101387857D01*
X76985713Y-101387857D02*
X77128571Y-101316428D01*
X77128571Y-101316428D02*
X77414285Y-101316428D01*
X77414285Y-101316428D02*
X77557142Y-101387857D01*
X77557142Y-101387857D02*
X77628571Y-101530714D01*
X77628571Y-101530714D02*
X77628571Y-101673571D01*
X77628571Y-101673571D02*
X76914285Y-101816428D01*
X78914285Y-101316428D02*
X78914285Y-102530714D01*
X78914285Y-102530714D02*
X78842856Y-102673571D01*
X78842856Y-102673571D02*
X78771427Y-102745000D01*
X78771427Y-102745000D02*
X78628570Y-102816428D01*
X78628570Y-102816428D02*
X78414285Y-102816428D01*
X78414285Y-102816428D02*
X78271427Y-102745000D01*
X78914285Y-102245000D02*
X78771427Y-102316428D01*
X78771427Y-102316428D02*
X78485713Y-102316428D01*
X78485713Y-102316428D02*
X78342856Y-102245000D01*
X78342856Y-102245000D02*
X78271427Y-102173571D01*
X78271427Y-102173571D02*
X78199999Y-102030714D01*
X78199999Y-102030714D02*
X78199999Y-101602142D01*
X78199999Y-101602142D02*
X78271427Y-101459285D01*
X78271427Y-101459285D02*
X78342856Y-101387857D01*
X78342856Y-101387857D02*
X78485713Y-101316428D01*
X78485713Y-101316428D02*
X78771427Y-101316428D01*
X78771427Y-101316428D02*
X78914285Y-101387857D01*
X80271428Y-102316428D02*
X80271428Y-101530714D01*
X80271428Y-101530714D02*
X80199999Y-101387857D01*
X80199999Y-101387857D02*
X80057142Y-101316428D01*
X80057142Y-101316428D02*
X79771428Y-101316428D01*
X79771428Y-101316428D02*
X79628570Y-101387857D01*
X80271428Y-102245000D02*
X80128570Y-102316428D01*
X80128570Y-102316428D02*
X79771428Y-102316428D01*
X79771428Y-102316428D02*
X79628570Y-102245000D01*
X79628570Y-102245000D02*
X79557142Y-102102142D01*
X79557142Y-102102142D02*
X79557142Y-101959285D01*
X79557142Y-101959285D02*
X79628570Y-101816428D01*
X79628570Y-101816428D02*
X79771428Y-101745000D01*
X79771428Y-101745000D02*
X80128570Y-101745000D01*
X80128570Y-101745000D02*
X80271428Y-101673571D01*
X81199999Y-101459285D02*
X81057142Y-101387857D01*
X81057142Y-101387857D02*
X80985713Y-101316428D01*
X80985713Y-101316428D02*
X80914285Y-101173571D01*
X80914285Y-101173571D02*
X80914285Y-101102142D01*
X80914285Y-101102142D02*
X80985713Y-100959285D01*
X80985713Y-100959285D02*
X81057142Y-100887857D01*
X81057142Y-100887857D02*
X81199999Y-100816428D01*
X81199999Y-100816428D02*
X81485713Y-100816428D01*
X81485713Y-100816428D02*
X81628571Y-100887857D01*
X81628571Y-100887857D02*
X81699999Y-100959285D01*
X81699999Y-100959285D02*
X81771428Y-101102142D01*
X81771428Y-101102142D02*
X81771428Y-101173571D01*
X81771428Y-101173571D02*
X81699999Y-101316428D01*
X81699999Y-101316428D02*
X81628571Y-101387857D01*
X81628571Y-101387857D02*
X81485713Y-101459285D01*
X81485713Y-101459285D02*
X81199999Y-101459285D01*
X81199999Y-101459285D02*
X81057142Y-101530714D01*
X81057142Y-101530714D02*
X80985713Y-101602142D01*
X80985713Y-101602142D02*
X80914285Y-101745000D01*
X80914285Y-101745000D02*
X80914285Y-102030714D01*
X80914285Y-102030714D02*
X80985713Y-102173571D01*
X80985713Y-102173571D02*
X81057142Y-102245000D01*
X81057142Y-102245000D02*
X81199999Y-102316428D01*
X81199999Y-102316428D02*
X81485713Y-102316428D01*
X81485713Y-102316428D02*
X81628571Y-102245000D01*
X81628571Y-102245000D02*
X81699999Y-102173571D01*
X81699999Y-102173571D02*
X81771428Y-102030714D01*
X81771428Y-102030714D02*
X81771428Y-101745000D01*
X81771428Y-101745000D02*
X81699999Y-101602142D01*
X81699999Y-101602142D02*
X81628571Y-101530714D01*
X81628571Y-101530714D02*
X81485713Y-101459285D01*
X83128570Y-100816428D02*
X82414284Y-100816428D01*
X82414284Y-100816428D02*
X82342856Y-101530714D01*
X82342856Y-101530714D02*
X82414284Y-101459285D01*
X82414284Y-101459285D02*
X82557142Y-101387857D01*
X82557142Y-101387857D02*
X82914284Y-101387857D01*
X82914284Y-101387857D02*
X83057142Y-101459285D01*
X83057142Y-101459285D02*
X83128570Y-101530714D01*
X83128570Y-101530714D02*
X83199999Y-101673571D01*
X83199999Y-101673571D02*
X83199999Y-102030714D01*
X83199999Y-102030714D02*
X83128570Y-102173571D01*
X83128570Y-102173571D02*
X83057142Y-102245000D01*
X83057142Y-102245000D02*
X82914284Y-102316428D01*
X82914284Y-102316428D02*
X82557142Y-102316428D01*
X82557142Y-102316428D02*
X82414284Y-102245000D01*
X82414284Y-102245000D02*
X82342856Y-102173571D01*
X83699998Y-100816428D02*
X84628570Y-100816428D01*
X84628570Y-100816428D02*
X84128570Y-101387857D01*
X84128570Y-101387857D02*
X84342855Y-101387857D01*
X84342855Y-101387857D02*
X84485713Y-101459285D01*
X84485713Y-101459285D02*
X84557141Y-101530714D01*
X84557141Y-101530714D02*
X84628570Y-101673571D01*
X84628570Y-101673571D02*
X84628570Y-102030714D01*
X84628570Y-102030714D02*
X84557141Y-102173571D01*
X84557141Y-102173571D02*
X84485713Y-102245000D01*
X84485713Y-102245000D02*
X84342855Y-102316428D01*
X84342855Y-102316428D02*
X83914284Y-102316428D01*
X83914284Y-102316428D02*
X83771427Y-102245000D01*
X83771427Y-102245000D02*
X83699998Y-102173571D01*
X85985712Y-100816428D02*
X85271426Y-100816428D01*
X85271426Y-100816428D02*
X85199998Y-101530714D01*
X85199998Y-101530714D02*
X85271426Y-101459285D01*
X85271426Y-101459285D02*
X85414284Y-101387857D01*
X85414284Y-101387857D02*
X85771426Y-101387857D01*
X85771426Y-101387857D02*
X85914284Y-101459285D01*
X85914284Y-101459285D02*
X85985712Y-101530714D01*
X85985712Y-101530714D02*
X86057141Y-101673571D01*
X86057141Y-101673571D02*
X86057141Y-102030714D01*
X86057141Y-102030714D02*
X85985712Y-102173571D01*
X85985712Y-102173571D02*
X85914284Y-102245000D01*
X85914284Y-102245000D02*
X85771426Y-102316428D01*
X85771426Y-102316428D02*
X85414284Y-102316428D01*
X85414284Y-102316428D02*
X85271426Y-102245000D01*
X85271426Y-102245000D02*
X85199998Y-102173571D01*
D10*
D11*
X116157142Y-83130714D02*
X116657142Y-83130714D01*
X116871428Y-83916428D02*
X116157142Y-83916428D01*
X116157142Y-83916428D02*
X116157142Y-82416428D01*
X116157142Y-82416428D02*
X116871428Y-82416428D01*
X117514285Y-83916428D02*
X117514285Y-82416428D01*
X117514285Y-82416428D02*
X118085714Y-82416428D01*
X118085714Y-82416428D02*
X118228571Y-82487857D01*
X118228571Y-82487857D02*
X118300000Y-82559285D01*
X118300000Y-82559285D02*
X118371428Y-82702142D01*
X118371428Y-82702142D02*
X118371428Y-82916428D01*
X118371428Y-82916428D02*
X118300000Y-83059285D01*
X118300000Y-83059285D02*
X118228571Y-83130714D01*
X118228571Y-83130714D02*
X118085714Y-83202142D01*
X118085714Y-83202142D02*
X117514285Y-83202142D01*
X118942857Y-83845000D02*
X119157143Y-83916428D01*
X119157143Y-83916428D02*
X119514285Y-83916428D01*
X119514285Y-83916428D02*
X119657143Y-83845000D01*
X119657143Y-83845000D02*
X119728571Y-83773571D01*
X119728571Y-83773571D02*
X119800000Y-83630714D01*
X119800000Y-83630714D02*
X119800000Y-83487857D01*
X119800000Y-83487857D02*
X119728571Y-83345000D01*
X119728571Y-83345000D02*
X119657143Y-83273571D01*
X119657143Y-83273571D02*
X119514285Y-83202142D01*
X119514285Y-83202142D02*
X119228571Y-83130714D01*
X119228571Y-83130714D02*
X119085714Y-83059285D01*
X119085714Y-83059285D02*
X119014285Y-82987857D01*
X119014285Y-82987857D02*
X118942857Y-82845000D01*
X118942857Y-82845000D02*
X118942857Y-82702142D01*
X118942857Y-82702142D02*
X119014285Y-82559285D01*
X119014285Y-82559285D02*
X119085714Y-82487857D01*
X119085714Y-82487857D02*
X119228571Y-82416428D01*
X119228571Y-82416428D02*
X119585714Y-82416428D01*
X119585714Y-82416428D02*
X119800000Y-82487857D01*
X120299999Y-82416428D02*
X121228571Y-82416428D01*
X121228571Y-82416428D02*
X120728571Y-82987857D01*
X120728571Y-82987857D02*
X120942856Y-82987857D01*
X120942856Y-82987857D02*
X121085714Y-83059285D01*
X121085714Y-83059285D02*
X121157142Y-83130714D01*
X121157142Y-83130714D02*
X121228571Y-83273571D01*
X121228571Y-83273571D02*
X121228571Y-83630714D01*
X121228571Y-83630714D02*
X121157142Y-83773571D01*
X121157142Y-83773571D02*
X121085714Y-83845000D01*
X121085714Y-83845000D02*
X120942856Y-83916428D01*
X120942856Y-83916428D02*
X120514285Y-83916428D01*
X120514285Y-83916428D02*
X120371428Y-83845000D01*
X120371428Y-83845000D02*
X120299999Y-83773571D01*
X121799999Y-82559285D02*
X121871427Y-82487857D01*
X121871427Y-82487857D02*
X122014285Y-82416428D01*
X122014285Y-82416428D02*
X122371427Y-82416428D01*
X122371427Y-82416428D02*
X122514285Y-82487857D01*
X122514285Y-82487857D02*
X122585713Y-82559285D01*
X122585713Y-82559285D02*
X122657142Y-82702142D01*
X122657142Y-82702142D02*
X122657142Y-82845000D01*
X122657142Y-82845000D02*
X122585713Y-83059285D01*
X122585713Y-83059285D02*
X121728570Y-83916428D01*
X121728570Y-83916428D02*
X122657142Y-83916428D01*
D10*
D11*
X72542857Y-26066428D02*
X72828571Y-26066428D01*
X72828571Y-26066428D02*
X72971428Y-26137857D01*
X72971428Y-26137857D02*
X73114285Y-26280714D01*
X73114285Y-26280714D02*
X73185714Y-26566428D01*
X73185714Y-26566428D02*
X73185714Y-27066428D01*
X73185714Y-27066428D02*
X73114285Y-27352142D01*
X73114285Y-27352142D02*
X72971428Y-27495000D01*
X72971428Y-27495000D02*
X72828571Y-27566428D01*
X72828571Y-27566428D02*
X72542857Y-27566428D01*
X72542857Y-27566428D02*
X72400000Y-27495000D01*
X72400000Y-27495000D02*
X72257142Y-27352142D01*
X72257142Y-27352142D02*
X72185714Y-27066428D01*
X72185714Y-27066428D02*
X72185714Y-26566428D01*
X72185714Y-26566428D02*
X72257142Y-26280714D01*
X72257142Y-26280714D02*
X72400000Y-26137857D01*
X72400000Y-26137857D02*
X72542857Y-26066428D01*
X73757143Y-27137857D02*
X74471429Y-27137857D01*
X73614286Y-27566428D02*
X74114286Y-26066428D01*
X74114286Y-26066428D02*
X74614286Y-27566428D01*
X75114285Y-27566428D02*
X75114285Y-26066428D01*
X75114285Y-26066428D02*
X75614285Y-27137857D01*
X75614285Y-27137857D02*
X76114285Y-26066428D01*
X76114285Y-26066428D02*
X76114285Y-27566428D01*
X76828571Y-27566428D02*
X76828571Y-26066428D01*
X77685714Y-27566428D02*
X77042857Y-26709285D01*
X77685714Y-26066428D02*
X76828571Y-26923571D01*
X80542857Y-25995000D02*
X79257143Y-27923571D01*
X83042857Y-27566428D02*
X82542857Y-26852142D01*
X82185714Y-27566428D02*
X82185714Y-26066428D01*
X82185714Y-26066428D02*
X82757143Y-26066428D01*
X82757143Y-26066428D02*
X82900000Y-26137857D01*
X82900000Y-26137857D02*
X82971429Y-26209285D01*
X82971429Y-26209285D02*
X83042857Y-26352142D01*
X83042857Y-26352142D02*
X83042857Y-26566428D01*
X83042857Y-26566428D02*
X82971429Y-26709285D01*
X82971429Y-26709285D02*
X82900000Y-26780714D01*
X82900000Y-26780714D02*
X82757143Y-26852142D01*
X82757143Y-26852142D02*
X82185714Y-26852142D01*
X83542857Y-26566428D02*
X83900000Y-27566428D01*
X84257143Y-26566428D02*
X83900000Y-27566428D01*
X83900000Y-27566428D02*
X83757143Y-27923571D01*
X83757143Y-27923571D02*
X83685714Y-27995000D01*
X83685714Y-27995000D02*
X83542857Y-28066428D01*
X84828571Y-27566428D02*
X84828571Y-26066428D01*
X85471429Y-27566428D02*
X85471429Y-26780714D01*
X85471429Y-26780714D02*
X85400000Y-26637857D01*
X85400000Y-26637857D02*
X85257143Y-26566428D01*
X85257143Y-26566428D02*
X85042857Y-26566428D01*
X85042857Y-26566428D02*
X84900000Y-26637857D01*
X84900000Y-26637857D02*
X84828571Y-26709285D01*
X86185714Y-27566428D02*
X86185714Y-26566428D01*
X86185714Y-26709285D02*
X86257143Y-26637857D01*
X86257143Y-26637857D02*
X86400000Y-26566428D01*
X86400000Y-26566428D02*
X86614286Y-26566428D01*
X86614286Y-26566428D02*
X86757143Y-26637857D01*
X86757143Y-26637857D02*
X86828572Y-26780714D01*
X86828572Y-26780714D02*
X86828572Y-27566428D01*
X86828572Y-26780714D02*
X86900000Y-26637857D01*
X86900000Y-26637857D02*
X87042857Y-26566428D01*
X87042857Y-26566428D02*
X87257143Y-26566428D01*
X87257143Y-26566428D02*
X87400000Y-26637857D01*
X87400000Y-26637857D02*
X87471429Y-26780714D01*
X87471429Y-26780714D02*
X87471429Y-27566428D01*
X88828572Y-27566428D02*
X88828572Y-26780714D01*
X88828572Y-26780714D02*
X88757143Y-26637857D01*
X88757143Y-26637857D02*
X88614286Y-26566428D01*
X88614286Y-26566428D02*
X88328572Y-26566428D01*
X88328572Y-26566428D02*
X88185714Y-26637857D01*
X88828572Y-27495000D02*
X88685714Y-27566428D01*
X88685714Y-27566428D02*
X88328572Y-27566428D01*
X88328572Y-27566428D02*
X88185714Y-27495000D01*
X88185714Y-27495000D02*
X88114286Y-27352142D01*
X88114286Y-27352142D02*
X88114286Y-27209285D01*
X88114286Y-27209285D02*
X88185714Y-27066428D01*
X88185714Y-27066428D02*
X88328572Y-26995000D01*
X88328572Y-26995000D02*
X88685714Y-26995000D01*
X88685714Y-26995000D02*
X88828572Y-26923571D01*
X88185714Y-26066428D02*
X88257143Y-26137857D01*
X88257143Y-26137857D02*
X88185714Y-26209285D01*
X88185714Y-26209285D02*
X88114286Y-26137857D01*
X88114286Y-26137857D02*
X88185714Y-26066428D01*
X88185714Y-26066428D02*
X88185714Y-26209285D01*
X88757143Y-26066428D02*
X88828572Y-26137857D01*
X88828572Y-26137857D02*
X88757143Y-26209285D01*
X88757143Y-26209285D02*
X88685714Y-26137857D01*
X88685714Y-26137857D02*
X88757143Y-26066428D01*
X88757143Y-26066428D02*
X88757143Y-26209285D01*
X91400000Y-26066428D02*
X90685714Y-26066428D01*
X90685714Y-26066428D02*
X90614286Y-26780714D01*
X90614286Y-26780714D02*
X90685714Y-26709285D01*
X90685714Y-26709285D02*
X90828572Y-26637857D01*
X90828572Y-26637857D02*
X91185714Y-26637857D01*
X91185714Y-26637857D02*
X91328572Y-26709285D01*
X91328572Y-26709285D02*
X91400000Y-26780714D01*
X91400000Y-26780714D02*
X91471429Y-26923571D01*
X91471429Y-26923571D02*
X91471429Y-27280714D01*
X91471429Y-27280714D02*
X91400000Y-27423571D01*
X91400000Y-27423571D02*
X91328572Y-27495000D01*
X91328572Y-27495000D02*
X91185714Y-27566428D01*
X91185714Y-27566428D02*
X90828572Y-27566428D01*
X90828572Y-27566428D02*
X90685714Y-27495000D01*
X90685714Y-27495000D02*
X90614286Y-27423571D01*
%TO.C,U3*%
D12*
X148654800Y-24879300D02*
X145505200Y-24879300D01*
X145505200Y-23279100D01*
X148654800Y-23279100D01*
X148654800Y-24879300D01*
%TA.AperFunction,EtchedComponent*%
G36*
X148654800Y-24879300D02*
G01*
X145505200Y-24879300D01*
X145505200Y-23279100D01*
X148654800Y-23279100D01*
X148654800Y-24879300D01*
G37*
%TD.AperFunction*%
%TD*%
D13*
%TO.P,U3,1,IN*%
%TO.N,+5V*%
X144780000Y-30480000D03*
%TO.P,U3,2,GND*%
%TO.N,GND*%
X147080000Y-30480000D03*
%TO.P,U3,3,OUT*%
%TO.N,+3.3V*%
X149380000Y-30480000D03*
%TD*%
D14*
%TO.P,C8,1*%
%TO.N,GND*%
X48260000Y-71120000D03*
%TO.P,C8,2*%
%TO.N,Net-(U1-XTAL2)*%
X48260000Y-76120000D03*
%TD*%
D15*
%TO.P,D1,1,K*%
%TO.N,Net-(D1-K)*%
X63500000Y-40640000D03*
D16*
%TO.P,D1,2,A*%
%TO.N,Net-(D1-A)*%
X60960000Y-40640000D03*
%TD*%
D17*
%TO.P,J4,1,Pin_1*%
%TO.N,Net-(J4-Pin_3)*%
X66040000Y-53880000D03*
D18*
%TO.P,J4,2,Pin_2*%
%TO.N,+5V*%
X64040000Y-53880000D03*
%TO.P,J4,3,Pin_3*%
%TO.N,Net-(J4-Pin_1)*%
X66040000Y-55880000D03*
%TO.P,J4,4,Pin_4*%
%TO.N,unconnected-(U1-PB7-Pad8)*%
X64040000Y-55880000D03*
%TO.P,J4,5,Pin_5*%
%TO.N,Net-(J4-Pin_5)*%
X66040000Y-57880000D03*
%TO.P,J4,6,Pin_6*%
%TO.N,GND*%
X64040000Y-57880000D03*
%TD*%
D19*
%TO.P,J2,1,Pin_1*%
%TO.N,Net-(J2-Pin_1)*%
X91440000Y-50800000D03*
D20*
%TO.P,J2,2,Pin_2*%
%TO.N,GND*%
X91440000Y-53340000D03*
%TD*%
D14*
%TO.P,R1,1*%
%TO.N,Net-(U1-PA1)*%
X101600000Y-48260000D03*
D21*
%TO.P,R1,2*%
%TO.N,GND*%
X127000000Y-48260000D03*
%TD*%
D19*
%TO.P,J5,1,Pin_1*%
%TO.N,unconnected-(J5-Pin_1-Pad1)*%
X106680000Y-106680000D03*
D20*
%TO.P,J5,2,Pin_2*%
%TO.N,unconnected-(J5-Pin_2-Pad2)*%
X106680000Y-104140000D03*
%TO.P,J5,3,Pin_3*%
%TO.N,unconnected-(J5-Pin_3-Pad3)*%
X106680000Y-101600000D03*
%TO.P,J5,4,Pin_4*%
%TO.N,unconnected-(J5-Pin_4-Pad4)*%
X106680000Y-99060000D03*
%TO.P,J5,5,Pin_5*%
%TO.N,unconnected-(J5-Pin_5-Pad5)*%
X106680000Y-96520000D03*
%TO.P,J5,6,Pin_6*%
%TO.N,unconnected-(J5-Pin_6-Pad6)*%
X106680000Y-93980000D03*
%TO.P,J5,7,Pin_7*%
%TO.N,unconnected-(J5-Pin_7-Pad7)*%
X106680000Y-91440000D03*
%TO.P,J5,8,Pin_8*%
%TO.N,unconnected-(J5-Pin_8-Pad8)*%
X106680000Y-88900000D03*
%TO.P,J5,9,Pin_9*%
%TO.N,unconnected-(J5-Pin_9-Pad9)*%
X106680000Y-86360000D03*
%TO.P,J5,10,Pin_10*%
%TO.N,unconnected-(J5-Pin_10-Pad10)*%
X106680000Y-83820000D03*
%TO.P,J5,11,Pin_11*%
%TO.N,unconnected-(J5-Pin_11-Pad11)*%
X106680000Y-81280000D03*
%TO.P,J5,12,Pin_12*%
%TO.N,unconnected-(J5-Pin_12-Pad12)*%
X106680000Y-78740000D03*
%TO.P,J5,13,Pin_13*%
%TO.N,unconnected-(J5-Pin_13-Pad13)*%
X106680000Y-76200000D03*
%TO.P,J5,14,Pin_14*%
%TO.N,unconnected-(J5-Pin_14-Pad14)*%
X106680000Y-73660000D03*
%TO.P,J5,15,Pin_15*%
%TO.N,unconnected-(J5-Pin_15-Pad15)*%
X106680000Y-71120000D03*
%TO.P,J5,16,Pin_16*%
%TO.N,unconnected-(J5-Pin_16-Pad16)*%
X106680000Y-68580000D03*
%TO.P,J5,17,Pin_17*%
%TO.N,unconnected-(J5-Pin_17-Pad17)*%
X106680000Y-66040000D03*
%TO.P,J5,18,Pin_18*%
%TO.N,unconnected-(J5-Pin_18-Pad18)*%
X106680000Y-63500000D03*
%TO.P,J5,19,Pin_19*%
%TO.N,+3.3V*%
X106680000Y-60960000D03*
%TD*%
D14*
%TO.P,R2,1*%
%TO.N,+5V*%
X101600000Y-40640000D03*
%TO.P,R2,2*%
%TO.N,Net-(U1-PA1)*%
X101600000Y-43180000D03*
%TD*%
%TO.P,C13,1*%
%TO.N,GND*%
X147050000Y-42500000D03*
%TO.P,C13,2*%
%TO.N,+3.3V*%
X152050000Y-42500000D03*
%TD*%
%TO.P,C7,1*%
%TO.N,GND*%
X53340000Y-71200000D03*
%TO.P,C7,2*%
%TO.N,Net-(U1-XTAL1)*%
X53340000Y-76200000D03*
%TD*%
D22*
%TO.P,U6,1,IN*%
%TO.N,Net-(J1-Pin_2)*%
X121680000Y-24739600D03*
D23*
%TO.P,U6,2,GND*%
%TO.N,GND*%
X124220000Y-24739600D03*
%TO.P,U6,3,OUT*%
%TO.N,+5V*%
X126760000Y-24739600D03*
%TD*%
D24*
%TO.P,C5,1*%
%TO.N,Net-(J1-Pin_2)*%
X116600000Y-32439600D03*
D25*
%TO.P,C5,2*%
%TO.N,GND*%
X116600000Y-37439600D03*
%TD*%
D26*
%TO.P,16MHz1,1,1*%
%TO.N,Net-(U1-XTAL2)*%
X60960000Y-73660000D03*
%TO.P,16MHz1,2,2*%
%TO.N,Net-(U1-XTAL1)*%
X60960000Y-78560000D03*
%TD*%
D27*
%TO.P,J6,1,Pin_1*%
%TO.N,Net-(J6-Pin_1)*%
X86360000Y-35560000D03*
D28*
%TO.P,J6,2,Pin_2*%
%TO.N,+5V*%
X88900000Y-35560000D03*
%TO.P,J6,3,Pin_3*%
%TO.N,GND*%
X91440000Y-35560000D03*
%TD*%
D24*
%TO.P,C6,1*%
%TO.N,+5V*%
X131840000Y-32439600D03*
D25*
%TO.P,C6,2*%
%TO.N,GND*%
X131840000Y-37439600D03*
%TD*%
D19*
%TO.P,J3,1,Pin_1*%
%TO.N,GND*%
X132080000Y-60960000D03*
D20*
%TO.P,J3,2,Pin_2*%
%TO.N,unconnected-(J3-Pin_2-Pad2)*%
X132080000Y-63500000D03*
%TO.P,J3,3,Pin_3*%
%TO.N,unconnected-(J3-Pin_3-Pad3)*%
X132080000Y-66040000D03*
%TO.P,J3,4,Pin_4*%
%TO.N,unconnected-(J3-Pin_4-Pad4)*%
X132080000Y-68580000D03*
%TO.P,J3,5,Pin_5*%
%TO.N,unconnected-(J3-Pin_5-Pad5)*%
X132080000Y-71120000D03*
%TO.P,J3,6,Pin_6*%
%TO.N,unconnected-(J3-Pin_6-Pad6)*%
X132080000Y-73660000D03*
%TO.P,J3,7,Pin_7*%
%TO.N,unconnected-(J3-Pin_7-Pad7)*%
X132080000Y-76200000D03*
%TO.P,J3,8,Pin_8*%
%TO.N,unconnected-(J3-Pin_8-Pad8)*%
X132080000Y-78740000D03*
%TO.P,J3,9,Pin_9*%
%TO.N,unconnected-(J3-Pin_9-Pad9)*%
X132080000Y-81280000D03*
%TO.P,J3,10,Pin_10*%
%TO.N,unconnected-(J3-Pin_10-Pad10)*%
X132080000Y-83820000D03*
%TO.P,J3,11,Pin_11*%
%TO.N,unconnected-(J3-Pin_11-Pad11)*%
X132080000Y-86360000D03*
%TO.P,J3,12,Pin_12*%
%TO.N,unconnected-(J3-Pin_12-Pad12)*%
X132080000Y-88900000D03*
%TO.P,J3,13,Pin_13*%
%TO.N,unconnected-(J3-Pin_13-Pad13)*%
X132080000Y-91440000D03*
%TO.P,J3,14,Pin_14*%
%TO.N,unconnected-(J3-Pin_14-Pad14)*%
X132080000Y-93980000D03*
%TO.P,J3,15,Pin_15*%
%TO.N,Net-(J3-Pin_15)*%
X132080000Y-96520000D03*
%TO.P,J3,16,Pin_16*%
%TO.N,Net-(J3-Pin_16)*%
X132080000Y-99060000D03*
%TO.P,J3,17,Pin_17*%
%TO.N,unconnected-(J3-Pin_17-Pad17)*%
X132080000Y-101600000D03*
%TO.P,J3,18,Pin_18*%
%TO.N,unconnected-(J3-Pin_18-Pad18)*%
X132080000Y-104140000D03*
%TO.P,J3,19,Pin_19*%
%TO.N,unconnected-(J3-Pin_19-Pad19)*%
X132080000Y-106680000D03*
%TD*%
D19*
%TO.P,J1,1,Pin_1*%
%TO.N,GND*%
X101360000Y-34899600D03*
D20*
%TO.P,J1,2,Pin_2*%
%TO.N,Net-(J1-Pin_2)*%
X101360000Y-32359600D03*
%TD*%
D14*
%TO.P,C1,1*%
%TO.N,GND*%
X60960000Y-68580000D03*
%TO.P,C1,2*%
%TO.N,+5V*%
X60960000Y-63580000D03*
%TD*%
%TO.P,R3,1*%
%TO.N,Net-(D1-A)*%
X53340000Y-40640000D03*
D21*
%TO.P,R3,2*%
%TO.N,GND*%
X53340000Y-66040000D03*
%TD*%
D14*
%TO.P,C3,1*%
%TO.N,GND*%
X66040000Y-68580000D03*
%TO.P,C3,2*%
%TO.N,+5V*%
X66040000Y-63580000D03*
%TD*%
D29*
%TO.P,U1,1,PB0*%
%TO.N,unconnected-(U1-PB0-Pad1)*%
X71120000Y-45720000D03*
D21*
%TO.P,U1,2,PB1*%
%TO.N,unconnected-(U1-PB1-Pad2)*%
X71120000Y-48260000D03*
%TO.P,U1,3,PB2*%
%TO.N,Net-(D1-K)*%
X71120000Y-50800000D03*
%TO.P,U1,4,PB3*%
%TO.N,unconnected-(U1-PB3-Pad4)*%
X71120000Y-53340000D03*
%TO.P,U1,5,PB4*%
%TO.N,Net-(J4-Pin_4)*%
X71120000Y-55880000D03*
%TO.P,U1,6,PB5*%
%TO.N,Net-(J4-Pin_1)*%
X71120000Y-58420000D03*
%TO.P,U1,7,PB6*%
%TO.N,Net-(J4-Pin_3)*%
X71120000Y-60960000D03*
%TO.P,U1,8,PB7*%
%TO.N,unconnected-(U1-PB7-Pad8)*%
X71120000Y-63500000D03*
%TO.P,U1,9,~{RESET}*%
%TO.N,Net-(J4-Pin_5)*%
X71120000Y-66040000D03*
%TO.P,U1,10,VCC*%
%TO.N,+5V*%
X71120000Y-68580000D03*
%TO.P,U1,11,GND*%
%TO.N,GND*%
X71120000Y-71120000D03*
%TO.P,U1,12,XTAL2*%
%TO.N,Net-(U1-XTAL2)*%
X71120000Y-73660000D03*
%TO.P,U1,13,XTAL1*%
%TO.N,Net-(U1-XTAL1)*%
X71120000Y-76200000D03*
%TO.P,U1,14,PD0*%
%TO.N,unconnected-(J3-Pin_11-Pad11)*%
X71120000Y-78740000D03*
%TO.P,U1,15,PD1*%
%TO.N,unconnected-(J3-Pin_12-Pad12)*%
X71120000Y-81280000D03*
%TO.P,U1,16,PD2*%
%TO.N,unconnected-(U1-PD2-Pad16)*%
X71120000Y-83820000D03*
%TO.P,U1,17,PD3*%
%TO.N,unconnected-(U1-PD3-Pad17)*%
X71120000Y-86360000D03*
%TO.P,U1,18,PD4*%
%TO.N,unconnected-(U1-PD4-Pad18)*%
X71120000Y-88900000D03*
%TO.P,U1,19,PD5*%
%TO.N,unconnected-(U1-PD5-Pad19)*%
X71120000Y-91440000D03*
%TO.P,U1,20,PD6*%
%TO.N,unconnected-(U1-PD6-Pad20)*%
X71120000Y-93980000D03*
%TO.P,U1,21,PD7*%
%TO.N,unconnected-(U1-PD7-Pad21)*%
X86360000Y-93980000D03*
%TO.P,U1,22,PC0*%
%TO.N,unconnected-(U1-PC0-Pad22)*%
X86360000Y-91440000D03*
%TO.P,U1,23,PC1*%
%TO.N,unconnected-(U1-PC1-Pad23)*%
X86360000Y-88900000D03*
%TO.P,U1,24,PC2*%
%TO.N,unconnected-(U1-PC2-Pad24)*%
X86360000Y-86360000D03*
%TO.P,U1,25,PC3*%
%TO.N,unconnected-(U1-PC3-Pad25)*%
X86360000Y-83820000D03*
%TO.P,U1,26,PC4*%
%TO.N,unconnected-(U1-PC4-Pad26)*%
X86360000Y-81280000D03*
%TO.P,U1,27,PC5*%
%TO.N,unconnected-(U1-PC5-Pad27)*%
X86360000Y-78740000D03*
%TO.P,U1,28,PC6*%
%TO.N,unconnected-(U1-PC6-Pad28)*%
X86360000Y-76200000D03*
%TO.P,U1,29,PC7*%
%TO.N,unconnected-(U1-PC7-Pad29)*%
X86360000Y-73660000D03*
%TO.P,U1,30,AVCC*%
%TO.N,+5V*%
X86360000Y-71120000D03*
%TO.P,U1,31,AGND*%
%TO.N,GND*%
X86360000Y-68580000D03*
%TO.P,U1,32,AREF*%
%TO.N,unconnected-(U1-AREF-Pad32)*%
X86360000Y-66040000D03*
%TO.P,U1,33,PA7*%
%TO.N,unconnected-(U1-PA7-Pad33)*%
X86360000Y-63500000D03*
%TO.P,U1,34,PA6*%
%TO.N,unconnected-(U1-PA6-Pad34)*%
X86360000Y-60960000D03*
%TO.P,U1,35,PA5*%
%TO.N,unconnected-(U1-PA5-Pad35)*%
X86360000Y-58420000D03*
%TO.P,U1,36,PA4*%
%TO.N,unconnected-(U1-PA4-Pad36)*%
X86360000Y-55880000D03*
%TO.P,U1,37,PA3*%
%TO.N,unconnected-(U1-PA3-Pad37)*%
X86360000Y-53340000D03*
%TO.P,U1,38,PA2*%
%TO.N,Net-(J2-Pin_1)*%
X86360000Y-50800000D03*
%TO.P,U1,39,PA1*%
%TO.N,Net-(U1-PA1)*%
X86360000Y-48260000D03*
%TO.P,U1,40,PA0*%
%TO.N,Net-(J6-Pin_1)*%
X86360000Y-45720000D03*
%TD*%
D30*
%TO.N,Net-(J4-Pin_5)*%
X66040000Y-60960000D02*
X66040000Y-57880000D01*
X71120000Y-66040000D02*
X66040000Y-60960000D01*
D31*
%TO.N,+5V*%
X78740000Y-60960000D02*
X71120000Y-68580000D01*
%TO.N,+3.3V*%
X152050000Y-37329600D02*
X152050000Y-42500000D01*
X149380000Y-34659600D02*
X152050000Y-37329600D01*
X149380000Y-30480000D02*
X149380000Y-34659600D01*
X152160000Y-42610000D02*
X152050000Y-42500000D01*
X152160000Y-55640000D02*
X152160000Y-42610000D01*
X152400000Y-55880000D02*
X152160000Y-55640000D01*
%TO.N,GND*%
X147080000Y-42470000D02*
X147050000Y-42500000D01*
X141989600Y-37439600D02*
X131840000Y-37439600D01*
%TO.N,+3.3V*%
X106680000Y-60960000D02*
X111760000Y-55880000D01*
%TO.N,GND*%
X147080000Y-30480000D02*
X147080000Y-42470000D01*
%TO.N,+3.3V*%
X111760000Y-55880000D02*
X152400000Y-55880000D01*
%TO.N,GND*%
X147050000Y-42500000D02*
X141989600Y-37439600D01*
%TO.N,Net-(U1-XTAL2)*%
X50720000Y-73660000D02*
X48260000Y-76120000D01*
X60960000Y-73660000D02*
X50720000Y-73660000D01*
X60960000Y-73660000D02*
X71120000Y-73660000D01*
%TO.N,Net-(U1-XTAL1)*%
X71120000Y-76200000D02*
X63320000Y-76200000D01*
X63320000Y-76200000D02*
X60960000Y-78560000D01*
X60960000Y-78560000D02*
X55700000Y-78560000D01*
X55700000Y-78560000D02*
X53340000Y-76200000D01*
%TO.N,GND*%
X71120000Y-71120000D02*
X76200000Y-71120000D01*
X124220000Y-29819600D02*
X116600000Y-37439600D01*
X53420000Y-71120000D02*
X53340000Y-71200000D01*
X53340000Y-66040000D02*
X53340000Y-71200000D01*
X91440000Y-63500000D02*
X91440000Y-53340000D01*
X78740000Y-73660000D02*
X78740000Y-96520000D01*
X154940000Y-33420800D02*
X149459200Y-27940000D01*
X124220000Y-29819600D02*
X131840000Y-37439600D01*
X101360000Y-34899600D02*
X114060000Y-34899600D01*
X92100400Y-34899600D02*
X91440000Y-35560000D01*
X68580000Y-71120000D02*
X66040000Y-68580000D01*
X114060000Y-34899600D02*
X116600000Y-37439600D01*
X61500000Y-57880000D02*
X64040000Y-57880000D01*
X53340000Y-71200000D02*
X48340000Y-71200000D01*
X71120000Y-71120000D02*
X53420000Y-71120000D01*
X152400000Y-60960000D02*
X154940000Y-58420000D01*
X127000000Y-48260000D02*
X127000000Y-42279600D01*
X81280000Y-99060000D02*
X88900000Y-99060000D01*
X88900000Y-99060000D02*
X88900000Y-71120000D01*
X147080000Y-28180000D02*
X147080000Y-30480000D01*
X127000000Y-42279600D02*
X131840000Y-37439600D01*
X60960000Y-68580000D02*
X58420000Y-68580000D01*
X154940000Y-58420000D02*
X154940000Y-33420800D01*
X101360000Y-34899600D02*
X92100400Y-34899600D01*
X48340000Y-71200000D02*
X48260000Y-71120000D01*
X147320000Y-27940000D02*
X147080000Y-28180000D01*
X132080000Y-60960000D02*
X152400000Y-60960000D01*
X58420000Y-60960000D02*
X61500000Y-57880000D01*
X86360000Y-68580000D02*
X91440000Y-63500000D01*
X58420000Y-68580000D02*
X58420000Y-60960000D01*
X71120000Y-71120000D02*
X68580000Y-71120000D01*
X149459200Y-27940000D02*
X147320000Y-27940000D01*
X66040000Y-68580000D02*
X60960000Y-68580000D01*
X88900000Y-71120000D02*
X86360000Y-68580000D01*
X124220000Y-24739600D02*
X124220000Y-29819600D01*
X76200000Y-71120000D02*
X78740000Y-73660000D01*
X78740000Y-96520000D02*
X81280000Y-99060000D01*
%TO.N,+5V*%
X126760000Y-24739600D02*
X126760000Y-22620000D01*
X104140000Y-20320000D02*
X88900000Y-35560000D01*
X131840000Y-29819600D02*
X126760000Y-24739600D01*
X93980000Y-40640000D02*
X101600000Y-40640000D01*
D30*
X64040000Y-53880000D02*
X65995000Y-51925000D01*
D31*
X88900000Y-35560000D02*
X88900000Y-34329635D01*
X71120000Y-68580000D02*
X71040000Y-68580000D01*
D30*
X77325000Y-51925000D02*
X78740000Y-53340000D01*
D31*
X71040000Y-68580000D02*
X66040000Y-63580000D01*
X88900000Y-34329635D02*
X87590365Y-33020000D01*
X78740000Y-33020000D02*
X78740000Y-53340000D01*
X124460000Y-20320000D02*
X104140000Y-20320000D01*
X86360000Y-71120000D02*
X78740000Y-63500000D01*
X126760000Y-22620000D02*
X124460000Y-20320000D01*
X87590365Y-33020000D02*
X78740000Y-33020000D01*
X88900000Y-35560000D02*
X93980000Y-40640000D01*
X131840000Y-29819600D02*
X132500400Y-30480000D01*
X78740000Y-63500000D02*
X78740000Y-60960000D01*
X78740000Y-53340000D02*
X78740000Y-60960000D01*
X66040000Y-63580000D02*
X60960000Y-63580000D01*
X132500400Y-30480000D02*
X144780000Y-30480000D01*
X131840000Y-32439600D02*
X131840000Y-29819600D01*
D30*
X65995000Y-51925000D02*
X77325000Y-51925000D01*
D31*
%TO.N,Net-(J1-Pin_2)*%
X116600000Y-29819600D02*
X121680000Y-24739600D01*
X101360000Y-32359600D02*
X116520000Y-32359600D01*
X116600000Y-32439600D02*
X116600000Y-29819600D01*
X116520000Y-32359600D02*
X116600000Y-32439600D01*
%TO.N,Net-(J2-Pin_1)*%
X91440000Y-50800000D02*
X86360000Y-50800000D01*
D30*
%TO.N,Net-(J4-Pin_1)*%
X71120000Y-58420000D02*
X68580000Y-55880000D01*
X68580000Y-55880000D02*
X66040000Y-55880000D01*
%TO.N,Net-(J4-Pin_3)*%
X72245000Y-55414009D02*
X71585991Y-54755000D01*
X72245000Y-59835000D02*
X72245000Y-55414009D01*
X71120000Y-60960000D02*
X72245000Y-59835000D01*
X71585991Y-54755000D02*
X66915000Y-54755000D01*
X66915000Y-54755000D02*
X66040000Y-53880000D01*
D31*
%TO.N,Net-(U1-PA1)*%
X101600000Y-48260000D02*
X86360000Y-48260000D01*
X101600000Y-43180000D02*
X101600000Y-48260000D01*
%TO.N,Net-(D1-K)*%
X71120000Y-50800000D02*
X63500000Y-43180000D01*
X63500000Y-43180000D02*
X63500000Y-40640000D01*
D30*
%TO.N,unconnected-(U1-PB7-Pad8)*%
X67040000Y-59420000D02*
X67040000Y-57465786D01*
X71120000Y-63500000D02*
X67040000Y-59420000D01*
X66454214Y-56880000D02*
X65040000Y-56880000D01*
X65040000Y-56880000D02*
X64040000Y-55880000D01*
X67040000Y-57465786D02*
X66454214Y-56880000D01*
D31*
%TO.N,Net-(D1-A)*%
X60960000Y-40640000D02*
X53340000Y-40640000D01*
%TO.N,unconnected-(J3-Pin_11-Pad11)*%
X68580000Y-111760000D02*
X63500000Y-106680000D01*
X142240000Y-111760000D02*
X68580000Y-111760000D01*
X132080000Y-86360000D02*
X134620000Y-86360000D01*
X134620000Y-86360000D02*
X142240000Y-93980000D01*
X63500000Y-106680000D02*
X63500000Y-86360000D01*
X63500000Y-86360000D02*
X71120000Y-78740000D01*
X142240000Y-93980000D02*
X142240000Y-111760000D01*
%TO.N,unconnected-(J3-Pin_12-Pad12)*%
X137160000Y-109220000D02*
X71120000Y-109220000D01*
X66040000Y-86360000D02*
X71120000Y-81280000D01*
X137160000Y-93980000D02*
X137160000Y-109220000D01*
X132080000Y-88900000D02*
X137160000Y-93980000D01*
X71120000Y-109220000D02*
X66040000Y-104140000D01*
X66040000Y-104140000D02*
X66040000Y-86360000D01*
%TO.N,Net-(J6-Pin_1)*%
X86360000Y-45720000D02*
X86360000Y-35560000D01*
%TD*%
%TA.AperFunction,Conductor*%
%TO.N,GND*%
G36*
X157445608Y-17649779D02*
G01*
X157507562Y-17666428D01*
X157552905Y-17711810D01*
X157569500Y-17773779D01*
X157569500Y-113975797D01*
X157552860Y-114037844D01*
X157507406Y-114083238D01*
X157445338Y-114099797D01*
X43223709Y-113950162D01*
X43161814Y-113933516D01*
X43116500Y-113888189D01*
X43099871Y-113826293D01*
X43090500Y-104801500D01*
X43090500Y-76120000D01*
X46954531Y-76120000D01*
X46974364Y-76346689D01*
X47033261Y-76566497D01*
X47129432Y-76772735D01*
X47259953Y-76959140D01*
X47420859Y-77120046D01*
X47607264Y-77250567D01*
X47607265Y-77250567D01*
X47607266Y-77250568D01*
X47813504Y-77346739D01*
X48033308Y-77405635D01*
X48184435Y-77418856D01*
X48259999Y-77425468D01*
X48259999Y-77425467D01*
X48260000Y-77425468D01*
X48486692Y-77405635D01*
X48706496Y-77346739D01*
X48912734Y-77250568D01*
X49099139Y-77120047D01*
X49260047Y-76959139D01*
X49390568Y-76772734D01*
X49486739Y-76566496D01*
X49545635Y-76346692D01*
X49551039Y-76284908D01*
X49562185Y-76243310D01*
X49586887Y-76208033D01*
X51098102Y-74696819D01*
X51138330Y-74669939D01*
X51185783Y-74660500D01*
X53174927Y-74660500D01*
X53235359Y-74676222D01*
X53280465Y-74719403D01*
X53298809Y-74779091D01*
X53285737Y-74840151D01*
X53244566Y-74887099D01*
X53185734Y-74908028D01*
X53113310Y-74914364D01*
X52893502Y-74973261D01*
X52687264Y-75069432D01*
X52500859Y-75199953D01*
X52339953Y-75360859D01*
X52209432Y-75547264D01*
X52113261Y-75753502D01*
X52054364Y-75973310D01*
X52034531Y-76199999D01*
X52054364Y-76426689D01*
X52113261Y-76646497D01*
X52209432Y-76852735D01*
X52339953Y-77039140D01*
X52500859Y-77200046D01*
X52687264Y-77330567D01*
X52687265Y-77330567D01*
X52687266Y-77330568D01*
X52893504Y-77426739D01*
X53113308Y-77485635D01*
X53175092Y-77491040D01*
X53216689Y-77502185D01*
X53251966Y-77526887D01*
X54982431Y-79257351D01*
X54984624Y-79259600D01*
X55044942Y-79323054D01*
X55093362Y-79356755D01*
X55100871Y-79362416D01*
X55146593Y-79399698D01*
X55173562Y-79413785D01*
X55186982Y-79421916D01*
X55211949Y-79439294D01*
X55266163Y-79462559D01*
X55274663Y-79466595D01*
X55326951Y-79493909D01*
X55356196Y-79502277D01*
X55370986Y-79507543D01*
X55378464Y-79510752D01*
X55398942Y-79519540D01*
X55456737Y-79531416D01*
X55465854Y-79533654D01*
X55522582Y-79549887D01*
X55552916Y-79552196D01*
X55568453Y-79554374D01*
X55598259Y-79560500D01*
X55657242Y-79560500D01*
X55666656Y-79560858D01*
X55725476Y-79565337D01*
X55755651Y-79561493D01*
X55771317Y-79560500D01*
X60169583Y-79560500D01*
X60206870Y-79566239D01*
X60240706Y-79582925D01*
X60332359Y-79647101D01*
X60332360Y-79647101D01*
X60332361Y-79647102D01*
X60530670Y-79739575D01*
X60742023Y-79796207D01*
X60960000Y-79815277D01*
X61177977Y-79796207D01*
X61389330Y-79739575D01*
X61587639Y-79647102D01*
X61766877Y-79521598D01*
X61921598Y-79366877D01*
X62047102Y-79187639D01*
X62139575Y-78989330D01*
X62196207Y-78777977D01*
X62196207Y-78777976D01*
X62199015Y-78767497D01*
X62199340Y-78767584D01*
X62207182Y-78738314D01*
X62231882Y-78703037D01*
X63698101Y-77236818D01*
X63738329Y-77209939D01*
X63785782Y-77200500D01*
X70242412Y-77200500D01*
X70279699Y-77206239D01*
X70313533Y-77222924D01*
X70467266Y-77330568D01*
X70501945Y-77346739D01*
X70525275Y-77357618D01*
X70577450Y-77403375D01*
X70596869Y-77470000D01*
X70577450Y-77536625D01*
X70525275Y-77582382D01*
X70467263Y-77609433D01*
X70280859Y-77739953D01*
X70119953Y-77900859D01*
X69989432Y-78087264D01*
X69893261Y-78293502D01*
X69834364Y-78513310D01*
X69828959Y-78575092D01*
X69817813Y-78616690D01*
X69793112Y-78651966D01*
X62802646Y-85642432D01*
X62800399Y-85644623D01*
X62736948Y-85704939D01*
X62703244Y-85753362D01*
X62697573Y-85760882D01*
X62660301Y-85806593D01*
X62646210Y-85833566D01*
X62638082Y-85846983D01*
X62620705Y-85871950D01*
X62597439Y-85926165D01*
X62593399Y-85934671D01*
X62566090Y-85986952D01*
X62557720Y-86016201D01*
X62552459Y-86030978D01*
X62540460Y-86058942D01*
X62528587Y-86116713D01*
X62526342Y-86125860D01*
X62510113Y-86182580D01*
X62507802Y-86212925D01*
X62505622Y-86228466D01*
X62499500Y-86258259D01*
X62499500Y-86317242D01*
X62499142Y-86326656D01*
X62494663Y-86385477D01*
X62498506Y-86415651D01*
X62499500Y-86431317D01*
X62499500Y-106665721D01*
X62499460Y-106668863D01*
X62497242Y-106756362D01*
X62507648Y-106814420D01*
X62508957Y-106823749D01*
X62514926Y-106882438D01*
X62524033Y-106911467D01*
X62527772Y-106926702D01*
X62533141Y-106956652D01*
X62555020Y-107011425D01*
X62558180Y-107020300D01*
X62575841Y-107076588D01*
X62590607Y-107103191D01*
X62597337Y-107117364D01*
X62608622Y-107145617D01*
X62641080Y-107194867D01*
X62645961Y-107202923D01*
X62674590Y-107254501D01*
X62694404Y-107277581D01*
X62703856Y-107290116D01*
X62720599Y-107315520D01*
X62762300Y-107357221D01*
X62768705Y-107364132D01*
X62807134Y-107408896D01*
X62831193Y-107427519D01*
X62842972Y-107437893D01*
X67862431Y-112457351D01*
X67864624Y-112459600D01*
X67924942Y-112523054D01*
X67973362Y-112556755D01*
X67980871Y-112562416D01*
X68026593Y-112599698D01*
X68053562Y-112613785D01*
X68066980Y-112621915D01*
X68072279Y-112625603D01*
X68091949Y-112639294D01*
X68146163Y-112662559D01*
X68154663Y-112666595D01*
X68173329Y-112676346D01*
X68206951Y-112693909D01*
X68236196Y-112702277D01*
X68250986Y-112707543D01*
X68252324Y-112708117D01*
X68278942Y-112719540D01*
X68336737Y-112731416D01*
X68345854Y-112733654D01*
X68402582Y-112749887D01*
X68432916Y-112752196D01*
X68448453Y-112754374D01*
X68478259Y-112760500D01*
X68537242Y-112760500D01*
X68546656Y-112760858D01*
X68605476Y-112765337D01*
X68635651Y-112761493D01*
X68651317Y-112760500D01*
X142211499Y-112760500D01*
X142217778Y-112760658D01*
X142290936Y-112764369D01*
X142363339Y-112753276D01*
X142369557Y-112752484D01*
X142442438Y-112745074D01*
X142457801Y-112740253D01*
X142476150Y-112735995D01*
X142483372Y-112734888D01*
X142492071Y-112733556D01*
X142560777Y-112708109D01*
X142566672Y-112706094D01*
X142636588Y-112684159D01*
X142650674Y-112676339D01*
X142667781Y-112668479D01*
X142682887Y-112662886D01*
X142745056Y-112624134D01*
X142750450Y-112620959D01*
X142814502Y-112585409D01*
X142826720Y-112574918D01*
X142841898Y-112563773D01*
X142855571Y-112555252D01*
X142908692Y-112504755D01*
X142913328Y-112500568D01*
X142968895Y-112452866D01*
X142978752Y-112440131D01*
X142991375Y-112426159D01*
X143003053Y-112415059D01*
X143044939Y-112354877D01*
X143048577Y-112349924D01*
X143093448Y-112291958D01*
X143100546Y-112277485D01*
X143110093Y-112261268D01*
X143119295Y-112248049D01*
X143148186Y-112180722D01*
X143150791Y-112175054D01*
X143183060Y-112109271D01*
X143187096Y-112093680D01*
X143193186Y-112075861D01*
X143199540Y-112061058D01*
X143214288Y-111989287D01*
X143215694Y-111983222D01*
X143234063Y-111912285D01*
X143234879Y-111896193D01*
X143237258Y-111877516D01*
X143240500Y-111861742D01*
X143240500Y-111788501D01*
X143240659Y-111782220D01*
X143244369Y-111709064D01*
X143241930Y-111693144D01*
X143240500Y-111674365D01*
X143240500Y-93994238D01*
X143240540Y-93991096D01*
X143242756Y-93903639D01*
X143242756Y-93903637D01*
X143242756Y-93903636D01*
X143232345Y-93845554D01*
X143231042Y-93836263D01*
X143225074Y-93777562D01*
X143215964Y-93748528D01*
X143212223Y-93733286D01*
X143206857Y-93703343D01*
X143184976Y-93648565D01*
X143181816Y-93639689D01*
X143179056Y-93630892D01*
X143164159Y-93583412D01*
X143149395Y-93556812D01*
X143142660Y-93542631D01*
X143131377Y-93514383D01*
X143098917Y-93465131D01*
X143094036Y-93457074D01*
X143065409Y-93405498D01*
X143045582Y-93382403D01*
X143036146Y-93369888D01*
X143019402Y-93344481D01*
X143019400Y-93344479D01*
X143019399Y-93344477D01*
X142977693Y-93302772D01*
X142971287Y-93295860D01*
X142932864Y-93251102D01*
X142908804Y-93232478D01*
X142897026Y-93222105D01*
X135337567Y-85662647D01*
X135335412Y-85660438D01*
X135275059Y-85596947D01*
X135226640Y-85563246D01*
X135219118Y-85557575D01*
X135173405Y-85520300D01*
X135146440Y-85506215D01*
X135133019Y-85498084D01*
X135108049Y-85480705D01*
X135108048Y-85480704D01*
X135108046Y-85480703D01*
X135053845Y-85457443D01*
X135045336Y-85453402D01*
X134993053Y-85426092D01*
X134987126Y-85424396D01*
X134963798Y-85417721D01*
X134949020Y-85412459D01*
X134921058Y-85400460D01*
X134863272Y-85388583D01*
X134854128Y-85386338D01*
X134797421Y-85370113D01*
X134767075Y-85367802D01*
X134751534Y-85365622D01*
X134721742Y-85359500D01*
X134721741Y-85359500D01*
X134662758Y-85359500D01*
X134653344Y-85359142D01*
X134644198Y-85358445D01*
X134594524Y-85354663D01*
X134594523Y-85354663D01*
X134564349Y-85358506D01*
X134548683Y-85359500D01*
X133040758Y-85359500D01*
X132993305Y-85350061D01*
X132953077Y-85323181D01*
X132951401Y-85321505D01*
X132765839Y-85191573D01*
X132726975Y-85147257D01*
X132712964Y-85090000D01*
X132726975Y-85032743D01*
X132765839Y-84988426D01*
X132951401Y-84858495D01*
X133118495Y-84691401D01*
X133254035Y-84497830D01*
X133353903Y-84283663D01*
X133415063Y-84055408D01*
X133435659Y-83820000D01*
X133415063Y-83584592D01*
X133353903Y-83356337D01*
X133254035Y-83142171D01*
X133118495Y-82948599D01*
X132951401Y-82781505D01*
X132765839Y-82651573D01*
X132726975Y-82607257D01*
X132712964Y-82550000D01*
X132726975Y-82492743D01*
X132765839Y-82448426D01*
X132951401Y-82318495D01*
X133118495Y-82151401D01*
X133254035Y-81957830D01*
X133353903Y-81743663D01*
X133415063Y-81515408D01*
X133435659Y-81280000D01*
X133415063Y-81044592D01*
X133353903Y-80816337D01*
X133254035Y-80602171D01*
X133118495Y-80408599D01*
X132951401Y-80241505D01*
X132765839Y-80111573D01*
X132726976Y-80067257D01*
X132712965Y-80010000D01*
X132726976Y-79952743D01*
X132765839Y-79908426D01*
X132951401Y-79778495D01*
X133118495Y-79611401D01*
X133254035Y-79417830D01*
X133353903Y-79203663D01*
X133415063Y-78975408D01*
X133435659Y-78740000D01*
X133415063Y-78504592D01*
X133353903Y-78276337D01*
X133254035Y-78062171D01*
X133118495Y-77868599D01*
X132951401Y-77701505D01*
X132765839Y-77571573D01*
X132726975Y-77527257D01*
X132712964Y-77470000D01*
X132726975Y-77412743D01*
X132765839Y-77368426D01*
X132951401Y-77238495D01*
X133118495Y-77071401D01*
X133254035Y-76877830D01*
X133353903Y-76663663D01*
X133415063Y-76435408D01*
X133435659Y-76200000D01*
X133415063Y-75964592D01*
X133353903Y-75736337D01*
X133254035Y-75522171D01*
X133118495Y-75328599D01*
X132951401Y-75161505D01*
X132765839Y-75031573D01*
X132726975Y-74987257D01*
X132712964Y-74930000D01*
X132726975Y-74872743D01*
X132765839Y-74828426D01*
X132951401Y-74698495D01*
X133118495Y-74531401D01*
X133254035Y-74337830D01*
X133353903Y-74123663D01*
X133415063Y-73895408D01*
X133435659Y-73660000D01*
X133415063Y-73424592D01*
X133353903Y-73196337D01*
X133254035Y-72982171D01*
X133118495Y-72788599D01*
X132951401Y-72621505D01*
X132765839Y-72491573D01*
X132726975Y-72447257D01*
X132712964Y-72390000D01*
X132726975Y-72332743D01*
X132765839Y-72288426D01*
X132951401Y-72158495D01*
X133118495Y-71991401D01*
X133254035Y-71797830D01*
X133353903Y-71583663D01*
X133415063Y-71355408D01*
X133435659Y-71120000D01*
X133415063Y-70884592D01*
X133353903Y-70656337D01*
X133254035Y-70442171D01*
X133118495Y-70248599D01*
X132951401Y-70081505D01*
X132765839Y-69951573D01*
X132726975Y-69907257D01*
X132712964Y-69850000D01*
X132726975Y-69792743D01*
X132765839Y-69748426D01*
X132951401Y-69618495D01*
X133118495Y-69451401D01*
X133254035Y-69257830D01*
X133353903Y-69043663D01*
X133415063Y-68815408D01*
X133435659Y-68580000D01*
X133415063Y-68344592D01*
X133353903Y-68116337D01*
X133254035Y-67902171D01*
X133118495Y-67708599D01*
X132951401Y-67541505D01*
X132765839Y-67411573D01*
X132726975Y-67367257D01*
X132712964Y-67310000D01*
X132726975Y-67252743D01*
X132765839Y-67208426D01*
X132951401Y-67078495D01*
X133118495Y-66911401D01*
X133254035Y-66717830D01*
X133353903Y-66503663D01*
X133415063Y-66275408D01*
X133435659Y-66040000D01*
X133415063Y-65804592D01*
X133353903Y-65576337D01*
X133254035Y-65362171D01*
X133118495Y-65168599D01*
X132951401Y-65001505D01*
X132765839Y-64871573D01*
X132726976Y-64827257D01*
X132712965Y-64770000D01*
X132726976Y-64712743D01*
X132765839Y-64668426D01*
X132951401Y-64538495D01*
X133118495Y-64371401D01*
X133254035Y-64177830D01*
X133353903Y-63963663D01*
X133415063Y-63735408D01*
X133435659Y-63500000D01*
X133434546Y-63487284D01*
X133415063Y-63264592D01*
X133399082Y-63204950D01*
X133353903Y-63036337D01*
X133254035Y-62822171D01*
X133118495Y-62628599D01*
X132996181Y-62506285D01*
X132964885Y-62453539D01*
X132962696Y-62392246D01*
X132990149Y-62337401D01*
X133040528Y-62302422D01*
X133172089Y-62253352D01*
X133287188Y-62167188D01*
X133373352Y-62052089D01*
X133423597Y-61917375D01*
X133430000Y-61857824D01*
X133430000Y-61210000D01*
X130730000Y-61210000D01*
X130730000Y-61857824D01*
X130736402Y-61917375D01*
X130786647Y-62052089D01*
X130872811Y-62167188D01*
X130987911Y-62253352D01*
X131119471Y-62302422D01*
X131169850Y-62337401D01*
X131197303Y-62392246D01*
X131195114Y-62453539D01*
X131163819Y-62506285D01*
X131041503Y-62628601D01*
X130905965Y-62822170D01*
X130806097Y-63036336D01*
X130744936Y-63264592D01*
X130724340Y-63500000D01*
X130744936Y-63735407D01*
X130755988Y-63776652D01*
X130806097Y-63963663D01*
X130905965Y-64177830D01*
X131041505Y-64371401D01*
X131208599Y-64538495D01*
X131394160Y-64668426D01*
X131433024Y-64712743D01*
X131447035Y-64770000D01*
X131433024Y-64827257D01*
X131394159Y-64871575D01*
X131208595Y-65001508D01*
X131041505Y-65168598D01*
X130905965Y-65362170D01*
X130806097Y-65576336D01*
X130744936Y-65804592D01*
X130724340Y-66039999D01*
X130744936Y-66275407D01*
X130789709Y-66442502D01*
X130806097Y-66503663D01*
X130905965Y-66717830D01*
X131041505Y-66911401D01*
X131208599Y-67078495D01*
X131394160Y-67208426D01*
X131433024Y-67252743D01*
X131447035Y-67310000D01*
X131433024Y-67367257D01*
X131394158Y-67411575D01*
X131266487Y-67500972D01*
X131208595Y-67541508D01*
X131041505Y-67708598D01*
X130905965Y-67902170D01*
X130806097Y-68116336D01*
X130744936Y-68344592D01*
X130724340Y-68579999D01*
X130744936Y-68815407D01*
X130776593Y-68933553D01*
X130806097Y-69043663D01*
X130905965Y-69257830D01*
X131041505Y-69451401D01*
X131208599Y-69618495D01*
X131394160Y-69748426D01*
X131433024Y-69792743D01*
X131447035Y-69850000D01*
X131433024Y-69907257D01*
X131394158Y-69951575D01*
X131225222Y-70069866D01*
X131208595Y-70081508D01*
X131041505Y-70248598D01*
X130905965Y-70442170D01*
X130806097Y-70656336D01*
X130744936Y-70884592D01*
X130724340Y-71120000D01*
X130744936Y-71355407D01*
X130764013Y-71426602D01*
X130806097Y-71583663D01*
X130905965Y-71797830D01*
X131041505Y-71991401D01*
X131208599Y-72158495D01*
X131394160Y-72288426D01*
X131433024Y-72332743D01*
X131447035Y-72390000D01*
X131433024Y-72447257D01*
X131394158Y-72491575D01*
X131248288Y-72593715D01*
X131208595Y-72621508D01*
X131041505Y-72788598D01*
X130905965Y-72982170D01*
X130806097Y-73196336D01*
X130744936Y-73424592D01*
X130724340Y-73660000D01*
X130744936Y-73895407D01*
X130789709Y-74062501D01*
X130806097Y-74123663D01*
X130905965Y-74337830D01*
X131041505Y-74531401D01*
X131208599Y-74698495D01*
X131394160Y-74828426D01*
X131433024Y-74872743D01*
X131447035Y-74930000D01*
X131433024Y-74987257D01*
X131394159Y-75031575D01*
X131208595Y-75161508D01*
X131041505Y-75328598D01*
X130905965Y-75522170D01*
X130806097Y-75736336D01*
X130744936Y-75964592D01*
X130724340Y-76199999D01*
X130744936Y-76435407D01*
X130780061Y-76566496D01*
X130806097Y-76663663D01*
X130905965Y-76877830D01*
X131041505Y-77071401D01*
X131208599Y-77238495D01*
X131394160Y-77368426D01*
X131433024Y-77412743D01*
X131447035Y-77470000D01*
X131433024Y-77527257D01*
X131394159Y-77571575D01*
X131208595Y-77701508D01*
X131041505Y-77868598D01*
X130905965Y-78062170D01*
X130806097Y-78276336D01*
X130744936Y-78504592D01*
X130724340Y-78739999D01*
X130744936Y-78975407D01*
X130789709Y-79142501D01*
X130806097Y-79203663D01*
X130905965Y-79417830D01*
X131041505Y-79611401D01*
X131208599Y-79778495D01*
X131394160Y-79908426D01*
X131433024Y-79952743D01*
X131447035Y-80010000D01*
X131433024Y-80067257D01*
X131394159Y-80111575D01*
X131208595Y-80241508D01*
X131041505Y-80408598D01*
X130905965Y-80602170D01*
X130806097Y-80816336D01*
X130744936Y-81044592D01*
X130724340Y-81280000D01*
X130744936Y-81515407D01*
X130789709Y-81682502D01*
X130806097Y-81743663D01*
X130905965Y-81957830D01*
X131041505Y-82151401D01*
X131208599Y-82318495D01*
X131394160Y-82448426D01*
X131433024Y-82492743D01*
X131447035Y-82550000D01*
X131433024Y-82607257D01*
X131394159Y-82651575D01*
X131208595Y-82781508D01*
X131041505Y-82948598D01*
X130905965Y-83142170D01*
X130806097Y-83356336D01*
X130744936Y-83584592D01*
X130724340Y-83820000D01*
X130744936Y-84055407D01*
X130760718Y-84114306D01*
X130806097Y-84283663D01*
X130905965Y-84497830D01*
X131041505Y-84691401D01*
X131208599Y-84858495D01*
X131394160Y-84988426D01*
X131433024Y-85032743D01*
X131447035Y-85090000D01*
X131433024Y-85147257D01*
X131394159Y-85191575D01*
X131208595Y-85321508D01*
X131041505Y-85488598D01*
X130905965Y-85682170D01*
X130806097Y-85896336D01*
X130744936Y-86124592D01*
X130724340Y-86360000D01*
X130744936Y-86595407D01*
X130783171Y-86738102D01*
X130806097Y-86823663D01*
X130905965Y-87037830D01*
X131041505Y-87231401D01*
X131208599Y-87398495D01*
X131394160Y-87528426D01*
X131433024Y-87572743D01*
X131447035Y-87630000D01*
X131433024Y-87687257D01*
X131394159Y-87731575D01*
X131208595Y-87861508D01*
X131041505Y-88028598D01*
X130905965Y-88222170D01*
X130806097Y-88436336D01*
X130744936Y-88664592D01*
X130724340Y-88899999D01*
X130744936Y-89135407D01*
X130789709Y-89302501D01*
X130806097Y-89363663D01*
X130905965Y-89577830D01*
X131041505Y-89771401D01*
X131208599Y-89938495D01*
X131394160Y-90068426D01*
X131433024Y-90112743D01*
X131447035Y-90170000D01*
X131433024Y-90227257D01*
X131394159Y-90271575D01*
X131208595Y-90401508D01*
X131041505Y-90568598D01*
X130905965Y-90762170D01*
X130806097Y-90976336D01*
X130744936Y-91204592D01*
X130724340Y-91440000D01*
X130744936Y-91675407D01*
X130771657Y-91775131D01*
X130806097Y-91903663D01*
X130905965Y-92117830D01*
X131041505Y-92311401D01*
X131208599Y-92478495D01*
X131394160Y-92608426D01*
X131433024Y-92652743D01*
X131447035Y-92710000D01*
X131433024Y-92767257D01*
X131394159Y-92811575D01*
X131208595Y-92941508D01*
X131041505Y-93108598D01*
X130905965Y-93302170D01*
X130806097Y-93516336D01*
X130744936Y-93744592D01*
X130724340Y-93979999D01*
X130744936Y-94215407D01*
X130783171Y-94358101D01*
X130806097Y-94443663D01*
X130905965Y-94657830D01*
X131041505Y-94851401D01*
X131208599Y-95018495D01*
X131394160Y-95148426D01*
X131433024Y-95192743D01*
X131447035Y-95250000D01*
X131433024Y-95307257D01*
X131394159Y-95351575D01*
X131208595Y-95481508D01*
X131041505Y-95648598D01*
X130905965Y-95842170D01*
X130806097Y-96056336D01*
X130744936Y-96284592D01*
X130724340Y-96519999D01*
X130744936Y-96755407D01*
X130789709Y-96922501D01*
X130806097Y-96983663D01*
X130905965Y-97197830D01*
X131041505Y-97391401D01*
X131208599Y-97558495D01*
X131394160Y-97688426D01*
X131433024Y-97732743D01*
X131447035Y-97790000D01*
X131433024Y-97847257D01*
X131394159Y-97891575D01*
X131208595Y-98021508D01*
X131041505Y-98188598D01*
X130905965Y-98382170D01*
X130806097Y-98596336D01*
X130744936Y-98824592D01*
X130724340Y-99060000D01*
X130744936Y-99295407D01*
X130789709Y-99462502D01*
X130806097Y-99523663D01*
X130905965Y-99737830D01*
X131041505Y-99931401D01*
X131208599Y-100098495D01*
X131394160Y-100228426D01*
X131433024Y-100272743D01*
X131447035Y-100330000D01*
X131433024Y-100387257D01*
X131394159Y-100431575D01*
X131208595Y-100561508D01*
X131041505Y-100728598D01*
X130905965Y-100922170D01*
X130806097Y-101136336D01*
X130744936Y-101364592D01*
X130724340Y-101600000D01*
X130744936Y-101835407D01*
X130789709Y-102002501D01*
X130806097Y-102063663D01*
X130905965Y-102277830D01*
X131041505Y-102471401D01*
X131208599Y-102638495D01*
X131394160Y-102768426D01*
X131433024Y-102812743D01*
X131447035Y-102870000D01*
X131433024Y-102927257D01*
X131394159Y-102971575D01*
X131208595Y-103101508D01*
X131041505Y-103268598D01*
X130905965Y-103462170D01*
X130806097Y-103676336D01*
X130744936Y-103904592D01*
X130724340Y-104140000D01*
X130744936Y-104375407D01*
X130755988Y-104416652D01*
X130806097Y-104603663D01*
X130905965Y-104817830D01*
X131041505Y-105011401D01*
X131208599Y-105178495D01*
X131394160Y-105308426D01*
X131433024Y-105352743D01*
X131447035Y-105410000D01*
X131433024Y-105467257D01*
X131394159Y-105511575D01*
X131208595Y-105641508D01*
X131041505Y-105808598D01*
X130905965Y-106002170D01*
X130806097Y-106216336D01*
X130744936Y-106444592D01*
X130724340Y-106679999D01*
X130744936Y-106915407D01*
X130755988Y-106956652D01*
X130806097Y-107143663D01*
X130905965Y-107357830D01*
X131041505Y-107551401D01*
X131208599Y-107718495D01*
X131402170Y-107854035D01*
X131616337Y-107953903D01*
X131690576Y-107973795D01*
X131697779Y-107975725D01*
X131749459Y-108004077D01*
X131782208Y-108053089D01*
X131788625Y-108111685D01*
X131767261Y-108166623D01*
X131722943Y-108205489D01*
X131665686Y-108219500D01*
X107800858Y-108219500D01*
X107735315Y-108200762D01*
X107689581Y-108150211D01*
X107677477Y-108083126D01*
X107702662Y-108019780D01*
X107757522Y-107979319D01*
X107772331Y-107973796D01*
X107887546Y-107887546D01*
X107973796Y-107772331D01*
X108024091Y-107637483D01*
X108030500Y-107577873D01*
X108030499Y-105782128D01*
X108024091Y-105722517D01*
X107973796Y-105587669D01*
X107887546Y-105472454D01*
X107772331Y-105386204D01*
X107710898Y-105363291D01*
X107640916Y-105337189D01*
X107590537Y-105302209D01*
X107563084Y-105247365D01*
X107565273Y-105186072D01*
X107596566Y-105133329D01*
X107718495Y-105011401D01*
X107854035Y-104817830D01*
X107953903Y-104603663D01*
X108015063Y-104375408D01*
X108035659Y-104140000D01*
X108015063Y-103904592D01*
X107953903Y-103676337D01*
X107854035Y-103462171D01*
X107718495Y-103268599D01*
X107551401Y-103101505D01*
X107365839Y-102971573D01*
X107326974Y-102927255D01*
X107312964Y-102869999D01*
X107326975Y-102812742D01*
X107365837Y-102768428D01*
X107551401Y-102638495D01*
X107718495Y-102471401D01*
X107854035Y-102277830D01*
X107953903Y-102063663D01*
X108015063Y-101835408D01*
X108035659Y-101600000D01*
X108015063Y-101364592D01*
X107953903Y-101136337D01*
X107854035Y-100922171D01*
X107718495Y-100728599D01*
X107551401Y-100561505D01*
X107365839Y-100431573D01*
X107326975Y-100387257D01*
X107312964Y-100330000D01*
X107326975Y-100272743D01*
X107365839Y-100228426D01*
X107551401Y-100098495D01*
X107718495Y-99931401D01*
X107854035Y-99737830D01*
X107953903Y-99523663D01*
X108015063Y-99295408D01*
X108035659Y-99060000D01*
X108015063Y-98824592D01*
X107953903Y-98596337D01*
X107854035Y-98382171D01*
X107718495Y-98188599D01*
X107551401Y-98021505D01*
X107365839Y-97891573D01*
X107326976Y-97847257D01*
X107312965Y-97790000D01*
X107326976Y-97732743D01*
X107365839Y-97688426D01*
X107551401Y-97558495D01*
X107718495Y-97391401D01*
X107854035Y-97197830D01*
X107953903Y-96983663D01*
X108015063Y-96755408D01*
X108035659Y-96520000D01*
X108015063Y-96284592D01*
X107953903Y-96056337D01*
X107854035Y-95842171D01*
X107718495Y-95648599D01*
X107551401Y-95481505D01*
X107365839Y-95351573D01*
X107326975Y-95307257D01*
X107312964Y-95250000D01*
X107326975Y-95192743D01*
X107365839Y-95148426D01*
X107551401Y-95018495D01*
X107718495Y-94851401D01*
X107854035Y-94657830D01*
X107953903Y-94443663D01*
X108015063Y-94215408D01*
X108035659Y-93980000D01*
X108015063Y-93744592D01*
X107953903Y-93516337D01*
X107854035Y-93302171D01*
X107718495Y-93108599D01*
X107551401Y-92941505D01*
X107365839Y-92811573D01*
X107326974Y-92767255D01*
X107312964Y-92709999D01*
X107326975Y-92652742D01*
X107365837Y-92608428D01*
X107551401Y-92478495D01*
X107718495Y-92311401D01*
X107854035Y-92117830D01*
X107953903Y-91903663D01*
X108015063Y-91675408D01*
X108035659Y-91440000D01*
X108015063Y-91204592D01*
X107953903Y-90976337D01*
X107854035Y-90762171D01*
X107718495Y-90568599D01*
X107551401Y-90401505D01*
X107365839Y-90271573D01*
X107326975Y-90227257D01*
X107312964Y-90170000D01*
X107326975Y-90112743D01*
X107365839Y-90068426D01*
X107551401Y-89938495D01*
X107718495Y-89771401D01*
X107854035Y-89577830D01*
X107953903Y-89363663D01*
X108015063Y-89135408D01*
X108035659Y-88900000D01*
X108015063Y-88664592D01*
X107953903Y-88436337D01*
X107854035Y-88222171D01*
X107718495Y-88028599D01*
X107551401Y-87861505D01*
X107365839Y-87731573D01*
X107326975Y-87687257D01*
X107312964Y-87630000D01*
X107326975Y-87572743D01*
X107365839Y-87528426D01*
X107551401Y-87398495D01*
X107718495Y-87231401D01*
X107854035Y-87037830D01*
X107953903Y-86823663D01*
X108015063Y-86595408D01*
X108035659Y-86360000D01*
X108015063Y-86124592D01*
X107953903Y-85896337D01*
X107854035Y-85682171D01*
X107718495Y-85488599D01*
X107551401Y-85321505D01*
X107365839Y-85191573D01*
X107326975Y-85147257D01*
X107312964Y-85090000D01*
X107326975Y-85032743D01*
X107365839Y-84988426D01*
X107551401Y-84858495D01*
X107718495Y-84691401D01*
X107854035Y-84497830D01*
X107953903Y-84283663D01*
X108015063Y-84055408D01*
X108035659Y-83820000D01*
X108015063Y-83584592D01*
X107953903Y-83356337D01*
X107854035Y-83142171D01*
X107718495Y-82948599D01*
X107551401Y-82781505D01*
X107365839Y-82651573D01*
X107326975Y-82607257D01*
X107312964Y-82550000D01*
X107326975Y-82492743D01*
X107365839Y-82448426D01*
X107551401Y-82318495D01*
X107718495Y-82151401D01*
X107854035Y-81957830D01*
X107953903Y-81743663D01*
X108015063Y-81515408D01*
X108035659Y-81280000D01*
X108022992Y-81135214D01*
X115085214Y-81135214D01*
X115085214Y-84814786D01*
X124107642Y-84814786D01*
X124107642Y-81135214D01*
X115085214Y-81135214D01*
X108022992Y-81135214D01*
X108015063Y-81044592D01*
X107953903Y-80816337D01*
X107854035Y-80602171D01*
X107718495Y-80408599D01*
X107551401Y-80241505D01*
X107365839Y-80111573D01*
X107326976Y-80067257D01*
X107312965Y-80010000D01*
X107326976Y-79952743D01*
X107365839Y-79908426D01*
X107551401Y-79778495D01*
X107718495Y-79611401D01*
X107854035Y-79417830D01*
X107953903Y-79203663D01*
X108015063Y-78975408D01*
X108035659Y-78740000D01*
X108015063Y-78504592D01*
X107953903Y-78276337D01*
X107854035Y-78062171D01*
X107718495Y-77868599D01*
X107551401Y-77701505D01*
X107365839Y-77571573D01*
X107326975Y-77527257D01*
X107312964Y-77470000D01*
X107326975Y-77412743D01*
X107365839Y-77368426D01*
X107551401Y-77238495D01*
X107718495Y-77071401D01*
X107854035Y-76877830D01*
X107953903Y-76663663D01*
X108015063Y-76435408D01*
X108035659Y-76200000D01*
X108015063Y-75964592D01*
X107953903Y-75736337D01*
X107854035Y-75522171D01*
X107718495Y-75328599D01*
X107551401Y-75161505D01*
X107365839Y-75031573D01*
X107326975Y-74987257D01*
X107312964Y-74930000D01*
X107326975Y-74872743D01*
X107365839Y-74828426D01*
X107551401Y-74698495D01*
X107718495Y-74531401D01*
X107854035Y-74337830D01*
X107953903Y-74123663D01*
X108015063Y-73895408D01*
X108035659Y-73660000D01*
X108015063Y-73424592D01*
X107953903Y-73196337D01*
X107854035Y-72982171D01*
X107718495Y-72788599D01*
X107551401Y-72621505D01*
X107365839Y-72491573D01*
X107326976Y-72447257D01*
X107312965Y-72390000D01*
X107326976Y-72332743D01*
X107365839Y-72288426D01*
X107551401Y-72158495D01*
X107718495Y-71991401D01*
X107854035Y-71797830D01*
X107953903Y-71583663D01*
X108015063Y-71355408D01*
X108035659Y-71120000D01*
X108015063Y-70884592D01*
X107953903Y-70656337D01*
X107854035Y-70442171D01*
X107718495Y-70248599D01*
X107551401Y-70081505D01*
X107365839Y-69951573D01*
X107326975Y-69907257D01*
X107312964Y-69850000D01*
X107326975Y-69792743D01*
X107365839Y-69748426D01*
X107551401Y-69618495D01*
X107718495Y-69451401D01*
X107854035Y-69257830D01*
X107953903Y-69043663D01*
X108015063Y-68815408D01*
X108035659Y-68580000D01*
X108015063Y-68344592D01*
X107953903Y-68116337D01*
X107854035Y-67902171D01*
X107718495Y-67708599D01*
X107551401Y-67541505D01*
X107365839Y-67411573D01*
X107326975Y-67367257D01*
X107312964Y-67310000D01*
X107326975Y-67252743D01*
X107365839Y-67208426D01*
X107551401Y-67078495D01*
X107718495Y-66911401D01*
X107854035Y-66717830D01*
X107953903Y-66503663D01*
X108015063Y-66275408D01*
X108035659Y-66040000D01*
X108015063Y-65804592D01*
X107953903Y-65576337D01*
X107854035Y-65362171D01*
X107718495Y-65168599D01*
X107551401Y-65001505D01*
X107365839Y-64871573D01*
X107326976Y-64827257D01*
X107312965Y-64770000D01*
X107326976Y-64712743D01*
X107365839Y-64668426D01*
X107551401Y-64538495D01*
X107718495Y-64371401D01*
X107854035Y-64177830D01*
X107953903Y-63963663D01*
X108015063Y-63735408D01*
X108035659Y-63500000D01*
X108015063Y-63264592D01*
X107953903Y-63036337D01*
X107854035Y-62822171D01*
X107718495Y-62628599D01*
X107551401Y-62461505D01*
X107365839Y-62331573D01*
X107326974Y-62287255D01*
X107312964Y-62229999D01*
X107326975Y-62172742D01*
X107365837Y-62128428D01*
X107551401Y-61998495D01*
X107718495Y-61831401D01*
X107854035Y-61637830D01*
X107953903Y-61423663D01*
X108015063Y-61195408D01*
X108026043Y-61069900D01*
X108037189Y-61028306D01*
X108061887Y-60993032D01*
X108344919Y-60710000D01*
X130730000Y-60710000D01*
X131830000Y-60710000D01*
X131830000Y-59610000D01*
X132330000Y-59610000D01*
X132330000Y-60710000D01*
X133430000Y-60710000D01*
X133430000Y-60062176D01*
X133423597Y-60002624D01*
X133373352Y-59867910D01*
X133287188Y-59752811D01*
X133172089Y-59666647D01*
X133037375Y-59616402D01*
X132977824Y-59610000D01*
X132330000Y-59610000D01*
X131830000Y-59610000D01*
X131182176Y-59610000D01*
X131122624Y-59616402D01*
X130987910Y-59666647D01*
X130872811Y-59752811D01*
X130786647Y-59867910D01*
X130736402Y-60002624D01*
X130730000Y-60062176D01*
X130730000Y-60710000D01*
X108344919Y-60710000D01*
X112138101Y-56916818D01*
X112178329Y-56889939D01*
X112225782Y-56880500D01*
X152357245Y-56880500D01*
X152366660Y-56880858D01*
X152425476Y-56885337D01*
X152512260Y-56874284D01*
X152515366Y-56873927D01*
X152602438Y-56865074D01*
X152604117Y-56864547D01*
X152625578Y-56859853D01*
X152626516Y-56859733D01*
X152627328Y-56859630D01*
X152710190Y-56831305D01*
X152713032Y-56830373D01*
X152796588Y-56804159D01*
X152798127Y-56803304D01*
X152818203Y-56794386D01*
X152819872Y-56793816D01*
X152895359Y-56749378D01*
X152897950Y-56747897D01*
X152974502Y-56705409D01*
X152975838Y-56704261D01*
X152993713Y-56691480D01*
X152995227Y-56690590D01*
X153060168Y-56631916D01*
X153062449Y-56629907D01*
X153128895Y-56572866D01*
X153129971Y-56571475D01*
X153144903Y-56555361D01*
X153146213Y-56554179D01*
X153198028Y-56483614D01*
X153199841Y-56481209D01*
X153253448Y-56411958D01*
X153254224Y-56410375D01*
X153265607Y-56391585D01*
X153266649Y-56390167D01*
X153303195Y-56310625D01*
X153304476Y-56307929D01*
X153343060Y-56229271D01*
X153343503Y-56227559D01*
X153350871Y-56206864D01*
X153351605Y-56205268D01*
X153371401Y-56119958D01*
X153372119Y-56117035D01*
X153394063Y-56032285D01*
X153394152Y-56030524D01*
X153397204Y-56008766D01*
X153397602Y-56007053D01*
X153399818Y-55919553D01*
X153399932Y-55916523D01*
X153404369Y-55829064D01*
X153404101Y-55827319D01*
X153402711Y-55805397D01*
X153402756Y-55803637D01*
X153387318Y-55717506D01*
X153386803Y-55714404D01*
X153373557Y-55627936D01*
X153373556Y-55627929D01*
X153372942Y-55626273D01*
X153367168Y-55605079D01*
X153366858Y-55603347D01*
X153334385Y-55522053D01*
X153333284Y-55519192D01*
X153302886Y-55437113D01*
X153301953Y-55435616D01*
X153292029Y-55416016D01*
X153291377Y-55414383D01*
X153243228Y-55341325D01*
X153241572Y-55338743D01*
X153195252Y-55264429D01*
X153195251Y-55264428D01*
X153195250Y-55264426D01*
X153194627Y-55263771D01*
X153169347Y-55224337D01*
X153160500Y-55178338D01*
X153160500Y-43220491D01*
X153166239Y-43183205D01*
X153176335Y-43162730D01*
X153175983Y-43162566D01*
X153180568Y-43152734D01*
X153276739Y-42946496D01*
X153335635Y-42726692D01*
X153355468Y-42500000D01*
X153335635Y-42273308D01*
X153276739Y-42053504D01*
X153180568Y-41847266D01*
X153072924Y-41693533D01*
X153056239Y-41659699D01*
X153050500Y-41622412D01*
X153050500Y-37343839D01*
X153050540Y-37340697D01*
X153052756Y-37253238D01*
X153042351Y-37195185D01*
X153041042Y-37185853D01*
X153035074Y-37127162D01*
X153025967Y-37098137D01*
X153022223Y-37082886D01*
X153016857Y-37052943D01*
X152994976Y-36998165D01*
X152991816Y-36989289D01*
X152979764Y-36950878D01*
X152974159Y-36933012D01*
X152959395Y-36906412D01*
X152952660Y-36892231D01*
X152941377Y-36863983D01*
X152908917Y-36814731D01*
X152904036Y-36806674D01*
X152895200Y-36790755D01*
X152875409Y-36755098D01*
X152855582Y-36732003D01*
X152846146Y-36719488D01*
X152829402Y-36694081D01*
X152829400Y-36694079D01*
X152829399Y-36694077D01*
X152787693Y-36652372D01*
X152781287Y-36645460D01*
X152742864Y-36600702D01*
X152718804Y-36582078D01*
X152707026Y-36571705D01*
X151607639Y-35472318D01*
X150416818Y-34281498D01*
X150389939Y-34241271D01*
X150380500Y-34193818D01*
X150380500Y-30429260D01*
X150365869Y-30285382D01*
X150365074Y-30277562D01*
X150340018Y-30197702D01*
X150305286Y-30087003D01*
X150299599Y-30049882D01*
X150299599Y-29632030D01*
X150299599Y-29632027D01*
X150293191Y-29572417D01*
X150242896Y-29437569D01*
X150156646Y-29322354D01*
X150041431Y-29236104D01*
X149906583Y-29185809D01*
X149846973Y-29179400D01*
X149846969Y-29179400D01*
X148913030Y-29179400D01*
X148853415Y-29185809D01*
X148718569Y-29236104D01*
X148603354Y-29322354D01*
X148517104Y-29437568D01*
X148466809Y-29572416D01*
X148460400Y-29632031D01*
X148460400Y-30060388D01*
X148450351Y-30109287D01*
X148420460Y-30178942D01*
X148398587Y-30285383D01*
X148379500Y-30378261D01*
X148379500Y-34645321D01*
X148379460Y-34648463D01*
X148377242Y-34735962D01*
X148387648Y-34794020D01*
X148388957Y-34803349D01*
X148394926Y-34862038D01*
X148404033Y-34891067D01*
X148407772Y-34906302D01*
X148413141Y-34936252D01*
X148435020Y-34991025D01*
X148438180Y-34999900D01*
X148455841Y-35056188D01*
X148470607Y-35082791D01*
X148477337Y-35096964D01*
X148488622Y-35125217D01*
X148521080Y-35174467D01*
X148525961Y-35182523D01*
X148554590Y-35234101D01*
X148574404Y-35257181D01*
X148583856Y-35269716D01*
X148600599Y-35295120D01*
X148642300Y-35336821D01*
X148648705Y-35343732D01*
X148687134Y-35388496D01*
X148711193Y-35407119D01*
X148722972Y-35417493D01*
X149882749Y-36577270D01*
X151013181Y-37707701D01*
X151040061Y-37747929D01*
X151049500Y-37795382D01*
X151049500Y-41622412D01*
X151043761Y-41659699D01*
X151027075Y-41693533D01*
X150991322Y-41744595D01*
X150919432Y-41847265D01*
X150823261Y-42053502D01*
X150764364Y-42273310D01*
X150744531Y-42500000D01*
X150764364Y-42726689D01*
X150823261Y-42946497D01*
X150919432Y-43152735D01*
X151049950Y-43339136D01*
X151049952Y-43339138D01*
X151049953Y-43339139D01*
X151123183Y-43412369D01*
X151150061Y-43452595D01*
X151159500Y-43500048D01*
X151159500Y-54755500D01*
X151142887Y-54817500D01*
X151097500Y-54862887D01*
X151035500Y-54879500D01*
X111774279Y-54879500D01*
X111771137Y-54879460D01*
X111683637Y-54877242D01*
X111625580Y-54887648D01*
X111616251Y-54888957D01*
X111557562Y-54894926D01*
X111528527Y-54904035D01*
X111513290Y-54907774D01*
X111483350Y-54913141D01*
X111483347Y-54913141D01*
X111483347Y-54913142D01*
X111473317Y-54917148D01*
X111428567Y-54935022D01*
X111419698Y-54938179D01*
X111363410Y-54955841D01*
X111336809Y-54970605D01*
X111322639Y-54977335D01*
X111294385Y-54988622D01*
X111245121Y-55021087D01*
X111237070Y-55025964D01*
X111185498Y-55054590D01*
X111162414Y-55074407D01*
X111149887Y-55083853D01*
X111124481Y-55100598D01*
X111082775Y-55142303D01*
X111075868Y-55148704D01*
X111031103Y-55187135D01*
X111012480Y-55211193D01*
X111002108Y-55222969D01*
X106646969Y-59578108D01*
X106611693Y-59602809D01*
X106570097Y-59613955D01*
X106444592Y-59624936D01*
X106216336Y-59686097D01*
X106002170Y-59785965D01*
X105808598Y-59921505D01*
X105641505Y-60088598D01*
X105505965Y-60282170D01*
X105406097Y-60496336D01*
X105344936Y-60724592D01*
X105324340Y-60960000D01*
X105344936Y-61195407D01*
X105358252Y-61245101D01*
X105406097Y-61423663D01*
X105505965Y-61637830D01*
X105641505Y-61831401D01*
X105808599Y-61998495D01*
X105994160Y-62128426D01*
X106033024Y-62172743D01*
X106047035Y-62230000D01*
X106033024Y-62287257D01*
X105994159Y-62331575D01*
X105808595Y-62461508D01*
X105641505Y-62628598D01*
X105505965Y-62822170D01*
X105406097Y-63036336D01*
X105344936Y-63264592D01*
X105324340Y-63500000D01*
X105344936Y-63735407D01*
X105355988Y-63776652D01*
X105406097Y-63963663D01*
X105505965Y-64177830D01*
X105641505Y-64371401D01*
X105808599Y-64538495D01*
X105994160Y-64668426D01*
X106033024Y-64712743D01*
X106047035Y-64770000D01*
X106033024Y-64827257D01*
X105994159Y-64871575D01*
X105808595Y-65001508D01*
X105641505Y-65168598D01*
X105505965Y-65362170D01*
X105406097Y-65576336D01*
X105344936Y-65804592D01*
X105324340Y-66039999D01*
X105344936Y-66275407D01*
X105389709Y-66442502D01*
X105406097Y-66503663D01*
X105505965Y-66717830D01*
X105641505Y-66911401D01*
X105808599Y-67078495D01*
X105994160Y-67208426D01*
X106033024Y-67252743D01*
X106047035Y-67310000D01*
X106033024Y-67367257D01*
X105994158Y-67411575D01*
X105866487Y-67500972D01*
X105808595Y-67541508D01*
X105641505Y-67708598D01*
X105505965Y-67902170D01*
X105406097Y-68116336D01*
X105344936Y-68344592D01*
X105324340Y-68579999D01*
X105344936Y-68815407D01*
X105376593Y-68933553D01*
X105406097Y-69043663D01*
X105505965Y-69257830D01*
X105641505Y-69451401D01*
X105808599Y-69618495D01*
X105994160Y-69748426D01*
X106033024Y-69792743D01*
X106047035Y-69850000D01*
X106033024Y-69907257D01*
X105994158Y-69951575D01*
X105825222Y-70069866D01*
X105808595Y-70081508D01*
X105641505Y-70248598D01*
X105505965Y-70442170D01*
X105406097Y-70656336D01*
X105344936Y-70884592D01*
X105324340Y-71119999D01*
X105344936Y-71355407D01*
X105364013Y-71426602D01*
X105406097Y-71583663D01*
X105505965Y-71797830D01*
X105641505Y-71991401D01*
X105808599Y-72158495D01*
X105994160Y-72288426D01*
X106033024Y-72332743D01*
X106047035Y-72390000D01*
X106033024Y-72447257D01*
X105994158Y-72491575D01*
X105848288Y-72593715D01*
X105808595Y-72621508D01*
X105641505Y-72788598D01*
X105505965Y-72982170D01*
X105406097Y-73196336D01*
X105344936Y-73424592D01*
X105324340Y-73660000D01*
X105344936Y-73895407D01*
X105389709Y-74062501D01*
X105406097Y-74123663D01*
X105505965Y-74337830D01*
X105641505Y-74531401D01*
X105808599Y-74698495D01*
X105994160Y-74828426D01*
X106033024Y-74872743D01*
X106047035Y-74930000D01*
X106033024Y-74987257D01*
X105994159Y-75031575D01*
X105808595Y-75161508D01*
X105641505Y-75328598D01*
X105505965Y-75522170D01*
X105406097Y-75736336D01*
X105344936Y-75964592D01*
X105324340Y-76199999D01*
X105344936Y-76435407D01*
X105380061Y-76566496D01*
X105406097Y-76663663D01*
X105505965Y-76877830D01*
X105641505Y-77071401D01*
X105808599Y-77238495D01*
X105994160Y-77368426D01*
X106033024Y-77412743D01*
X106047035Y-77470000D01*
X106033024Y-77527257D01*
X105994159Y-77571575D01*
X105808595Y-77701508D01*
X105641505Y-77868598D01*
X105505965Y-78062170D01*
X105406097Y-78276336D01*
X105344936Y-78504592D01*
X105324340Y-78740000D01*
X105344936Y-78975407D01*
X105389709Y-79142501D01*
X105406097Y-79203663D01*
X105505965Y-79417830D01*
X105641505Y-79611401D01*
X105808599Y-79778495D01*
X105994160Y-79908426D01*
X106033024Y-79952743D01*
X106047035Y-80010000D01*
X106033024Y-80067257D01*
X105994159Y-80111575D01*
X105808595Y-80241508D01*
X105641505Y-80408598D01*
X105505965Y-80602170D01*
X105406097Y-80816336D01*
X105344936Y-81044592D01*
X105324340Y-81279999D01*
X105344936Y-81515407D01*
X105389709Y-81682502D01*
X105406097Y-81743663D01*
X105505965Y-81957830D01*
X105641505Y-82151401D01*
X105808599Y-82318495D01*
X105994160Y-82448426D01*
X106033024Y-82492743D01*
X106047035Y-82550000D01*
X106033024Y-82607257D01*
X105994159Y-82651575D01*
X105808595Y-82781508D01*
X105641505Y-82948598D01*
X105505965Y-83142170D01*
X105406097Y-83356336D01*
X105344936Y-83584592D01*
X105324340Y-83820000D01*
X105344936Y-84055407D01*
X105360718Y-84114306D01*
X105406097Y-84283663D01*
X105505965Y-84497830D01*
X105641505Y-84691401D01*
X105808599Y-84858495D01*
X105994160Y-84988426D01*
X106033024Y-85032743D01*
X106047035Y-85090000D01*
X106033024Y-85147257D01*
X105994159Y-85191575D01*
X105808595Y-85321508D01*
X105641505Y-85488598D01*
X105505965Y-85682170D01*
X105406097Y-85896336D01*
X105344936Y-86124592D01*
X105324340Y-86360000D01*
X105344936Y-86595407D01*
X105383171Y-86738102D01*
X105406097Y-86823663D01*
X105505965Y-87037830D01*
X105641505Y-87231401D01*
X105808599Y-87398495D01*
X105994160Y-87528426D01*
X106033024Y-87572743D01*
X106047035Y-87630000D01*
X106033024Y-87687257D01*
X105994159Y-87731575D01*
X105808595Y-87861508D01*
X105641505Y-88028598D01*
X105505965Y-88222170D01*
X105406097Y-88436336D01*
X105344936Y-88664592D01*
X105324340Y-88899999D01*
X105344936Y-89135407D01*
X105389709Y-89302501D01*
X105406097Y-89363663D01*
X105505965Y-89577830D01*
X105641505Y-89771401D01*
X105808599Y-89938495D01*
X105994160Y-90068426D01*
X106033024Y-90112743D01*
X106047035Y-90170000D01*
X106033024Y-90227257D01*
X105994159Y-90271575D01*
X105808595Y-90401508D01*
X105641505Y-90568598D01*
X105505965Y-90762170D01*
X105406097Y-90976336D01*
X105344936Y-91204592D01*
X105324340Y-91440000D01*
X105344936Y-91675407D01*
X105371657Y-91775131D01*
X105406097Y-91903663D01*
X105505965Y-92117830D01*
X105641505Y-92311401D01*
X105808599Y-92478495D01*
X105994160Y-92608426D01*
X106033024Y-92652743D01*
X106047035Y-92710000D01*
X106033024Y-92767257D01*
X105994159Y-92811575D01*
X105808595Y-92941508D01*
X105641505Y-93108598D01*
X105505965Y-93302170D01*
X105406097Y-93516336D01*
X105344936Y-93744592D01*
X105324340Y-93979999D01*
X105344936Y-94215407D01*
X105383171Y-94358101D01*
X105406097Y-94443663D01*
X105505965Y-94657830D01*
X105641505Y-94851401D01*
X105808599Y-95018495D01*
X105994160Y-95148426D01*
X106033024Y-95192743D01*
X106047035Y-95250000D01*
X106033024Y-95307257D01*
X105994159Y-95351575D01*
X105808595Y-95481508D01*
X105641505Y-95648598D01*
X105505965Y-95842170D01*
X105406097Y-96056336D01*
X105344936Y-96284592D01*
X105324340Y-96520000D01*
X105344936Y-96755407D01*
X105389709Y-96922501D01*
X105406097Y-96983663D01*
X105505965Y-97197830D01*
X105641505Y-97391401D01*
X105808599Y-97558495D01*
X105994160Y-97688426D01*
X106033024Y-97732743D01*
X106047035Y-97790000D01*
X106033024Y-97847257D01*
X105994159Y-97891575D01*
X105808595Y-98021508D01*
X105641505Y-98188598D01*
X105505965Y-98382170D01*
X105406097Y-98596336D01*
X105344936Y-98824592D01*
X105324340Y-99059999D01*
X105344936Y-99295407D01*
X105389709Y-99462502D01*
X105406097Y-99523663D01*
X105505965Y-99737830D01*
X105641505Y-99931401D01*
X105808599Y-100098495D01*
X105994160Y-100228426D01*
X106033024Y-100272743D01*
X106047035Y-100330000D01*
X106033024Y-100387257D01*
X105994159Y-100431575D01*
X105808595Y-100561508D01*
X105641505Y-100728598D01*
X105505965Y-100922170D01*
X105406097Y-101136336D01*
X105344936Y-101364592D01*
X105324340Y-101600000D01*
X105344936Y-101835407D01*
X105389709Y-102002501D01*
X105406097Y-102063663D01*
X105505965Y-102277830D01*
X105641505Y-102471401D01*
X105808599Y-102638495D01*
X105994160Y-102768426D01*
X106033024Y-102812743D01*
X106047035Y-102870000D01*
X106033024Y-102927257D01*
X105994159Y-102971575D01*
X105808595Y-103101508D01*
X105641505Y-103268598D01*
X105505965Y-103462170D01*
X105406097Y-103676336D01*
X105344936Y-103904592D01*
X105324340Y-104140000D01*
X105344936Y-104375407D01*
X105355988Y-104416652D01*
X105406097Y-104603663D01*
X105505965Y-104817830D01*
X105641505Y-105011401D01*
X105641508Y-105011404D01*
X105763430Y-105133326D01*
X105794726Y-105186072D01*
X105796915Y-105247365D01*
X105769462Y-105302209D01*
X105719083Y-105337189D01*
X105587669Y-105386204D01*
X105472454Y-105472454D01*
X105386204Y-105587668D01*
X105335909Y-105722516D01*
X105329500Y-105782130D01*
X105329500Y-107577869D01*
X105335909Y-107637483D01*
X105386204Y-107772331D01*
X105472454Y-107887546D01*
X105587669Y-107973796D01*
X105602477Y-107979319D01*
X105657338Y-108019780D01*
X105682523Y-108083126D01*
X105670419Y-108150211D01*
X105624685Y-108200762D01*
X105559142Y-108219500D01*
X71585783Y-108219500D01*
X71538330Y-108210061D01*
X71498102Y-108183181D01*
X67076819Y-103761899D01*
X67049939Y-103721671D01*
X67040500Y-103674218D01*
X67040500Y-99535214D01*
X71485214Y-99535214D01*
X71485214Y-103214786D01*
X87507641Y-103214786D01*
X87507641Y-99535214D01*
X71485214Y-99535214D01*
X67040500Y-99535214D01*
X67040500Y-86825783D01*
X67049939Y-86778330D01*
X67076819Y-86738102D01*
X68361519Y-85453402D01*
X69668520Y-84146399D01*
X69724107Y-84114306D01*
X69788295Y-84114306D01*
X69843882Y-84146400D01*
X69875976Y-84201987D01*
X69893261Y-84266497D01*
X69989432Y-84472735D01*
X70119953Y-84659140D01*
X70280859Y-84820046D01*
X70467263Y-84950566D01*
X70467266Y-84950568D01*
X70525275Y-84977618D01*
X70577450Y-85023375D01*
X70596869Y-85090000D01*
X70577450Y-85156625D01*
X70525275Y-85202382D01*
X70467263Y-85229433D01*
X70280859Y-85359953D01*
X70119953Y-85520859D01*
X69989432Y-85707264D01*
X69893261Y-85913502D01*
X69834364Y-86133310D01*
X69814531Y-86359999D01*
X69834364Y-86586689D01*
X69893261Y-86806497D01*
X69989432Y-87012735D01*
X70119953Y-87199140D01*
X70280859Y-87360046D01*
X70467263Y-87490566D01*
X70467266Y-87490568D01*
X70525275Y-87517618D01*
X70577450Y-87563375D01*
X70596869Y-87630000D01*
X70577450Y-87696625D01*
X70525275Y-87742382D01*
X70467263Y-87769433D01*
X70280859Y-87899953D01*
X70119953Y-88060859D01*
X69989432Y-88247264D01*
X69893261Y-88453502D01*
X69834364Y-88673310D01*
X69814531Y-88899999D01*
X69834364Y-89126689D01*
X69893261Y-89346497D01*
X69989432Y-89552735D01*
X70119953Y-89739140D01*
X70280859Y-89900046D01*
X70467263Y-90030566D01*
X70467266Y-90030568D01*
X70525275Y-90057618D01*
X70577450Y-90103375D01*
X70596869Y-90170000D01*
X70577450Y-90236625D01*
X70525275Y-90282382D01*
X70467263Y-90309433D01*
X70280859Y-90439953D01*
X70119953Y-90600859D01*
X69989432Y-90787264D01*
X69893261Y-90993502D01*
X69834364Y-91213310D01*
X69814531Y-91439999D01*
X69834364Y-91666689D01*
X69893261Y-91886497D01*
X69989432Y-92092735D01*
X70119953Y-92279140D01*
X70280859Y-92440046D01*
X70335765Y-92478491D01*
X70467266Y-92570568D01*
X70525273Y-92597617D01*
X70577449Y-92643373D01*
X70596869Y-92709997D01*
X70577451Y-92776622D01*
X70525276Y-92822380D01*
X70467266Y-92849431D01*
X70280859Y-92979953D01*
X70119953Y-93140859D01*
X69989432Y-93327264D01*
X69893261Y-93533502D01*
X69834364Y-93753310D01*
X69814531Y-93979999D01*
X69834364Y-94206689D01*
X69893261Y-94426497D01*
X69989432Y-94632735D01*
X70119953Y-94819140D01*
X70280859Y-94980046D01*
X70467264Y-95110567D01*
X70467265Y-95110567D01*
X70467266Y-95110568D01*
X70673504Y-95206739D01*
X70893308Y-95265635D01*
X71120000Y-95285468D01*
X71346692Y-95265635D01*
X71566496Y-95206739D01*
X71772734Y-95110568D01*
X71959139Y-94980047D01*
X72120047Y-94819139D01*
X72250568Y-94632734D01*
X72346739Y-94426496D01*
X72405635Y-94206692D01*
X72425468Y-93980000D01*
X72405635Y-93753308D01*
X72346739Y-93533504D01*
X72250568Y-93327266D01*
X72233417Y-93302772D01*
X72120046Y-93140859D01*
X71959140Y-92979953D01*
X71772732Y-92849430D01*
X71714724Y-92822380D01*
X71662549Y-92776623D01*
X71643130Y-92709997D01*
X71662550Y-92643373D01*
X71714721Y-92597619D01*
X71772734Y-92570568D01*
X71959139Y-92440047D01*
X72120047Y-92279139D01*
X72250568Y-92092734D01*
X72346739Y-91886496D01*
X72405635Y-91666692D01*
X72425468Y-91440000D01*
X72405635Y-91213308D01*
X72346739Y-90993504D01*
X72250568Y-90787266D01*
X72232996Y-90762171D01*
X72120046Y-90600859D01*
X71959140Y-90439953D01*
X71772733Y-90309431D01*
X71714725Y-90282382D01*
X71662549Y-90236625D01*
X71643129Y-90170000D01*
X71662549Y-90103375D01*
X71714725Y-90057618D01*
X71772734Y-90030568D01*
X71959139Y-89900047D01*
X72120047Y-89739139D01*
X72250568Y-89552734D01*
X72346739Y-89346496D01*
X72405635Y-89126692D01*
X72425468Y-88900000D01*
X72405635Y-88673308D01*
X72346739Y-88453504D01*
X72250568Y-88247266D01*
X72232996Y-88222171D01*
X72120046Y-88060859D01*
X71959140Y-87899953D01*
X71772733Y-87769431D01*
X71714725Y-87742382D01*
X71662549Y-87696625D01*
X71643129Y-87630000D01*
X71662549Y-87563375D01*
X71714725Y-87517618D01*
X71772734Y-87490568D01*
X71959139Y-87360047D01*
X72120047Y-87199139D01*
X72250568Y-87012734D01*
X72346739Y-86806496D01*
X72405635Y-86586692D01*
X72425468Y-86360000D01*
X72405635Y-86133308D01*
X72346739Y-85913504D01*
X72250568Y-85707266D01*
X72232996Y-85682171D01*
X72120046Y-85520859D01*
X71959140Y-85359953D01*
X71772733Y-85229431D01*
X71714725Y-85202382D01*
X71662549Y-85156625D01*
X71643129Y-85090000D01*
X71662549Y-85023375D01*
X71714725Y-84977618D01*
X71772734Y-84950568D01*
X71959139Y-84820047D01*
X72120047Y-84659139D01*
X72250568Y-84472734D01*
X72346739Y-84266496D01*
X72405635Y-84046692D01*
X72425468Y-83820000D01*
X72405635Y-83593308D01*
X72346739Y-83373504D01*
X72250568Y-83167266D01*
X72232996Y-83142171D01*
X72120046Y-82980859D01*
X71959140Y-82819953D01*
X71772733Y-82689431D01*
X71714725Y-82662382D01*
X71662549Y-82616625D01*
X71643129Y-82550000D01*
X71662549Y-82483375D01*
X71714725Y-82437618D01*
X71772734Y-82410568D01*
X71959139Y-82280047D01*
X72120047Y-82119139D01*
X72250568Y-81932734D01*
X72346739Y-81726496D01*
X72405635Y-81506692D01*
X72425468Y-81280000D01*
X72405635Y-81053308D01*
X72346739Y-80833504D01*
X72250568Y-80627266D01*
X72232996Y-80602171D01*
X72120046Y-80440859D01*
X71959140Y-80279953D01*
X71772736Y-80149433D01*
X71714723Y-80122381D01*
X71662548Y-80076623D01*
X71643129Y-80009997D01*
X71662549Y-79943372D01*
X71714721Y-79897619D01*
X71772734Y-79870568D01*
X71959139Y-79740047D01*
X72120047Y-79579139D01*
X72250568Y-79392734D01*
X72346739Y-79186496D01*
X72405635Y-78966692D01*
X72425468Y-78740000D01*
X72405635Y-78513308D01*
X72346739Y-78293504D01*
X72250568Y-78087266D01*
X72232996Y-78062171D01*
X72120046Y-77900859D01*
X71959140Y-77739953D01*
X71772733Y-77609431D01*
X71714725Y-77582382D01*
X71662549Y-77536625D01*
X71643129Y-77470000D01*
X71662549Y-77403375D01*
X71714725Y-77357618D01*
X71738055Y-77346739D01*
X71772734Y-77330568D01*
X71959139Y-77200047D01*
X72120047Y-77039139D01*
X72250568Y-76852734D01*
X72346739Y-76646496D01*
X72405635Y-76426692D01*
X72425468Y-76200000D01*
X72405635Y-75973308D01*
X72346739Y-75753504D01*
X72250568Y-75547266D01*
X72247559Y-75542969D01*
X72120046Y-75360859D01*
X71959140Y-75199953D01*
X71772732Y-75069430D01*
X71714724Y-75042380D01*
X71662549Y-74996623D01*
X71643130Y-74929997D01*
X71662550Y-74863373D01*
X71714721Y-74817619D01*
X71772734Y-74790568D01*
X71959139Y-74660047D01*
X72120047Y-74499139D01*
X72250568Y-74312734D01*
X72346739Y-74106496D01*
X72405635Y-73886692D01*
X72425468Y-73660000D01*
X72405635Y-73433308D01*
X72346739Y-73213504D01*
X72250568Y-73007266D01*
X72247559Y-73002969D01*
X72120046Y-72820859D01*
X71959140Y-72659953D01*
X71772736Y-72529433D01*
X71714725Y-72502382D01*
X71714132Y-72502105D01*
X71661958Y-72456348D01*
X71642539Y-72389723D01*
X71661959Y-72323098D01*
X71714135Y-72277342D01*
X71772479Y-72250135D01*
X71958819Y-72119658D01*
X72119658Y-71958819D01*
X72250134Y-71772480D01*
X72346266Y-71566326D01*
X72398872Y-71370000D01*
X69841128Y-71370000D01*
X69893733Y-71566326D01*
X69989865Y-71772480D01*
X70120341Y-71958819D01*
X70281180Y-72119658D01*
X70467519Y-72250134D01*
X70525865Y-72277342D01*
X70578040Y-72323099D01*
X70597460Y-72389723D01*
X70578041Y-72456348D01*
X70525866Y-72502105D01*
X70467267Y-72529430D01*
X70313535Y-72637075D01*
X70279699Y-72653761D01*
X70242412Y-72659500D01*
X61750417Y-72659500D01*
X61713130Y-72653761D01*
X61679294Y-72637075D01*
X61587640Y-72572898D01*
X61389331Y-72480425D01*
X61177974Y-72423792D01*
X60960000Y-72404722D01*
X60742025Y-72423792D01*
X60530668Y-72480425D01*
X60332361Y-72572898D01*
X60240707Y-72637075D01*
X60206871Y-72653761D01*
X60169584Y-72659500D01*
X53845484Y-72659500D01*
X53781619Y-72641789D01*
X53735999Y-72593715D01*
X53721654Y-72529011D01*
X53742683Y-72466160D01*
X53793079Y-72423118D01*
X53992480Y-72330134D01*
X54065472Y-72279025D01*
X53340001Y-71553553D01*
X53340000Y-71553553D01*
X52614526Y-72279025D01*
X52614526Y-72279026D01*
X52687515Y-72330133D01*
X52886921Y-72423118D01*
X52937317Y-72466160D01*
X52958346Y-72529011D01*
X52944001Y-72593715D01*
X52898381Y-72641789D01*
X52834516Y-72659500D01*
X50734238Y-72659500D01*
X50731096Y-72659460D01*
X50643635Y-72657243D01*
X50585581Y-72667648D01*
X50576253Y-72668957D01*
X50517561Y-72674926D01*
X50488527Y-72684035D01*
X50473288Y-72687775D01*
X50443345Y-72693142D01*
X50388568Y-72715021D01*
X50379698Y-72718179D01*
X50323410Y-72735841D01*
X50296809Y-72750605D01*
X50282639Y-72757335D01*
X50254385Y-72768622D01*
X50205121Y-72801087D01*
X50197070Y-72805964D01*
X50145498Y-72834590D01*
X50122414Y-72854407D01*
X50109887Y-72863853D01*
X50084481Y-72880598D01*
X50042775Y-72922303D01*
X50035868Y-72928704D01*
X49991103Y-72967135D01*
X49972480Y-72991193D01*
X49962108Y-73002969D01*
X48171965Y-74793112D01*
X48136690Y-74817813D01*
X48095093Y-74828958D01*
X48037080Y-74834035D01*
X48033308Y-74834365D01*
X47813503Y-74893261D01*
X47607264Y-74989432D01*
X47420859Y-75119953D01*
X47259953Y-75280859D01*
X47129432Y-75467264D01*
X47033261Y-75673502D01*
X46974364Y-75893310D01*
X46954531Y-76120000D01*
X43090500Y-76120000D01*
X43090500Y-72199026D01*
X47534526Y-72199026D01*
X47607515Y-72250133D01*
X47813673Y-72346266D01*
X48033397Y-72405141D01*
X48260000Y-72424966D01*
X48486602Y-72405141D01*
X48706326Y-72346266D01*
X48912480Y-72250134D01*
X48985472Y-72199025D01*
X48260001Y-71473553D01*
X48260000Y-71473553D01*
X47534526Y-72199025D01*
X47534526Y-72199026D01*
X43090500Y-72199026D01*
X43090500Y-71120000D01*
X46955033Y-71120000D01*
X46974858Y-71346602D01*
X47033733Y-71566326D01*
X47129866Y-71772484D01*
X47180972Y-71845471D01*
X47180974Y-71845472D01*
X47906446Y-71120001D01*
X48613553Y-71120001D01*
X49339025Y-71845472D01*
X49390134Y-71772480D01*
X49486266Y-71566326D01*
X49545141Y-71346602D01*
X49557967Y-71200000D01*
X52035033Y-71200000D01*
X52054858Y-71426602D01*
X52113733Y-71646326D01*
X52209866Y-71852484D01*
X52260972Y-71925471D01*
X52260974Y-71925472D01*
X52986446Y-71200001D01*
X53693553Y-71200001D01*
X54419025Y-71925472D01*
X54470134Y-71852480D01*
X54566266Y-71646326D01*
X54625141Y-71426602D01*
X54644966Y-71200000D01*
X54625141Y-70973397D01*
X54566266Y-70753673D01*
X54470133Y-70547515D01*
X54419025Y-70474526D01*
X53693553Y-71200000D01*
X53693553Y-71200001D01*
X52986446Y-71200001D01*
X52986446Y-71200000D01*
X52260973Y-70474526D01*
X52260973Y-70474527D01*
X52209865Y-70547516D01*
X52113733Y-70753672D01*
X52054858Y-70973397D01*
X52035033Y-71200000D01*
X49557967Y-71200000D01*
X49564966Y-71120000D01*
X49545141Y-70893397D01*
X49486266Y-70673673D01*
X49390133Y-70467515D01*
X49339025Y-70394526D01*
X48613553Y-71120000D01*
X48613553Y-71120001D01*
X47906446Y-71120001D01*
X47906446Y-71120000D01*
X47180973Y-70394526D01*
X47180973Y-70394527D01*
X47129865Y-70467516D01*
X47033733Y-70673672D01*
X46974858Y-70893397D01*
X46955033Y-71120000D01*
X43090500Y-71120000D01*
X43090500Y-70040973D01*
X47534526Y-70040973D01*
X48260000Y-70766446D01*
X48260001Y-70766446D01*
X48905473Y-70120973D01*
X52614526Y-70120973D01*
X53340000Y-70846446D01*
X53340001Y-70846446D01*
X54065472Y-70120974D01*
X54065471Y-70120972D01*
X53992484Y-70069866D01*
X53786326Y-69973733D01*
X53566602Y-69914858D01*
X53340000Y-69895033D01*
X53113397Y-69914858D01*
X52893672Y-69973733D01*
X52687516Y-70069865D01*
X52614527Y-70120973D01*
X52614526Y-70120973D01*
X48905473Y-70120973D01*
X48985472Y-70040974D01*
X48985471Y-70040972D01*
X48912484Y-69989866D01*
X48706326Y-69893733D01*
X48486602Y-69834858D01*
X48260000Y-69815033D01*
X48033397Y-69834858D01*
X47813672Y-69893733D01*
X47607516Y-69989865D01*
X47534527Y-70040973D01*
X47534526Y-70040973D01*
X43090500Y-70040973D01*
X43090500Y-69659026D01*
X60234526Y-69659026D01*
X60307515Y-69710133D01*
X60513673Y-69806266D01*
X60733397Y-69865141D01*
X60960000Y-69884966D01*
X61186602Y-69865141D01*
X61406326Y-69806266D01*
X61612480Y-69710134D01*
X61685471Y-69659026D01*
X65314526Y-69659026D01*
X65387515Y-69710133D01*
X65593673Y-69806266D01*
X65813397Y-69865141D01*
X66040000Y-69884966D01*
X66266602Y-69865141D01*
X66486326Y-69806266D01*
X66692480Y-69710134D01*
X66765472Y-69659025D01*
X66040001Y-68933553D01*
X66040000Y-68933553D01*
X65314526Y-69659025D01*
X65314526Y-69659026D01*
X61685471Y-69659026D01*
X61685472Y-69659025D01*
X60960001Y-68933553D01*
X60960000Y-68933553D01*
X60234526Y-69659025D01*
X60234526Y-69659026D01*
X43090500Y-69659026D01*
X43090500Y-68579999D01*
X59655033Y-68579999D01*
X59674858Y-68806602D01*
X59733733Y-69026326D01*
X59829866Y-69232484D01*
X59880972Y-69305471D01*
X59880974Y-69305472D01*
X60606446Y-68580001D01*
X61313553Y-68580001D01*
X62039025Y-69305472D01*
X62090134Y-69232480D01*
X62186266Y-69026326D01*
X62245141Y-68806602D01*
X62264966Y-68579999D01*
X64735033Y-68579999D01*
X64754858Y-68806602D01*
X64813733Y-69026326D01*
X64909866Y-69232484D01*
X64960972Y-69305471D01*
X64960974Y-69305472D01*
X65686446Y-68580001D01*
X66393553Y-68580001D01*
X67119025Y-69305472D01*
X67170134Y-69232480D01*
X67266266Y-69026326D01*
X67325141Y-68806602D01*
X67344966Y-68579999D01*
X67325141Y-68353397D01*
X67266266Y-68133673D01*
X67170133Y-67927515D01*
X67119025Y-67854526D01*
X66393553Y-68580000D01*
X66393553Y-68580001D01*
X65686446Y-68580001D01*
X65686446Y-68580000D01*
X64960973Y-67854526D01*
X64960973Y-67854527D01*
X64909865Y-67927516D01*
X64813733Y-68133672D01*
X64754858Y-68353397D01*
X64735033Y-68579999D01*
X62264966Y-68579999D01*
X62245141Y-68353397D01*
X62186266Y-68133673D01*
X62090133Y-67927515D01*
X62039025Y-67854526D01*
X61313553Y-68580000D01*
X61313553Y-68580001D01*
X60606446Y-68580001D01*
X60606446Y-68580000D01*
X59880973Y-67854526D01*
X59880973Y-67854527D01*
X59829865Y-67927516D01*
X59733733Y-68133672D01*
X59674858Y-68353397D01*
X59655033Y-68579999D01*
X43090500Y-68579999D01*
X43090500Y-67500973D01*
X60234526Y-67500973D01*
X60960000Y-68226446D01*
X60960001Y-68226446D01*
X61685472Y-67500974D01*
X61685471Y-67500973D01*
X65314526Y-67500973D01*
X66040000Y-68226446D01*
X66040001Y-68226446D01*
X66765472Y-67500974D01*
X66765471Y-67500972D01*
X66692484Y-67449866D01*
X66486326Y-67353733D01*
X66266602Y-67294858D01*
X66039999Y-67275033D01*
X65813397Y-67294858D01*
X65593672Y-67353733D01*
X65387516Y-67449865D01*
X65314527Y-67500973D01*
X65314526Y-67500973D01*
X61685471Y-67500973D01*
X61685471Y-67500972D01*
X61612484Y-67449866D01*
X61406326Y-67353733D01*
X61186602Y-67294858D01*
X60959999Y-67275033D01*
X60733397Y-67294858D01*
X60513672Y-67353733D01*
X60307516Y-67449865D01*
X60234527Y-67500973D01*
X60234526Y-67500973D01*
X43090500Y-67500973D01*
X43090500Y-66290000D01*
X52061128Y-66290000D01*
X52113733Y-66486326D01*
X52209865Y-66692480D01*
X52340341Y-66878819D01*
X52501180Y-67039658D01*
X52687519Y-67170134D01*
X52893673Y-67266266D01*
X53089999Y-67318871D01*
X53090000Y-67318872D01*
X53090000Y-66290000D01*
X53590000Y-66290000D01*
X53590000Y-67318871D01*
X53786326Y-67266266D01*
X53992480Y-67170134D01*
X54178819Y-67039658D01*
X54339658Y-66878819D01*
X54470134Y-66692480D01*
X54566266Y-66486326D01*
X54618872Y-66290000D01*
X53590000Y-66290000D01*
X53090000Y-66290000D01*
X52061128Y-66290000D01*
X43090500Y-66290000D01*
X43090500Y-65790000D01*
X52061128Y-65790000D01*
X53090000Y-65790000D01*
X53090000Y-64761128D01*
X53590000Y-64761128D01*
X53590000Y-65790000D01*
X54618872Y-65790000D01*
X54618871Y-65789999D01*
X54566266Y-65593673D01*
X54470134Y-65387519D01*
X54339658Y-65201180D01*
X54178819Y-65040341D01*
X53992480Y-64909865D01*
X53786326Y-64813733D01*
X53590000Y-64761128D01*
X53090000Y-64761128D01*
X53089999Y-64761128D01*
X52893673Y-64813733D01*
X52687519Y-64909865D01*
X52501180Y-65040341D01*
X52340341Y-65201180D01*
X52209865Y-65387519D01*
X52113733Y-65593673D01*
X52061128Y-65789999D01*
X52061128Y-65790000D01*
X43090500Y-65790000D01*
X43090500Y-58130000D01*
X62889495Y-58130000D01*
X62939651Y-58306278D01*
X63036712Y-58501205D01*
X63167944Y-58674985D01*
X63328868Y-58821685D01*
X63514012Y-58936322D01*
X63717069Y-59014986D01*
X63790000Y-59028620D01*
X63790000Y-58130000D01*
X62889495Y-58130000D01*
X43090500Y-58130000D01*
X43090500Y-40640000D01*
X52034531Y-40640000D01*
X52054364Y-40866689D01*
X52113261Y-41086497D01*
X52209432Y-41292735D01*
X52339953Y-41479140D01*
X52500859Y-41640046D01*
X52687264Y-41770567D01*
X52687265Y-41770567D01*
X52687266Y-41770568D01*
X52893504Y-41866739D01*
X53113308Y-41925635D01*
X53340000Y-41945468D01*
X53566692Y-41925635D01*
X53786496Y-41866739D01*
X53992734Y-41770568D01*
X54146466Y-41662924D01*
X54180301Y-41646239D01*
X54217588Y-41640500D01*
X59923065Y-41640500D01*
X59972877Y-41650945D01*
X59998713Y-41669392D01*
X60000107Y-41667602D01*
X60033426Y-41693535D01*
X60191374Y-41816470D01*
X60395497Y-41926936D01*
X60449479Y-41945468D01*
X60615015Y-42002297D01*
X60615017Y-42002297D01*
X60615019Y-42002298D01*
X60843951Y-42040500D01*
X61076048Y-42040500D01*
X61076049Y-42040500D01*
X61304981Y-42002298D01*
X61524503Y-41926936D01*
X61728626Y-41816470D01*
X61911784Y-41673913D01*
X61920132Y-41664843D01*
X61972754Y-41630989D01*
X62035209Y-41627140D01*
X62091592Y-41654277D01*
X62127544Y-41705491D01*
X62156204Y-41782331D01*
X62242454Y-41897546D01*
X62357669Y-41983796D01*
X62418835Y-42006609D01*
X62461069Y-42033047D01*
X62489488Y-42073977D01*
X62499500Y-42122790D01*
X62499500Y-43165721D01*
X62499460Y-43168863D01*
X62497242Y-43256362D01*
X62507648Y-43314420D01*
X62508957Y-43323749D01*
X62514926Y-43382438D01*
X62524033Y-43411467D01*
X62527772Y-43426702D01*
X62533141Y-43456652D01*
X62555020Y-43511425D01*
X62558180Y-43520300D01*
X62575841Y-43576588D01*
X62590607Y-43603191D01*
X62597337Y-43617364D01*
X62608622Y-43645617D01*
X62641080Y-43694867D01*
X62645961Y-43702923D01*
X62674590Y-43754501D01*
X62694404Y-43777581D01*
X62703856Y-43790116D01*
X62720599Y-43815520D01*
X62762300Y-43857221D01*
X62768705Y-43864132D01*
X62807130Y-43908891D01*
X62807131Y-43908892D01*
X62807134Y-43908895D01*
X62831198Y-43927522D01*
X62842968Y-43937889D01*
X69793112Y-50888033D01*
X69817813Y-50923309D01*
X69828959Y-50964907D01*
X69834364Y-51026691D01*
X69865638Y-51143407D01*
X69867480Y-51199691D01*
X69844239Y-51250987D01*
X69800707Y-51286712D01*
X69745863Y-51299500D01*
X66077744Y-51299500D01*
X66057236Y-51297235D01*
X65987113Y-51299439D01*
X65983219Y-51299500D01*
X65955650Y-51299500D01*
X65951671Y-51300002D01*
X65940041Y-51300917D01*
X65896372Y-51302289D01*
X65877128Y-51307880D01*
X65858084Y-51311824D01*
X65838208Y-51314335D01*
X65797600Y-51330413D01*
X65786554Y-51334194D01*
X65779854Y-51336142D01*
X65744608Y-51346382D01*
X65727355Y-51356585D01*
X65709892Y-51365139D01*
X65691268Y-51372513D01*
X65655934Y-51398183D01*
X65646177Y-51404592D01*
X65608581Y-51426827D01*
X65594410Y-51440998D01*
X65579622Y-51453628D01*
X65563413Y-51465405D01*
X65535572Y-51499058D01*
X65527711Y-51507696D01*
X64348465Y-52686942D01*
X64297465Y-52717712D01*
X64238000Y-52721150D01*
X64181570Y-52710602D01*
X64148926Y-52704500D01*
X63931074Y-52704500D01*
X63777756Y-52733160D01*
X63716926Y-52744531D01*
X63513791Y-52823226D01*
X63328567Y-52937912D01*
X63167573Y-53084676D01*
X63036287Y-53258528D01*
X62939181Y-53453542D01*
X62879564Y-53663074D01*
X62859464Y-53879999D01*
X62879564Y-54096925D01*
X62939181Y-54306457D01*
X63036287Y-54501471D01*
X63167573Y-54675323D01*
X63291572Y-54788363D01*
X63327300Y-54846066D01*
X63327300Y-54913934D01*
X63291572Y-54971637D01*
X63167573Y-55084676D01*
X63036287Y-55258528D01*
X62939181Y-55453542D01*
X62879564Y-55663074D01*
X62859464Y-55879999D01*
X62879564Y-56096925D01*
X62939181Y-56306457D01*
X63036287Y-56501471D01*
X63167573Y-56675323D01*
X63291944Y-56788701D01*
X63327672Y-56846404D01*
X63327672Y-56914272D01*
X63291944Y-56971975D01*
X63167944Y-57085014D01*
X63036712Y-57258794D01*
X62939651Y-57453721D01*
X62889494Y-57629999D01*
X62889495Y-57630000D01*
X64166000Y-57630000D01*
X64228000Y-57646613D01*
X64273387Y-57692000D01*
X64290000Y-57754000D01*
X64290000Y-59028620D01*
X64362930Y-59014986D01*
X64565987Y-58936322D01*
X64751131Y-58821685D01*
X64912052Y-58674987D01*
X64940730Y-58637011D01*
X64984413Y-58600737D01*
X65039685Y-58587736D01*
X65094957Y-58600735D01*
X65138640Y-58637009D01*
X65167573Y-58675323D01*
X65315493Y-58810169D01*
X65328568Y-58822088D01*
X65339004Y-58828550D01*
X65355779Y-58838937D01*
X65398830Y-58884025D01*
X65414500Y-58944363D01*
X65414500Y-60877256D01*
X65412235Y-60897762D01*
X65414439Y-60967873D01*
X65414500Y-60971768D01*
X65414500Y-60999349D01*
X65415003Y-61003334D01*
X65415918Y-61014967D01*
X65417290Y-61058626D01*
X65422879Y-61077860D01*
X65426825Y-61096916D01*
X65429335Y-61116792D01*
X65445414Y-61157404D01*
X65449197Y-61168451D01*
X65461382Y-61210391D01*
X65471580Y-61227635D01*
X65480136Y-61245100D01*
X65487514Y-61263732D01*
X65487515Y-61263733D01*
X65513180Y-61299059D01*
X65519593Y-61308822D01*
X65541826Y-61346416D01*
X65541829Y-61346419D01*
X65541830Y-61346420D01*
X65555995Y-61360585D01*
X65568627Y-61375375D01*
X65580406Y-61391587D01*
X65614058Y-61419426D01*
X65622699Y-61427289D01*
X66270260Y-62074851D01*
X66301161Y-62126278D01*
X66304301Y-62186192D01*
X66278945Y-62240568D01*
X66231030Y-62276675D01*
X66171772Y-62286060D01*
X66040000Y-62274531D01*
X65813310Y-62294364D01*
X65593502Y-62353261D01*
X65387265Y-62449432D01*
X65233535Y-62557075D01*
X65199699Y-62573761D01*
X65162412Y-62579500D01*
X61837588Y-62579500D01*
X61800301Y-62573761D01*
X61766465Y-62557075D01*
X61612734Y-62449432D01*
X61406497Y-62353261D01*
X61186689Y-62294364D01*
X60960000Y-62274531D01*
X60733310Y-62294364D01*
X60513502Y-62353261D01*
X60307264Y-62449432D01*
X60120859Y-62579953D01*
X59959953Y-62740859D01*
X59829432Y-62927264D01*
X59733261Y-63133502D01*
X59674364Y-63353310D01*
X59654531Y-63579999D01*
X59674364Y-63806689D01*
X59733261Y-64026497D01*
X59829432Y-64232735D01*
X59959953Y-64419140D01*
X60120859Y-64580046D01*
X60307264Y-64710567D01*
X60307265Y-64710567D01*
X60307266Y-64710568D01*
X60513504Y-64806739D01*
X60733308Y-64865635D01*
X60960000Y-64885468D01*
X61186692Y-64865635D01*
X61406496Y-64806739D01*
X61612734Y-64710568D01*
X61766466Y-64602924D01*
X61800301Y-64586239D01*
X61837588Y-64580500D01*
X65162412Y-64580500D01*
X65199699Y-64586239D01*
X65233533Y-64602924D01*
X65387266Y-64710568D01*
X65593504Y-64806739D01*
X65813308Y-64865635D01*
X65834620Y-64867499D01*
X65875092Y-64871040D01*
X65916690Y-64882185D01*
X65951967Y-64906887D01*
X69804498Y-68759418D01*
X69836592Y-68815005D01*
X69893261Y-69026497D01*
X69989432Y-69232735D01*
X70119953Y-69419140D01*
X70280859Y-69580046D01*
X70467264Y-69710567D01*
X70467265Y-69710567D01*
X70467266Y-69710568D01*
X70525865Y-69737893D01*
X70578040Y-69783650D01*
X70597460Y-69850274D01*
X70578041Y-69916899D01*
X70525866Y-69962656D01*
X70467522Y-69989863D01*
X70281180Y-70120341D01*
X70120341Y-70281180D01*
X69989865Y-70467519D01*
X69893733Y-70673673D01*
X69841128Y-70869999D01*
X69841128Y-70870000D01*
X72398872Y-70870000D01*
X72398871Y-70869999D01*
X72346266Y-70673673D01*
X72250134Y-70467519D01*
X72119658Y-70281180D01*
X71958819Y-70120341D01*
X71772482Y-69989866D01*
X71714133Y-69962657D01*
X71661958Y-69916899D01*
X71642539Y-69850274D01*
X71661959Y-69783649D01*
X71714134Y-69737893D01*
X71772734Y-69710568D01*
X71959139Y-69580047D01*
X72120047Y-69419139D01*
X72250568Y-69232734D01*
X72346739Y-69026496D01*
X72405635Y-68806692D01*
X72411039Y-68744907D01*
X72422185Y-68703309D01*
X72446884Y-68668035D01*
X77538689Y-63576231D01*
X77599103Y-63542949D01*
X77667956Y-63547096D01*
X77723940Y-63587392D01*
X77749732Y-63651367D01*
X77754926Y-63702438D01*
X77764033Y-63731467D01*
X77767772Y-63746702D01*
X77773141Y-63776652D01*
X77795020Y-63831425D01*
X77798180Y-63840300D01*
X77815841Y-63896588D01*
X77830607Y-63923191D01*
X77837337Y-63937364D01*
X77848622Y-63965617D01*
X77881080Y-64014867D01*
X77885961Y-64022923D01*
X77914590Y-64074501D01*
X77934404Y-64097581D01*
X77943856Y-64110116D01*
X77960599Y-64135520D01*
X78002300Y-64177221D01*
X78008705Y-64184132D01*
X78047130Y-64228891D01*
X78047131Y-64228892D01*
X78047134Y-64228895D01*
X78071198Y-64247522D01*
X78082968Y-64257889D01*
X85033112Y-71208033D01*
X85057813Y-71243309D01*
X85068959Y-71284907D01*
X85074364Y-71346689D01*
X85133261Y-71566497D01*
X85229432Y-71772735D01*
X85359953Y-71959140D01*
X85520859Y-72120046D01*
X85707263Y-72250566D01*
X85707266Y-72250568D01*
X85764683Y-72277342D01*
X85765275Y-72277618D01*
X85817450Y-72323375D01*
X85836869Y-72390000D01*
X85817450Y-72456625D01*
X85765275Y-72502382D01*
X85707263Y-72529433D01*
X85520859Y-72659953D01*
X85359953Y-72820859D01*
X85229432Y-73007264D01*
X85133261Y-73213502D01*
X85074364Y-73433310D01*
X85054531Y-73660000D01*
X85074364Y-73886689D01*
X85133261Y-74106497D01*
X85229432Y-74312735D01*
X85359953Y-74499140D01*
X85520859Y-74660046D01*
X85690875Y-74779091D01*
X85707266Y-74790568D01*
X85765273Y-74817617D01*
X85817449Y-74863373D01*
X85836869Y-74929997D01*
X85817451Y-74996622D01*
X85765276Y-75042380D01*
X85707266Y-75069431D01*
X85520859Y-75199953D01*
X85359953Y-75360859D01*
X85229432Y-75547264D01*
X85133261Y-75753502D01*
X85074364Y-75973310D01*
X85054531Y-76200000D01*
X85074364Y-76426689D01*
X85133261Y-76646497D01*
X85229432Y-76852735D01*
X85359953Y-77039140D01*
X85520859Y-77200046D01*
X85593013Y-77250568D01*
X85707266Y-77330568D01*
X85741945Y-77346739D01*
X85765275Y-77357618D01*
X85817450Y-77403375D01*
X85836869Y-77470000D01*
X85817450Y-77536625D01*
X85765275Y-77582382D01*
X85707263Y-77609433D01*
X85520859Y-77739953D01*
X85359953Y-77900859D01*
X85229432Y-78087264D01*
X85133261Y-78293502D01*
X85074364Y-78513310D01*
X85054531Y-78740000D01*
X85074364Y-78966689D01*
X85133261Y-79186497D01*
X85229432Y-79392735D01*
X85359953Y-79579140D01*
X85520859Y-79740046D01*
X85707263Y-79870566D01*
X85707266Y-79870568D01*
X85765275Y-79897618D01*
X85817450Y-79943375D01*
X85836869Y-80010000D01*
X85817450Y-80076625D01*
X85765275Y-80122382D01*
X85707263Y-80149433D01*
X85520859Y-80279953D01*
X85359953Y-80440859D01*
X85229432Y-80627264D01*
X85133261Y-80833502D01*
X85074364Y-81053310D01*
X85054531Y-81280000D01*
X85074364Y-81506689D01*
X85133261Y-81726497D01*
X85229432Y-81932735D01*
X85359953Y-82119140D01*
X85520859Y-82280046D01*
X85707263Y-82410566D01*
X85707266Y-82410568D01*
X85765275Y-82437618D01*
X85817450Y-82483375D01*
X85836869Y-82550000D01*
X85817450Y-82616625D01*
X85765275Y-82662382D01*
X85707263Y-82689433D01*
X85520859Y-82819953D01*
X85359953Y-82980859D01*
X85229432Y-83167264D01*
X85133261Y-83373502D01*
X85074364Y-83593310D01*
X85054531Y-83820000D01*
X85074364Y-84046689D01*
X85133261Y-84266497D01*
X85229432Y-84472735D01*
X85359953Y-84659140D01*
X85520859Y-84820046D01*
X85707263Y-84950566D01*
X85707266Y-84950568D01*
X85765275Y-84977618D01*
X85817450Y-85023375D01*
X85836869Y-85090000D01*
X85817450Y-85156625D01*
X85765275Y-85202382D01*
X85707263Y-85229433D01*
X85520859Y-85359953D01*
X85359953Y-85520859D01*
X85229432Y-85707264D01*
X85133261Y-85913502D01*
X85074364Y-86133310D01*
X85054531Y-86360000D01*
X85074364Y-86586689D01*
X85133261Y-86806497D01*
X85229432Y-87012735D01*
X85359953Y-87199140D01*
X85520859Y-87360046D01*
X85707263Y-87490566D01*
X85707266Y-87490568D01*
X85765275Y-87517618D01*
X85817450Y-87563375D01*
X85836869Y-87630000D01*
X85817450Y-87696625D01*
X85765275Y-87742382D01*
X85707263Y-87769433D01*
X85520859Y-87899953D01*
X85359953Y-88060859D01*
X85229432Y-88247264D01*
X85133261Y-88453502D01*
X85074364Y-88673310D01*
X85054531Y-88900000D01*
X85074364Y-89126689D01*
X85133261Y-89346497D01*
X85229432Y-89552735D01*
X85359953Y-89739140D01*
X85520859Y-89900046D01*
X85707263Y-90030566D01*
X85707266Y-90030568D01*
X85765275Y-90057618D01*
X85817450Y-90103375D01*
X85836869Y-90170000D01*
X85817450Y-90236625D01*
X85765275Y-90282382D01*
X85707263Y-90309433D01*
X85520859Y-90439953D01*
X85359953Y-90600859D01*
X85229432Y-90787264D01*
X85133261Y-90993502D01*
X85074364Y-91213310D01*
X85054531Y-91440000D01*
X85074364Y-91666689D01*
X85133261Y-91886497D01*
X85229432Y-92092735D01*
X85359953Y-92279140D01*
X85520859Y-92440046D01*
X85575765Y-92478491D01*
X85707266Y-92570568D01*
X85765273Y-92597617D01*
X85817449Y-92643373D01*
X85836869Y-92709997D01*
X85817451Y-92776622D01*
X85765276Y-92822380D01*
X85707266Y-92849431D01*
X85520859Y-92979953D01*
X85359953Y-93140859D01*
X85229432Y-93327264D01*
X85133261Y-93533502D01*
X85074364Y-93753310D01*
X85054531Y-93980000D01*
X85074364Y-94206689D01*
X85133261Y-94426497D01*
X85229432Y-94632735D01*
X85359953Y-94819140D01*
X85520859Y-94980046D01*
X85707264Y-95110567D01*
X85707265Y-95110567D01*
X85707266Y-95110568D01*
X85913504Y-95206739D01*
X86133308Y-95265635D01*
X86360000Y-95285468D01*
X86586692Y-95265635D01*
X86806496Y-95206739D01*
X87012734Y-95110568D01*
X87199139Y-94980047D01*
X87360047Y-94819139D01*
X87490568Y-94632734D01*
X87586739Y-94426496D01*
X87645635Y-94206692D01*
X87665468Y-93980000D01*
X87645635Y-93753308D01*
X87586739Y-93533504D01*
X87490568Y-93327266D01*
X87473417Y-93302772D01*
X87360046Y-93140859D01*
X87199140Y-92979953D01*
X87012732Y-92849430D01*
X86954724Y-92822380D01*
X86902549Y-92776623D01*
X86883130Y-92709997D01*
X86902550Y-92643373D01*
X86954721Y-92597619D01*
X87012734Y-92570568D01*
X87199139Y-92440047D01*
X87360047Y-92279139D01*
X87490568Y-92092734D01*
X87586739Y-91886496D01*
X87645635Y-91666692D01*
X87665468Y-91440000D01*
X87645635Y-91213308D01*
X87586739Y-90993504D01*
X87490568Y-90787266D01*
X87472996Y-90762171D01*
X87360046Y-90600859D01*
X87199140Y-90439953D01*
X87012733Y-90309431D01*
X86954725Y-90282382D01*
X86902549Y-90236625D01*
X86883129Y-90170000D01*
X86902549Y-90103375D01*
X86954725Y-90057618D01*
X87012734Y-90030568D01*
X87199139Y-89900047D01*
X87360047Y-89739139D01*
X87490568Y-89552734D01*
X87586739Y-89346496D01*
X87645635Y-89126692D01*
X87665468Y-88900000D01*
X87645635Y-88673308D01*
X87586739Y-88453504D01*
X87490568Y-88247266D01*
X87472996Y-88222171D01*
X87360046Y-88060859D01*
X87199140Y-87899953D01*
X87012733Y-87769431D01*
X86954725Y-87742382D01*
X86902549Y-87696625D01*
X86883129Y-87630000D01*
X86902549Y-87563375D01*
X86954725Y-87517618D01*
X87012734Y-87490568D01*
X87199139Y-87360047D01*
X87360047Y-87199139D01*
X87490568Y-87012734D01*
X87586739Y-86806496D01*
X87645635Y-86586692D01*
X87665468Y-86360000D01*
X87645635Y-86133308D01*
X87586739Y-85913504D01*
X87490568Y-85707266D01*
X87472996Y-85682171D01*
X87360046Y-85520859D01*
X87199140Y-85359953D01*
X87012733Y-85229431D01*
X86954725Y-85202382D01*
X86902549Y-85156625D01*
X86883129Y-85090000D01*
X86902549Y-85023375D01*
X86954725Y-84977618D01*
X87012734Y-84950568D01*
X87199139Y-84820047D01*
X87360047Y-84659139D01*
X87490568Y-84472734D01*
X87586739Y-84266496D01*
X87645635Y-84046692D01*
X87665468Y-83820000D01*
X87645635Y-83593308D01*
X87586739Y-83373504D01*
X87490568Y-83167266D01*
X87472996Y-83142171D01*
X87360046Y-82980859D01*
X87199140Y-82819953D01*
X87012733Y-82689431D01*
X86954725Y-82662382D01*
X86902549Y-82616625D01*
X86883129Y-82550000D01*
X86902549Y-82483375D01*
X86954725Y-82437618D01*
X87012734Y-82410568D01*
X87199139Y-82280047D01*
X87360047Y-82119139D01*
X87490568Y-81932734D01*
X87586739Y-81726496D01*
X87645635Y-81506692D01*
X87665468Y-81280000D01*
X87645635Y-81053308D01*
X87586739Y-80833504D01*
X87490568Y-80627266D01*
X87472996Y-80602171D01*
X87360046Y-80440859D01*
X87199140Y-80279953D01*
X87012736Y-80149433D01*
X86954723Y-80122381D01*
X86902548Y-80076623D01*
X86883129Y-80009997D01*
X86902549Y-79943372D01*
X86954721Y-79897619D01*
X87012734Y-79870568D01*
X87199139Y-79740047D01*
X87360047Y-79579139D01*
X87490568Y-79392734D01*
X87586739Y-79186496D01*
X87645635Y-78966692D01*
X87665468Y-78740000D01*
X87645635Y-78513308D01*
X87586739Y-78293504D01*
X87490568Y-78087266D01*
X87472996Y-78062171D01*
X87360046Y-77900859D01*
X87199140Y-77739953D01*
X87012733Y-77609431D01*
X86954725Y-77582382D01*
X86902549Y-77536625D01*
X86883129Y-77470000D01*
X86902549Y-77403375D01*
X86954725Y-77357618D01*
X86978055Y-77346739D01*
X87012734Y-77330568D01*
X87199139Y-77200047D01*
X87360047Y-77039139D01*
X87490568Y-76852734D01*
X87586739Y-76646496D01*
X87645635Y-76426692D01*
X87665468Y-76200000D01*
X87645635Y-75973308D01*
X87586739Y-75753504D01*
X87490568Y-75547266D01*
X87487559Y-75542969D01*
X87360046Y-75360859D01*
X87199140Y-75199953D01*
X87012732Y-75069430D01*
X86954724Y-75042380D01*
X86902549Y-74996623D01*
X86883130Y-74929997D01*
X86902550Y-74863373D01*
X86954721Y-74817619D01*
X87012734Y-74790568D01*
X87199139Y-74660047D01*
X87360047Y-74499139D01*
X87490568Y-74312734D01*
X87586739Y-74106496D01*
X87645635Y-73886692D01*
X87665468Y-73660000D01*
X87645635Y-73433308D01*
X87586739Y-73213504D01*
X87490568Y-73007266D01*
X87487559Y-73002969D01*
X87360046Y-72820859D01*
X87199140Y-72659953D01*
X87012733Y-72529431D01*
X86954725Y-72502382D01*
X86902549Y-72456625D01*
X86883129Y-72390000D01*
X86902549Y-72323375D01*
X86954725Y-72277618D01*
X86955317Y-72277342D01*
X87012734Y-72250568D01*
X87199139Y-72120047D01*
X87360047Y-71959139D01*
X87490568Y-71772734D01*
X87586739Y-71566496D01*
X87645635Y-71346692D01*
X87665468Y-71120000D01*
X87645635Y-70893308D01*
X87586739Y-70673504D01*
X87490568Y-70467266D01*
X87472996Y-70442171D01*
X87360046Y-70280859D01*
X87199140Y-70119953D01*
X87012736Y-69989433D01*
X87012734Y-69989432D01*
X86954132Y-69962105D01*
X86901958Y-69916348D01*
X86882539Y-69849723D01*
X86901959Y-69783098D01*
X86954135Y-69737342D01*
X87012479Y-69710135D01*
X87198819Y-69579658D01*
X87359658Y-69418819D01*
X87490134Y-69232480D01*
X87586266Y-69026326D01*
X87638872Y-68830000D01*
X86234000Y-68830000D01*
X86172000Y-68813387D01*
X86126613Y-68768000D01*
X86110000Y-68706000D01*
X86110000Y-68454000D01*
X86126613Y-68392000D01*
X86172000Y-68346613D01*
X86234000Y-68330000D01*
X87638872Y-68330000D01*
X87638871Y-68329999D01*
X87586266Y-68133673D01*
X87490134Y-67927519D01*
X87359658Y-67741180D01*
X87198819Y-67580341D01*
X87012482Y-67449866D01*
X86954133Y-67422657D01*
X86901958Y-67376899D01*
X86882539Y-67310274D01*
X86901959Y-67243649D01*
X86954134Y-67197893D01*
X87012734Y-67170568D01*
X87199139Y-67040047D01*
X87360047Y-66879139D01*
X87490568Y-66692734D01*
X87586739Y-66486496D01*
X87645635Y-66266692D01*
X87665468Y-66040000D01*
X87645635Y-65813308D01*
X87586739Y-65593504D01*
X87490568Y-65387266D01*
X87472996Y-65362171D01*
X87360046Y-65200859D01*
X87199140Y-65039953D01*
X87012733Y-64909431D01*
X86954725Y-64882382D01*
X86902549Y-64836625D01*
X86883129Y-64770000D01*
X86902549Y-64703375D01*
X86954725Y-64657618D01*
X87012734Y-64630568D01*
X87199139Y-64500047D01*
X87360047Y-64339139D01*
X87490568Y-64152734D01*
X87586739Y-63946496D01*
X87645635Y-63726692D01*
X87665468Y-63500000D01*
X87664355Y-63487284D01*
X87645635Y-63273310D01*
X87645635Y-63273308D01*
X87586739Y-63053504D01*
X87490568Y-62847266D01*
X87472996Y-62822171D01*
X87360046Y-62660859D01*
X87199140Y-62499953D01*
X87012733Y-62369431D01*
X86954725Y-62342382D01*
X86902549Y-62296625D01*
X86883129Y-62230000D01*
X86902549Y-62163375D01*
X86954725Y-62117618D01*
X87012734Y-62090568D01*
X87199139Y-61960047D01*
X87360047Y-61799139D01*
X87490568Y-61612734D01*
X87586739Y-61406496D01*
X87645635Y-61186692D01*
X87665468Y-60960000D01*
X87645635Y-60733308D01*
X87586739Y-60513504D01*
X87490568Y-60307266D01*
X87472996Y-60282171D01*
X87360046Y-60120859D01*
X87199140Y-59959953D01*
X87012733Y-59829431D01*
X86954725Y-59802382D01*
X86902549Y-59756625D01*
X86883129Y-59690000D01*
X86902549Y-59623375D01*
X86954725Y-59577618D01*
X87012734Y-59550568D01*
X87199139Y-59420047D01*
X87360047Y-59259139D01*
X87490568Y-59072734D01*
X87586739Y-58866496D01*
X87645635Y-58646692D01*
X87665468Y-58420000D01*
X87645635Y-58193308D01*
X87586739Y-57973504D01*
X87490568Y-57767266D01*
X87481279Y-57754000D01*
X87360046Y-57580859D01*
X87199140Y-57419953D01*
X87012733Y-57289431D01*
X86967601Y-57268386D01*
X86954724Y-57262381D01*
X86902549Y-57216625D01*
X86883129Y-57150000D01*
X86902549Y-57083375D01*
X86954725Y-57037618D01*
X87012734Y-57010568D01*
X87199139Y-56880047D01*
X87360047Y-56719139D01*
X87490568Y-56532734D01*
X87586739Y-56326496D01*
X87645635Y-56106692D01*
X87665468Y-55880000D01*
X87645635Y-55653308D01*
X87586739Y-55433504D01*
X87490568Y-55227266D01*
X87488517Y-55224337D01*
X87360046Y-55040859D01*
X87199140Y-54879953D01*
X87012733Y-54749431D01*
X86954725Y-54722382D01*
X86902549Y-54676625D01*
X86883129Y-54610000D01*
X86902549Y-54543375D01*
X86954725Y-54497618D01*
X87012734Y-54470568D01*
X87199139Y-54340047D01*
X87360047Y-54179139D01*
X87490568Y-53992734D01*
X87586739Y-53786496D01*
X87639390Y-53590000D01*
X90109364Y-53590000D01*
X90166569Y-53803492D01*
X90266399Y-54017576D01*
X90401893Y-54211081D01*
X90568918Y-54378106D01*
X90762423Y-54513600D01*
X90976507Y-54613430D01*
X91189999Y-54670635D01*
X91190000Y-54670636D01*
X91190000Y-53590000D01*
X91690000Y-53590000D01*
X91690000Y-54670635D01*
X91903492Y-54613430D01*
X92117576Y-54513600D01*
X92311081Y-54378106D01*
X92478106Y-54211081D01*
X92613600Y-54017576D01*
X92713430Y-53803492D01*
X92770636Y-53590000D01*
X91690000Y-53590000D01*
X91190000Y-53590000D01*
X90109364Y-53590000D01*
X87639390Y-53590000D01*
X87645635Y-53566692D01*
X87665468Y-53340000D01*
X87645635Y-53113308D01*
X87586739Y-52893504D01*
X87490568Y-52687266D01*
X87490341Y-52686942D01*
X87360046Y-52500859D01*
X87199140Y-52339953D01*
X87012733Y-52209431D01*
X86954725Y-52182382D01*
X86902549Y-52136625D01*
X86883129Y-52070000D01*
X86902549Y-52003375D01*
X86954725Y-51957618D01*
X87012734Y-51930568D01*
X87166466Y-51822924D01*
X87200301Y-51806239D01*
X87237588Y-51800500D01*
X90025858Y-51800500D01*
X90074670Y-51810512D01*
X90115600Y-51838929D01*
X90142039Y-51881165D01*
X90146204Y-51892331D01*
X90232454Y-52007546D01*
X90347669Y-52093796D01*
X90479598Y-52143002D01*
X90529978Y-52177981D01*
X90557431Y-52232825D01*
X90555242Y-52294118D01*
X90523947Y-52346865D01*
X90401888Y-52468924D01*
X90266400Y-52662421D01*
X90166569Y-52876507D01*
X90109364Y-53089999D01*
X90109364Y-53090000D01*
X92770636Y-53090000D01*
X92770635Y-53089999D01*
X92713430Y-52876507D01*
X92613599Y-52662421D01*
X92478109Y-52468921D01*
X92356053Y-52346865D01*
X92324757Y-52294119D01*
X92322568Y-52232826D01*
X92350021Y-52177981D01*
X92400398Y-52143003D01*
X92532331Y-52093796D01*
X92647546Y-52007546D01*
X92733796Y-51892331D01*
X92784091Y-51757483D01*
X92790500Y-51697873D01*
X92790499Y-49902128D01*
X92784091Y-49842517D01*
X92733796Y-49707669D01*
X92647546Y-49592454D01*
X92532331Y-49506204D01*
X92517522Y-49500680D01*
X92462662Y-49460220D01*
X92437477Y-49396874D01*
X92449581Y-49329789D01*
X92495315Y-49279238D01*
X92560858Y-49260500D01*
X100722412Y-49260500D01*
X100759699Y-49266239D01*
X100793533Y-49282924D01*
X100947266Y-49390568D01*
X101153504Y-49486739D01*
X101373308Y-49545635D01*
X101600000Y-49565468D01*
X101826692Y-49545635D01*
X102046496Y-49486739D01*
X102252734Y-49390568D01*
X102439139Y-49260047D01*
X102600047Y-49099139D01*
X102730568Y-48912734D01*
X102826739Y-48706496D01*
X102879390Y-48510000D01*
X125721128Y-48510000D01*
X125773733Y-48706326D01*
X125869865Y-48912480D01*
X126000341Y-49098819D01*
X126161180Y-49259658D01*
X126347519Y-49390134D01*
X126553673Y-49486266D01*
X126749999Y-49538871D01*
X126750000Y-49538872D01*
X126750000Y-48510000D01*
X127250000Y-48510000D01*
X127250000Y-49538871D01*
X127446326Y-49486266D01*
X127652480Y-49390134D01*
X127838819Y-49259658D01*
X127999658Y-49098819D01*
X128130134Y-48912480D01*
X128226266Y-48706326D01*
X128278872Y-48510000D01*
X127250000Y-48510000D01*
X126750000Y-48510000D01*
X125721128Y-48510000D01*
X102879390Y-48510000D01*
X102885635Y-48486692D01*
X102905468Y-48260000D01*
X102885635Y-48033308D01*
X102879390Y-48010000D01*
X125721128Y-48010000D01*
X126750000Y-48010000D01*
X126750000Y-46981128D01*
X127250000Y-46981128D01*
X127250000Y-48010000D01*
X128278872Y-48010000D01*
X128278871Y-48009999D01*
X128226266Y-47813673D01*
X128130134Y-47607519D01*
X127999658Y-47421180D01*
X127838819Y-47260341D01*
X127652480Y-47129865D01*
X127446326Y-47033733D01*
X127250000Y-46981128D01*
X126750000Y-46981128D01*
X126749999Y-46981128D01*
X126553673Y-47033733D01*
X126347519Y-47129865D01*
X126161180Y-47260341D01*
X126000341Y-47421180D01*
X125869865Y-47607519D01*
X125773733Y-47813673D01*
X125721128Y-48009999D01*
X125721128Y-48010000D01*
X102879390Y-48010000D01*
X102826739Y-47813504D01*
X102730568Y-47607266D01*
X102622924Y-47453533D01*
X102606239Y-47419699D01*
X102600500Y-47382412D01*
X102600500Y-44057588D01*
X102606239Y-44020301D01*
X102622925Y-43986465D01*
X102660832Y-43932328D01*
X102730568Y-43832734D01*
X102826739Y-43626496D01*
X102839458Y-43579026D01*
X146324526Y-43579026D01*
X146397515Y-43630133D01*
X146603673Y-43726266D01*
X146823397Y-43785141D01*
X147050000Y-43804966D01*
X147276602Y-43785141D01*
X147496326Y-43726266D01*
X147702480Y-43630134D01*
X147775472Y-43579025D01*
X147050001Y-42853553D01*
X147050000Y-42853553D01*
X146324526Y-43579025D01*
X146324526Y-43579026D01*
X102839458Y-43579026D01*
X102885635Y-43406692D01*
X102905468Y-43180000D01*
X102904355Y-43167284D01*
X102885635Y-42953310D01*
X102885635Y-42953308D01*
X102826739Y-42733504D01*
X102730568Y-42527266D01*
X102711476Y-42500000D01*
X145745033Y-42500000D01*
X145764858Y-42726602D01*
X145823733Y-42946326D01*
X145919866Y-43152484D01*
X145970972Y-43225471D01*
X145970974Y-43225472D01*
X146696446Y-42500001D01*
X147403553Y-42500001D01*
X148129025Y-43225472D01*
X148180134Y-43152480D01*
X148276266Y-42946326D01*
X148335141Y-42726602D01*
X148354966Y-42500000D01*
X148335141Y-42273397D01*
X148276266Y-42053673D01*
X148180133Y-41847515D01*
X148129025Y-41774526D01*
X147403553Y-42500000D01*
X147403553Y-42500001D01*
X146696446Y-42500001D01*
X146696446Y-42500000D01*
X145970973Y-41774526D01*
X145970973Y-41774527D01*
X145919865Y-41847516D01*
X145823733Y-42053672D01*
X145764858Y-42273397D01*
X145745033Y-42500000D01*
X102711476Y-42500000D01*
X102600046Y-42340859D01*
X102439140Y-42179953D01*
X102252732Y-42049430D01*
X102194724Y-42022380D01*
X102142549Y-41976623D01*
X102123130Y-41909997D01*
X102142550Y-41843373D01*
X102194721Y-41797619D01*
X102252734Y-41770568D01*
X102439139Y-41640047D01*
X102600047Y-41479139D01*
X102640775Y-41420973D01*
X146324526Y-41420973D01*
X147050000Y-42146446D01*
X147050001Y-42146446D01*
X147775472Y-41420974D01*
X147775471Y-41420972D01*
X147702484Y-41369866D01*
X147496326Y-41273733D01*
X147276602Y-41214858D01*
X147050000Y-41195033D01*
X146823397Y-41214858D01*
X146603672Y-41273733D01*
X146397516Y-41369865D01*
X146324527Y-41420973D01*
X146324526Y-41420973D01*
X102640775Y-41420973D01*
X102730568Y-41292734D01*
X102826739Y-41086496D01*
X102885635Y-40866692D01*
X102905468Y-40640000D01*
X102885635Y-40413308D01*
X102826739Y-40193504D01*
X102730568Y-39987266D01*
X102600047Y-39800861D01*
X102600046Y-39800859D01*
X102439140Y-39639953D01*
X102252735Y-39509432D01*
X102046497Y-39413261D01*
X101826689Y-39354364D01*
X101599999Y-39334531D01*
X101373310Y-39354364D01*
X101153502Y-39413261D01*
X100947265Y-39509432D01*
X100854327Y-39574508D01*
X100813378Y-39603181D01*
X100793535Y-39617075D01*
X100759699Y-39633761D01*
X100722412Y-39639500D01*
X94445783Y-39639500D01*
X94398330Y-39630061D01*
X94358102Y-39603181D01*
X93418131Y-38663210D01*
X115729942Y-38663210D01*
X115776766Y-38699655D01*
X115995393Y-38817968D01*
X116230506Y-38898683D01*
X116475707Y-38939600D01*
X116724293Y-38939600D01*
X116969493Y-38898683D01*
X117204606Y-38817968D01*
X117423233Y-38699653D01*
X117470055Y-38663210D01*
X130969942Y-38663210D01*
X131016766Y-38699655D01*
X131235393Y-38817968D01*
X131470506Y-38898683D01*
X131715707Y-38939600D01*
X131964293Y-38939600D01*
X132209493Y-38898683D01*
X132444606Y-38817968D01*
X132663233Y-38699653D01*
X132710056Y-38663209D01*
X131840000Y-37793153D01*
X130969942Y-38663209D01*
X130969942Y-38663210D01*
X117470055Y-38663210D01*
X117470056Y-38663209D01*
X116600000Y-37793153D01*
X115729942Y-38663209D01*
X115729942Y-38663210D01*
X93418131Y-38663210D01*
X93418130Y-38663209D01*
X92194519Y-37439599D01*
X115094858Y-37439599D01*
X115115386Y-37687332D01*
X115176413Y-37928321D01*
X115276268Y-38155970D01*
X115376563Y-38309482D01*
X115376564Y-38309482D01*
X116246447Y-37439601D01*
X116953553Y-37439601D01*
X117823434Y-38309482D01*
X117923730Y-38155969D01*
X118023586Y-37928321D01*
X118084613Y-37687332D01*
X118105141Y-37439599D01*
X130334858Y-37439599D01*
X130355386Y-37687332D01*
X130416413Y-37928321D01*
X130516268Y-38155970D01*
X130616563Y-38309482D01*
X130616564Y-38309482D01*
X131486447Y-37439601D01*
X132193553Y-37439601D01*
X133063434Y-38309482D01*
X133163730Y-38155969D01*
X133263586Y-37928321D01*
X133324613Y-37687332D01*
X133345141Y-37439600D01*
X133324613Y-37191867D01*
X133263586Y-36950878D01*
X133163730Y-36723230D01*
X133063434Y-36569716D01*
X132193553Y-37439600D01*
X132193553Y-37439601D01*
X131486447Y-37439601D01*
X131486447Y-37439599D01*
X130616564Y-36569716D01*
X130516266Y-36723234D01*
X130416413Y-36950878D01*
X130355386Y-37191867D01*
X130334858Y-37439599D01*
X118105141Y-37439599D01*
X118084613Y-37191867D01*
X118023586Y-36950878D01*
X117923730Y-36723230D01*
X117823434Y-36569716D01*
X116953553Y-37439600D01*
X116953553Y-37439601D01*
X116246447Y-37439601D01*
X116246447Y-37439600D01*
X115376564Y-36569716D01*
X115276266Y-36723234D01*
X115176413Y-36950878D01*
X115115386Y-37191867D01*
X115094858Y-37439599D01*
X92194519Y-37439599D01*
X91821214Y-37066294D01*
X91789692Y-37012766D01*
X91788087Y-36950665D01*
X91816803Y-36895578D01*
X91868633Y-36861333D01*
X91992207Y-36818909D01*
X92191888Y-36710848D01*
X92217420Y-36690974D01*
X92217421Y-36690973D01*
X91174128Y-35647680D01*
X91142034Y-35592092D01*
X91142034Y-35560001D01*
X91793553Y-35560001D01*
X92569511Y-36335959D01*
X92649006Y-36214284D01*
X92740209Y-36006364D01*
X92795946Y-35786262D01*
X92814695Y-35559999D01*
X92795946Y-35333737D01*
X92749317Y-35149600D01*
X100010000Y-35149600D01*
X100010000Y-35797424D01*
X100016402Y-35856975D01*
X100066647Y-35991689D01*
X100152811Y-36106788D01*
X100267910Y-36192952D01*
X100402624Y-36243197D01*
X100462176Y-36249600D01*
X101110000Y-36249600D01*
X101110000Y-35149600D01*
X101610000Y-35149600D01*
X101610000Y-36249600D01*
X102257824Y-36249600D01*
X102317375Y-36243197D01*
X102390321Y-36215990D01*
X115729942Y-36215990D01*
X116600000Y-37086047D01*
X116600001Y-37086047D01*
X117470057Y-36215990D01*
X130969942Y-36215990D01*
X131840000Y-37086047D01*
X131840001Y-37086047D01*
X132710057Y-36215990D01*
X132710056Y-36215988D01*
X132663235Y-36179547D01*
X132444606Y-36061231D01*
X132209493Y-35980516D01*
X131964293Y-35939600D01*
X131715707Y-35939600D01*
X131470506Y-35980516D01*
X131235393Y-36061231D01*
X131016764Y-36179546D01*
X130969942Y-36215988D01*
X130969942Y-36215990D01*
X117470057Y-36215990D01*
X117470056Y-36215988D01*
X117423235Y-36179547D01*
X117204606Y-36061231D01*
X116969493Y-35980516D01*
X116724293Y-35939600D01*
X116475707Y-35939600D01*
X116230506Y-35980516D01*
X115995393Y-36061231D01*
X115776764Y-36179546D01*
X115729942Y-36215988D01*
X115729942Y-36215990D01*
X102390321Y-36215990D01*
X102452089Y-36192952D01*
X102567188Y-36106788D01*
X102653352Y-35991689D01*
X102703597Y-35856975D01*
X102710000Y-35797424D01*
X102710000Y-35149600D01*
X101610000Y-35149600D01*
X101110000Y-35149600D01*
X100010000Y-35149600D01*
X92749317Y-35149600D01*
X92740209Y-35113635D01*
X92649006Y-34905715D01*
X92569511Y-34784039D01*
X91793553Y-35560000D01*
X91793553Y-35560001D01*
X91142034Y-35560001D01*
X91142034Y-35527905D01*
X91174128Y-35472318D01*
X91440000Y-35206447D01*
X92217420Y-34429025D01*
X92191886Y-34409151D01*
X91992207Y-34301090D01*
X91868632Y-34258666D01*
X91816802Y-34224420D01*
X91788086Y-34169334D01*
X91789691Y-34107233D01*
X91821210Y-34053709D01*
X93515319Y-32359600D01*
X100004340Y-32359600D01*
X100024936Y-32595007D01*
X100069709Y-32762101D01*
X100086097Y-32823263D01*
X100185965Y-33037430D01*
X100321505Y-33231001D01*
X100321508Y-33231004D01*
X100443818Y-33353314D01*
X100475114Y-33406060D01*
X100477303Y-33467353D01*
X100449850Y-33522197D01*
X100399472Y-33557176D01*
X100267913Y-33606246D01*
X100152811Y-33692411D01*
X100066647Y-33807510D01*
X100016402Y-33942224D01*
X100010000Y-34001776D01*
X100010000Y-34649600D01*
X102710000Y-34649600D01*
X102710000Y-34001776D01*
X102703597Y-33942224D01*
X102653352Y-33807510D01*
X102567188Y-33692411D01*
X102452088Y-33606247D01*
X102436095Y-33600282D01*
X102381232Y-33559821D01*
X102356047Y-33496475D01*
X102368151Y-33429389D01*
X102413885Y-33378838D01*
X102479428Y-33360100D01*
X114975501Y-33360100D01*
X115037501Y-33376713D01*
X115082888Y-33422100D01*
X115098638Y-33480881D01*
X115098791Y-33480865D01*
X115098896Y-33481842D01*
X115099501Y-33484100D01*
X115099501Y-33487472D01*
X115105909Y-33547083D01*
X115156204Y-33681931D01*
X115242454Y-33797146D01*
X115357669Y-33883396D01*
X115492517Y-33933691D01*
X115552127Y-33940100D01*
X117647872Y-33940099D01*
X117707483Y-33933691D01*
X117842331Y-33883396D01*
X117957546Y-33797146D01*
X118043796Y-33681931D01*
X118094091Y-33547083D01*
X118100500Y-33487473D01*
X118100499Y-31391728D01*
X118094091Y-31332117D01*
X118043796Y-31197269D01*
X117957546Y-31082054D01*
X117842331Y-30995804D01*
X117707483Y-30945509D01*
X117692890Y-30940066D01*
X117693177Y-30939295D01*
X117655000Y-30925316D01*
X117614969Y-30880753D01*
X117600500Y-30822624D01*
X117600500Y-30285383D01*
X117609939Y-30237930D01*
X117636819Y-30197702D01*
X121558101Y-26276418D01*
X121598329Y-26249538D01*
X121645782Y-26240099D01*
X122680370Y-26240099D01*
X122680372Y-26240099D01*
X122739983Y-26233691D01*
X122874831Y-26183396D01*
X122990046Y-26097146D01*
X123076296Y-25981931D01*
X123087909Y-25950794D01*
X123120021Y-25902979D01*
X123170274Y-25874829D01*
X123227824Y-25872421D01*
X123280252Y-25896275D01*
X123422836Y-26007252D01*
X123634539Y-26121819D01*
X123862207Y-26199980D01*
X123969999Y-26217966D01*
X123970000Y-26217967D01*
X123970000Y-23261234D01*
X123969999Y-23261233D01*
X123862207Y-23279219D01*
X123634539Y-23357380D01*
X123422835Y-23471948D01*
X123280252Y-23582924D01*
X123227823Y-23606778D01*
X123170274Y-23604370D01*
X123120021Y-23576221D01*
X123087909Y-23528405D01*
X123076296Y-23497269D01*
X122990046Y-23382054D01*
X122874831Y-23295804D01*
X122739983Y-23245509D01*
X122680373Y-23239100D01*
X122680369Y-23239100D01*
X120679630Y-23239100D01*
X120620015Y-23245509D01*
X120485169Y-23295804D01*
X120369954Y-23382054D01*
X120283704Y-23497268D01*
X120233409Y-23632116D01*
X120227000Y-23691731D01*
X120227000Y-24726316D01*
X120217561Y-24773769D01*
X120190681Y-24813997D01*
X115902646Y-29102032D01*
X115900399Y-29104223D01*
X115836948Y-29164539D01*
X115803244Y-29212962D01*
X115797573Y-29220482D01*
X115760301Y-29266193D01*
X115746210Y-29293166D01*
X115738082Y-29306583D01*
X115720705Y-29331550D01*
X115697439Y-29385765D01*
X115693399Y-29394271D01*
X115666090Y-29446552D01*
X115657720Y-29475801D01*
X115652459Y-29490578D01*
X115640460Y-29518542D01*
X115628587Y-29576313D01*
X115626342Y-29585460D01*
X115610113Y-29642180D01*
X115607802Y-29672525D01*
X115605622Y-29688066D01*
X115599500Y-29717859D01*
X115599500Y-29776842D01*
X115599142Y-29786256D01*
X115594663Y-29845077D01*
X115598506Y-29875251D01*
X115599500Y-29890917D01*
X115599500Y-30822624D01*
X115585031Y-30880753D01*
X115545001Y-30925316D01*
X115506822Y-30939296D01*
X115507110Y-30940066D01*
X115357669Y-30995804D01*
X115242454Y-31082054D01*
X115156204Y-31197269D01*
X115125932Y-31278433D01*
X115099493Y-31320670D01*
X115058563Y-31349088D01*
X115009750Y-31359100D01*
X102320758Y-31359100D01*
X102273305Y-31349661D01*
X102233077Y-31322781D01*
X102231404Y-31321108D01*
X102231401Y-31321105D01*
X102037830Y-31185565D01*
X101823663Y-31085697D01*
X101762502Y-31069309D01*
X101595407Y-31024536D01*
X101360000Y-31003940D01*
X101124592Y-31024536D01*
X100896336Y-31085697D01*
X100682170Y-31185565D01*
X100488598Y-31321105D01*
X100321505Y-31488198D01*
X100185965Y-31681770D01*
X100086097Y-31895936D01*
X100024936Y-32124192D01*
X100004340Y-32359600D01*
X93515319Y-32359600D01*
X104518101Y-21356819D01*
X104558330Y-21329939D01*
X104605783Y-21320500D01*
X123994217Y-21320500D01*
X124041670Y-21329939D01*
X124081898Y-21356819D01*
X125723181Y-22998101D01*
X125750061Y-23038329D01*
X125759500Y-23085782D01*
X125759500Y-23585206D01*
X125751017Y-23630281D01*
X125726730Y-23669189D01*
X125609446Y-23796592D01*
X125593508Y-23820988D01*
X125548717Y-23862220D01*
X125489699Y-23877164D01*
X125430682Y-23862218D01*
X125385892Y-23820985D01*
X125370153Y-23796894D01*
X125207126Y-23619801D01*
X125017164Y-23471948D01*
X124805460Y-23357380D01*
X124577792Y-23279219D01*
X124470000Y-23261233D01*
X124470000Y-26217966D01*
X124577792Y-26199980D01*
X124805460Y-26121819D01*
X125017164Y-26007251D01*
X125207122Y-25859401D01*
X125370155Y-25682300D01*
X125385892Y-25658214D01*
X125430683Y-25616981D01*
X125489700Y-25602035D01*
X125548718Y-25616980D01*
X125593509Y-25658213D01*
X125593510Y-25658214D01*
X125609449Y-25682610D01*
X125772537Y-25859771D01*
X125962561Y-26007672D01*
X126174336Y-26122279D01*
X126402087Y-26200466D01*
X126639601Y-26240100D01*
X126794217Y-26240100D01*
X126841670Y-26249539D01*
X126881898Y-26276419D01*
X130803181Y-30197701D01*
X130830061Y-30237929D01*
X130839500Y-30285382D01*
X130839500Y-30822624D01*
X130825031Y-30880753D01*
X130785001Y-30925316D01*
X130746822Y-30939296D01*
X130747110Y-30940066D01*
X130597669Y-30995804D01*
X130482454Y-31082054D01*
X130396204Y-31197268D01*
X130345909Y-31332116D01*
X130339500Y-31391730D01*
X130339500Y-33487469D01*
X130344463Y-33533635D01*
X130345909Y-33547083D01*
X130396204Y-33681931D01*
X130482454Y-33797146D01*
X130597669Y-33883396D01*
X130732517Y-33933691D01*
X130792127Y-33940100D01*
X132887872Y-33940099D01*
X132947483Y-33933691D01*
X133082331Y-33883396D01*
X133197546Y-33797146D01*
X133283796Y-33681931D01*
X133334091Y-33547083D01*
X133340500Y-33487473D01*
X133340499Y-31604499D01*
X133357112Y-31542500D01*
X133402499Y-31497113D01*
X133464499Y-31480500D01*
X143823644Y-31480500D01*
X143879148Y-31493616D01*
X143922910Y-31530189D01*
X144003351Y-31637644D01*
X144003354Y-31637646D01*
X144118569Y-31723896D01*
X144253417Y-31774191D01*
X144313027Y-31780600D01*
X145246972Y-31780599D01*
X145306583Y-31774191D01*
X145441431Y-31723896D01*
X145556646Y-31637646D01*
X145642896Y-31522431D01*
X145693191Y-31387583D01*
X145699600Y-31327973D01*
X145699599Y-30905872D01*
X145712273Y-30851261D01*
X145723059Y-30829273D01*
X145724781Y-30822624D01*
X145748763Y-30730000D01*
X146160900Y-30730000D01*
X146160900Y-31327924D01*
X146167302Y-31387475D01*
X146217547Y-31522189D01*
X146303711Y-31637288D01*
X146418810Y-31723452D01*
X146553524Y-31773697D01*
X146613076Y-31780100D01*
X146830000Y-31780100D01*
X146830000Y-30730000D01*
X147330000Y-30730000D01*
X147330000Y-31780100D01*
X147546924Y-31780100D01*
X147606475Y-31773697D01*
X147741189Y-31723452D01*
X147856288Y-31637288D01*
X147942452Y-31522189D01*
X147992697Y-31387475D01*
X147999100Y-31327924D01*
X147999100Y-30730000D01*
X147330000Y-30730000D01*
X146830000Y-30730000D01*
X146160900Y-30730000D01*
X145748763Y-30730000D01*
X145774063Y-30632285D01*
X145784369Y-30429064D01*
X145753873Y-30230000D01*
X146160900Y-30230000D01*
X146830000Y-30230000D01*
X146830000Y-29179900D01*
X147330000Y-29179900D01*
X147330000Y-30230000D01*
X147999100Y-30230000D01*
X147999100Y-29632076D01*
X147992697Y-29572524D01*
X147942452Y-29437810D01*
X147856288Y-29322711D01*
X147741189Y-29236547D01*
X147606475Y-29186302D01*
X147546924Y-29179900D01*
X147330000Y-29179900D01*
X146830000Y-29179900D01*
X146613076Y-29179900D01*
X146553524Y-29186302D01*
X146418810Y-29236547D01*
X146303711Y-29322711D01*
X146217547Y-29437810D01*
X146167302Y-29572524D01*
X146160900Y-29632076D01*
X146160900Y-30230000D01*
X145753873Y-30230000D01*
X145753556Y-30227929D01*
X145735413Y-30178942D01*
X145707318Y-30103082D01*
X145699599Y-30060016D01*
X145699599Y-29632030D01*
X145699599Y-29632027D01*
X145693191Y-29572417D01*
X145642896Y-29437569D01*
X145556646Y-29322354D01*
X145441431Y-29236104D01*
X145306583Y-29185809D01*
X145246973Y-29179400D01*
X145246969Y-29179400D01*
X144313030Y-29179400D01*
X144253415Y-29185809D01*
X144118569Y-29236104D01*
X144003351Y-29322355D01*
X143922910Y-29429811D01*
X143879148Y-29466384D01*
X143823644Y-29479500D01*
X132966182Y-29479500D01*
X132918729Y-29470061D01*
X132878501Y-29443181D01*
X132633632Y-29198312D01*
X132633628Y-29198306D01*
X132577693Y-29142372D01*
X132571287Y-29135460D01*
X132532864Y-29090702D01*
X132508804Y-29072078D01*
X132497026Y-29061705D01*
X128352540Y-24917220D01*
X144950819Y-24917220D01*
X144961527Y-24968754D01*
X144962965Y-24977095D01*
X144970130Y-25029221D01*
X144972650Y-25035023D01*
X144980319Y-25059185D01*
X144981607Y-25065382D01*
X144981608Y-25065385D01*
X144998693Y-25098359D01*
X145005821Y-25112115D01*
X145009455Y-25119757D01*
X145030419Y-25168018D01*
X145030420Y-25168020D01*
X145034408Y-25172922D01*
X145048313Y-25194122D01*
X145051227Y-25199745D01*
X145051229Y-25199747D01*
X145079460Y-25229975D01*
X145087147Y-25238205D01*
X145092706Y-25244580D01*
X145125922Y-25285408D01*
X145131090Y-25289056D01*
X145150203Y-25305722D01*
X145154520Y-25310344D01*
X145199503Y-25337698D01*
X145206540Y-25342314D01*
X145249553Y-25372677D01*
X145252758Y-25373816D01*
X145255515Y-25374796D01*
X145278422Y-25385691D01*
X145283815Y-25388971D01*
X145283817Y-25388971D01*
X145283818Y-25388972D01*
X145334488Y-25403169D01*
X145342531Y-25405721D01*
X145392144Y-25423354D01*
X145398455Y-25423785D01*
X145423453Y-25428096D01*
X145429534Y-25429800D01*
X145429535Y-25429800D01*
X145482145Y-25429800D01*
X145490607Y-25430089D01*
X145543121Y-25433681D01*
X145549314Y-25432393D01*
X145574544Y-25429800D01*
X148631745Y-25429800D01*
X148640207Y-25430089D01*
X148692721Y-25433681D01*
X148744276Y-25422967D01*
X148752579Y-25421536D01*
X148804720Y-25414370D01*
X148810516Y-25411852D01*
X148834690Y-25404179D01*
X148840885Y-25402892D01*
X148887657Y-25378656D01*
X148895220Y-25375059D01*
X148943520Y-25354080D01*
X148948421Y-25350091D01*
X148969624Y-25336183D01*
X148975247Y-25333271D01*
X149013702Y-25297354D01*
X149020087Y-25291787D01*
X149060908Y-25258578D01*
X149064554Y-25253411D01*
X149081223Y-25234294D01*
X149085844Y-25229980D01*
X149113190Y-25185009D01*
X149117820Y-25177951D01*
X149148177Y-25134947D01*
X149150295Y-25128986D01*
X149161190Y-25106077D01*
X149164472Y-25100682D01*
X149171294Y-25076330D01*
X149178666Y-25050022D01*
X149181223Y-25041961D01*
X149198854Y-24992356D01*
X149199285Y-24986041D01*
X149203595Y-24961048D01*
X149205300Y-24954965D01*
X149205300Y-24902355D01*
X149205589Y-24893893D01*
X149207874Y-24860482D01*
X149209181Y-24841379D01*
X149207893Y-24835185D01*
X149205300Y-24809956D01*
X149205300Y-23302155D01*
X149205589Y-23293693D01*
X149207874Y-23260282D01*
X149209181Y-23241179D01*
X149198468Y-23189631D01*
X149197034Y-23181307D01*
X149194936Y-23166044D01*
X149189870Y-23129180D01*
X149187351Y-23123381D01*
X149179678Y-23099202D01*
X149178393Y-23093017D01*
X149160102Y-23057718D01*
X149154167Y-23046263D01*
X149150553Y-23038665D01*
X149129580Y-22990380D01*
X149125589Y-22985474D01*
X149111683Y-22964271D01*
X149108772Y-22958653D01*
X149072852Y-22920194D01*
X149067285Y-22913810D01*
X149034078Y-22872992D01*
X149028907Y-22869342D01*
X149009797Y-22852678D01*
X149005480Y-22848056D01*
X148967779Y-22825129D01*
X148960513Y-22820710D01*
X148953441Y-22816072D01*
X148910447Y-22785723D01*
X148904481Y-22783602D01*
X148881577Y-22772709D01*
X148876183Y-22769428D01*
X148863440Y-22765857D01*
X148825506Y-22755228D01*
X148817472Y-22752679D01*
X148767856Y-22735046D01*
X148767855Y-22735045D01*
X148767853Y-22735045D01*
X148761536Y-22734613D01*
X148736552Y-22730305D01*
X148730466Y-22728600D01*
X148730465Y-22728600D01*
X148677855Y-22728600D01*
X148669393Y-22728311D01*
X148665094Y-22728016D01*
X148616879Y-22724719D01*
X148616878Y-22724719D01*
X148610686Y-22726006D01*
X148585456Y-22728600D01*
X145528255Y-22728600D01*
X145519793Y-22728311D01*
X145467277Y-22724718D01*
X145415744Y-22735426D01*
X145407407Y-22736864D01*
X145355279Y-22744030D01*
X145349478Y-22746550D01*
X145325315Y-22754219D01*
X145319115Y-22755507D01*
X145272370Y-22779727D01*
X145264731Y-22783360D01*
X145216476Y-22804321D01*
X145211568Y-22808314D01*
X145190378Y-22822213D01*
X145184754Y-22825127D01*
X145146296Y-22861044D01*
X145139919Y-22866605D01*
X145099090Y-22899823D01*
X145095439Y-22904996D01*
X145078780Y-22924100D01*
X145074157Y-22928417D01*
X145046814Y-22973380D01*
X145042173Y-22980455D01*
X145011820Y-23023456D01*
X145009700Y-23029422D01*
X144998815Y-23052311D01*
X144995528Y-23057715D01*
X144981332Y-23108380D01*
X144978772Y-23116445D01*
X144961145Y-23166043D01*
X144960713Y-23172362D01*
X144956406Y-23197339D01*
X144954700Y-23203430D01*
X144954700Y-23256045D01*
X144954411Y-23264507D01*
X144950819Y-23317021D01*
X144952106Y-23323214D01*
X144954700Y-23348444D01*
X144954700Y-24856245D01*
X144954411Y-24864707D01*
X144950819Y-24917220D01*
X128352540Y-24917220D01*
X128249319Y-24813999D01*
X128222439Y-24773771D01*
X128213000Y-24726318D01*
X128213000Y-24631994D01*
X128198095Y-24452128D01*
X128198095Y-24452124D01*
X128138983Y-24218695D01*
X128042255Y-23998178D01*
X127910551Y-23796590D01*
X127793269Y-23669188D01*
X127768983Y-23630281D01*
X127760500Y-23585206D01*
X127760500Y-22634239D01*
X127760540Y-22631097D01*
X127762756Y-22543638D01*
X127752351Y-22485585D01*
X127751042Y-22476253D01*
X127745074Y-22417562D01*
X127735967Y-22388537D01*
X127732223Y-22373286D01*
X127726857Y-22343343D01*
X127704976Y-22288565D01*
X127701816Y-22279689D01*
X127699056Y-22270892D01*
X127684159Y-22223412D01*
X127669395Y-22196812D01*
X127662660Y-22182631D01*
X127651377Y-22154383D01*
X127618917Y-22105131D01*
X127614036Y-22097074D01*
X127585409Y-22045498D01*
X127565582Y-22022403D01*
X127556146Y-22009888D01*
X127539402Y-21984481D01*
X127539400Y-21984479D01*
X127539399Y-21984477D01*
X127497693Y-21942772D01*
X127491287Y-21935860D01*
X127452864Y-21891102D01*
X127428804Y-21872478D01*
X127417026Y-21862105D01*
X125177567Y-19622647D01*
X125175374Y-19620398D01*
X125115059Y-19556946D01*
X125066642Y-19523247D01*
X125059119Y-19517575D01*
X125013405Y-19480300D01*
X124986440Y-19466215D01*
X124973019Y-19458084D01*
X124948049Y-19440705D01*
X124948048Y-19440704D01*
X124948046Y-19440703D01*
X124893845Y-19417443D01*
X124885336Y-19413402D01*
X124833053Y-19386092D01*
X124827126Y-19384396D01*
X124803798Y-19377721D01*
X124789020Y-19372459D01*
X124761058Y-19360460D01*
X124703272Y-19348583D01*
X124694128Y-19346338D01*
X124637421Y-19330113D01*
X124607075Y-19327802D01*
X124591534Y-19325622D01*
X124561742Y-19319500D01*
X124561741Y-19319500D01*
X124502758Y-19319500D01*
X124493344Y-19319142D01*
X124468392Y-19317242D01*
X124434524Y-19314663D01*
X124434523Y-19314663D01*
X124404349Y-19318506D01*
X124388683Y-19319500D01*
X104154279Y-19319500D01*
X104151137Y-19319460D01*
X104063637Y-19317242D01*
X104005580Y-19327648D01*
X103996251Y-19328957D01*
X103937558Y-19334926D01*
X103908528Y-19344034D01*
X103893288Y-19347775D01*
X103863346Y-19353141D01*
X103808572Y-19375020D01*
X103799702Y-19378178D01*
X103743409Y-19395841D01*
X103716818Y-19410600D01*
X103702648Y-19417330D01*
X103674383Y-19428621D01*
X103625121Y-19461087D01*
X103617066Y-19465967D01*
X103565495Y-19494591D01*
X103542406Y-19514412D01*
X103529883Y-19523855D01*
X103504484Y-19540596D01*
X103462782Y-19582297D01*
X103455875Y-19588698D01*
X103411104Y-19627134D01*
X103392480Y-19651194D01*
X103382107Y-19662971D01*
X89602863Y-33442216D01*
X89547276Y-33474310D01*
X89483088Y-33474310D01*
X89427501Y-33442216D01*
X88307932Y-32322647D01*
X88305777Y-32320438D01*
X88245424Y-32256947D01*
X88197005Y-32223246D01*
X88189483Y-32217575D01*
X88187821Y-32216220D01*
X88161296Y-32194591D01*
X88143770Y-32180300D01*
X88116805Y-32166215D01*
X88103384Y-32158084D01*
X88078414Y-32140705D01*
X88078413Y-32140704D01*
X88078411Y-32140703D01*
X88024210Y-32117443D01*
X88015701Y-32113402D01*
X87963418Y-32086092D01*
X87957491Y-32084396D01*
X87934163Y-32077721D01*
X87919385Y-32072459D01*
X87891423Y-32060460D01*
X87833637Y-32048583D01*
X87824493Y-32046338D01*
X87767786Y-32030113D01*
X87737440Y-32027802D01*
X87721899Y-32025622D01*
X87692107Y-32019500D01*
X87692106Y-32019500D01*
X87633123Y-32019500D01*
X87623709Y-32019142D01*
X87614563Y-32018445D01*
X87564889Y-32014663D01*
X87564888Y-32014663D01*
X87534714Y-32018506D01*
X87519048Y-32019500D01*
X78768500Y-32019500D01*
X78762221Y-32019341D01*
X78755819Y-32019016D01*
X78689063Y-32015631D01*
X78689061Y-32015631D01*
X78616676Y-32026719D01*
X78610448Y-32027513D01*
X78537561Y-32034926D01*
X78522189Y-32039749D01*
X78503856Y-32044003D01*
X78487930Y-32046443D01*
X78419246Y-32071880D01*
X78413305Y-32073911D01*
X78343408Y-32095842D01*
X78329322Y-32103660D01*
X78312220Y-32111518D01*
X78297113Y-32117113D01*
X78234957Y-32155854D01*
X78229547Y-32159039D01*
X78165499Y-32194589D01*
X78153283Y-32205077D01*
X78138110Y-32216220D01*
X78124429Y-32224748D01*
X78124427Y-32224749D01*
X78124428Y-32224749D01*
X78071337Y-32275214D01*
X78066680Y-32279422D01*
X78011102Y-32327136D01*
X78001244Y-32339871D01*
X77988631Y-32353833D01*
X77976948Y-32364939D01*
X77935112Y-32425046D01*
X77931395Y-32430107D01*
X77886550Y-32488042D01*
X77879452Y-32502513D01*
X77869906Y-32518729D01*
X77860705Y-32531951D01*
X77833645Y-32595007D01*
X77831819Y-32599261D01*
X77829197Y-32604966D01*
X77796938Y-32670731D01*
X77792901Y-32686322D01*
X77786814Y-32704131D01*
X77780460Y-32718937D01*
X77765716Y-32790687D01*
X77764296Y-32796806D01*
X77745936Y-32867714D01*
X77745120Y-32883808D01*
X77742742Y-32902475D01*
X77739500Y-32918256D01*
X77739500Y-32991499D01*
X77739341Y-32997780D01*
X77735630Y-33070935D01*
X77738070Y-33086856D01*
X77739500Y-33105635D01*
X77739500Y-51229410D01*
X77723210Y-51290847D01*
X77678621Y-51336142D01*
X77617447Y-51353395D01*
X77572391Y-51342202D01*
X77572264Y-51342698D01*
X77537691Y-51333821D01*
X77519284Y-51327519D01*
X77500897Y-51319562D01*
X77457758Y-51312729D01*
X77446324Y-51310361D01*
X77404019Y-51299500D01*
X77383984Y-51299500D01*
X77364586Y-51297973D01*
X77357162Y-51296797D01*
X77344805Y-51294840D01*
X77344804Y-51294840D01*
X77319468Y-51297235D01*
X77301325Y-51298950D01*
X77289656Y-51299500D01*
X72494137Y-51299500D01*
X72439293Y-51286712D01*
X72395761Y-51250987D01*
X72372520Y-51199691D01*
X72374362Y-51143407D01*
X72405635Y-51026691D01*
X72425468Y-50799999D01*
X72405635Y-50573310D01*
X72405635Y-50573308D01*
X72346739Y-50353504D01*
X72250568Y-50147266D01*
X72120047Y-49960861D01*
X72120046Y-49960859D01*
X71959140Y-49799953D01*
X71772732Y-49669430D01*
X71714724Y-49642380D01*
X71662549Y-49596623D01*
X71643130Y-49529997D01*
X71662550Y-49463373D01*
X71714721Y-49417619D01*
X71772734Y-49390568D01*
X71959139Y-49260047D01*
X72120047Y-49099139D01*
X72250568Y-48912734D01*
X72346739Y-48706496D01*
X72405635Y-48486692D01*
X72425468Y-48260000D01*
X72405635Y-48033308D01*
X72346739Y-47813504D01*
X72250568Y-47607266D01*
X72142925Y-47453535D01*
X72120046Y-47420859D01*
X71959140Y-47259953D01*
X71934537Y-47242726D01*
X71895399Y-47197884D01*
X71881666Y-47139970D01*
X71896500Y-47082328D01*
X71936485Y-47038239D01*
X71992406Y-47017861D01*
X72027483Y-47014091D01*
X72162331Y-46963796D01*
X72277546Y-46877546D01*
X72363796Y-46762331D01*
X72414091Y-46627483D01*
X72420500Y-46567873D01*
X72420499Y-44872128D01*
X72414091Y-44812517D01*
X72363796Y-44677669D01*
X72277546Y-44562454D01*
X72162331Y-44476204D01*
X72027483Y-44425909D01*
X71967873Y-44419500D01*
X71967869Y-44419500D01*
X70272130Y-44419500D01*
X70212515Y-44425909D01*
X70077669Y-44476204D01*
X69962454Y-44562454D01*
X69876204Y-44677668D01*
X69825909Y-44812516D01*
X69819500Y-44872130D01*
X69819500Y-46567869D01*
X69825909Y-46627483D01*
X69876204Y-46762331D01*
X69962454Y-46877546D01*
X70077669Y-46963796D01*
X70212517Y-47014091D01*
X70247594Y-47017862D01*
X70303513Y-47038239D01*
X70343497Y-47082327D01*
X70358332Y-47139968D01*
X70344600Y-47197881D01*
X70305464Y-47242724D01*
X70280860Y-47259952D01*
X70119953Y-47420859D01*
X69989432Y-47607264D01*
X69893261Y-47813502D01*
X69875976Y-47878012D01*
X69843882Y-47933599D01*
X69788294Y-47965693D01*
X69724107Y-47965693D01*
X69668520Y-47933599D01*
X64536819Y-42801899D01*
X64509939Y-42761671D01*
X64500500Y-42714218D01*
X64500500Y-42122790D01*
X64510512Y-42073977D01*
X64538931Y-42033047D01*
X64581164Y-42006609D01*
X64642331Y-41983796D01*
X64757546Y-41897546D01*
X64843796Y-41782331D01*
X64894091Y-41647483D01*
X64900500Y-41587873D01*
X64900499Y-39692128D01*
X64894091Y-39632517D01*
X64843796Y-39497669D01*
X64757546Y-39382454D01*
X64642331Y-39296204D01*
X64507483Y-39245909D01*
X64447873Y-39239500D01*
X64447869Y-39239500D01*
X62552130Y-39239500D01*
X62492515Y-39245909D01*
X62357669Y-39296204D01*
X62242454Y-39382454D01*
X62156204Y-39497669D01*
X62127545Y-39574508D01*
X62091593Y-39625721D01*
X62035211Y-39652859D01*
X61972757Y-39649011D01*
X61920133Y-39615157D01*
X61917593Y-39612398D01*
X61911784Y-39606087D01*
X61728626Y-39463530D01*
X61524503Y-39353064D01*
X61524499Y-39353062D01*
X61524498Y-39353062D01*
X61304984Y-39277702D01*
X61114456Y-39245909D01*
X61076049Y-39239500D01*
X60843951Y-39239500D01*
X60805544Y-39245909D01*
X60615015Y-39277702D01*
X60395501Y-39353062D01*
X60191372Y-39463531D01*
X60000107Y-39612398D01*
X59998713Y-39610607D01*
X59972877Y-39629055D01*
X59923065Y-39639500D01*
X54217588Y-39639500D01*
X54180301Y-39633761D01*
X54146465Y-39617075D01*
X54130772Y-39606087D01*
X53992734Y-39509432D01*
X53894300Y-39463531D01*
X53786497Y-39413261D01*
X53566689Y-39354364D01*
X53340000Y-39334531D01*
X53113310Y-39354364D01*
X52893502Y-39413261D01*
X52687264Y-39509432D01*
X52500859Y-39639953D01*
X52339953Y-39800859D01*
X52209432Y-39987264D01*
X52113261Y-40193502D01*
X52054364Y-40413310D01*
X52034531Y-40640000D01*
X43090500Y-40640000D01*
X43090500Y-24785214D01*
X71185214Y-24785214D01*
X71185214Y-28464786D01*
X92921929Y-28464786D01*
X92921929Y-24785214D01*
X71185214Y-24785214D01*
X43090500Y-24785214D01*
X43090500Y-17764500D01*
X43107113Y-17702500D01*
X43152500Y-17657113D01*
X43214500Y-17640500D01*
X146812975Y-17640500D01*
X157445608Y-17649779D01*
G37*
%TD.AperFunction*%
%TD*%
M02*
