%TF.GenerationSoftware,KiCad,Pcbnew,7.0.1*%
%TF.CreationDate,2023-04-14T12:40:57+03:00*%
%TF.ProjectId,Piirilevy,50696972-696c-4657-9679-2e6b69636164,rev?*%
%TF.SameCoordinates,Original*%
%TF.FileFunction,Soldermask,Top*%
%TF.FilePolarity,Negative*%
%FSLAX46Y46*%
G04 Gerber Fmt 4.6, Leading zero omitted, Abs format (unit mm)*
G04 Created by KiCad (PCBNEW 7.0.1) date 2023-04-14 12:40:57*
%MOMM*%
%LPD*%
G01*
G04 APERTURE LIST*
G04 Aperture macros list*
%AMRoundRect*
0 Rectangle with rounded corners*
0 $1 Rounding radius*
0 $2 $3 $4 $5 $6 $7 $8 $9 X,Y pos of 4 corners*
0 Add a 4 corners polygon primitive as box body*
4,1,4,$2,$3,$4,$5,$6,$7,$8,$9,$2,$3,0*
0 Add four circle primitives for the rounded corners*
1,1,$1+$1,$2,$3*
1,1,$1+$1,$4,$5*
1,1,$1+$1,$6,$7*
1,1,$1+$1,$8,$9*
0 Add four rect primitives between the rounded corners*
20,1,$1+$1,$2,$3,$4,$5,0*
20,1,$1+$1,$4,$5,$6,$7,0*
20,1,$1+$1,$6,$7,$8,$9,0*
20,1,$1+$1,$8,$9,$2,$3,0*%
G04 Aperture macros list end*
%ADD10C,0.100000*%
%ADD11R,0.838200X1.600200*%
%ADD12C,1.600000*%
%ADD13R,1.800000X1.800000*%
%ADD14C,1.800000*%
%ADD15R,1.350000X1.350000*%
%ADD16O,1.350000X1.350000*%
%ADD17R,1.700000X1.700000*%
%ADD18O,1.700000X1.700000*%
%ADD19O,1.600000X1.600000*%
%ADD20R,1.905000X2.000000*%
%ADD21O,1.905000X2.000000*%
%ADD22R,2.000000X2.000000*%
%ADD23C,2.000000*%
%ADD24C,1.500000*%
%ADD25RoundRect,0.250000X-0.620000X-0.620000X0.620000X-0.620000X0.620000X0.620000X-0.620000X0.620000X0*%
%ADD26C,1.740000*%
%ADD27R,1.600000X1.600000*%
G04 APERTURE END LIST*
%TO.C,U3*%
D10*
X148680200Y-25234900D02*
X145479800Y-25234900D01*
X145479800Y-22923500D01*
X148680200Y-22923500D01*
X148680200Y-25234900D01*
G36*
X148680200Y-25234900D02*
G01*
X145479800Y-25234900D01*
X145479800Y-22923500D01*
X148680200Y-22923500D01*
X148680200Y-25234900D01*
G37*
%TD*%
D11*
%TO.C,U3*%
X144780000Y-30480000D03*
X147080000Y-30480000D03*
X149380000Y-30480000D03*
%TD*%
D12*
%TO.C,C8*%
X48260000Y-71120000D03*
X48260000Y-76120000D03*
%TD*%
D13*
%TO.C,D1*%
X63500000Y-40640000D03*
D14*
X60960000Y-40640000D03*
%TD*%
D15*
%TO.C,J4*%
X66040000Y-53880000D03*
D16*
X64040000Y-53880000D03*
X66040000Y-55880000D03*
X64040000Y-55880000D03*
X66040000Y-57880000D03*
X64040000Y-57880000D03*
%TD*%
D17*
%TO.C,J2*%
X91440000Y-50800000D03*
D18*
X91440000Y-53340000D03*
%TD*%
D12*
%TO.C,R1*%
X101600000Y-48260000D03*
D19*
X127000000Y-48260000D03*
%TD*%
D17*
%TO.C,J5*%
X106680000Y-106680000D03*
D18*
X106680000Y-104140000D03*
X106680000Y-101600000D03*
X106680000Y-99060000D03*
X106680000Y-96520000D03*
X106680000Y-93980000D03*
X106680000Y-91440000D03*
X106680000Y-88900000D03*
X106680000Y-86360000D03*
X106680000Y-83820000D03*
X106680000Y-81280000D03*
X106680000Y-78740000D03*
X106680000Y-76200000D03*
X106680000Y-73660000D03*
X106680000Y-71120000D03*
X106680000Y-68580000D03*
X106680000Y-66040000D03*
X106680000Y-63500000D03*
X106680000Y-60960000D03*
%TD*%
D12*
%TO.C,R2*%
X101600000Y-40640000D03*
X101600000Y-43180000D03*
%TD*%
%TO.C,C13*%
X147050000Y-42500000D03*
X152050000Y-42500000D03*
%TD*%
%TO.C,C7*%
X53340000Y-71200000D03*
X53340000Y-76200000D03*
%TD*%
D20*
%TO.C,U6*%
X121680000Y-24739600D03*
D21*
X124220000Y-24739600D03*
X126760000Y-24739600D03*
%TD*%
D22*
%TO.C,C5*%
X116600000Y-32439600D03*
D23*
X116600000Y-37439600D03*
%TD*%
D24*
%TO.C,16MHz1*%
X60960000Y-73660000D03*
X60960000Y-78560000D03*
%TD*%
D25*
%TO.C,J6*%
X86360000Y-35560000D03*
D26*
X88900000Y-35560000D03*
X91440000Y-35560000D03*
%TD*%
D22*
%TO.C,C6*%
X131840000Y-32439600D03*
D23*
X131840000Y-37439600D03*
%TD*%
D17*
%TO.C,J3*%
X132080000Y-60960000D03*
D18*
X132080000Y-63500000D03*
X132080000Y-66040000D03*
X132080000Y-68580000D03*
X132080000Y-71120000D03*
X132080000Y-73660000D03*
X132080000Y-76200000D03*
X132080000Y-78740000D03*
X132080000Y-81280000D03*
X132080000Y-83820000D03*
X132080000Y-86360000D03*
X132080000Y-88900000D03*
X132080000Y-91440000D03*
X132080000Y-93980000D03*
X132080000Y-96520000D03*
X132080000Y-99060000D03*
X132080000Y-101600000D03*
X132080000Y-104140000D03*
X132080000Y-106680000D03*
%TD*%
D17*
%TO.C,J1*%
X101360000Y-34899600D03*
D18*
X101360000Y-32359600D03*
%TD*%
D12*
%TO.C,C1*%
X60960000Y-68580000D03*
X60960000Y-63580000D03*
%TD*%
%TO.C,R3*%
X53340000Y-40640000D03*
D19*
X53340000Y-66040000D03*
%TD*%
D12*
%TO.C,C3*%
X66040000Y-68580000D03*
X66040000Y-63580000D03*
%TD*%
D27*
%TO.C,U1*%
X71120000Y-45720000D03*
D19*
X71120000Y-48260000D03*
X71120000Y-50800000D03*
X71120000Y-53340000D03*
X71120000Y-55880000D03*
X71120000Y-58420000D03*
X71120000Y-60960000D03*
X71120000Y-63500000D03*
X71120000Y-66040000D03*
X71120000Y-68580000D03*
X71120000Y-71120000D03*
X71120000Y-73660000D03*
X71120000Y-76200000D03*
X71120000Y-78740000D03*
X71120000Y-81280000D03*
X71120000Y-83820000D03*
X71120000Y-86360000D03*
X71120000Y-88900000D03*
X71120000Y-91440000D03*
X71120000Y-93980000D03*
X86360000Y-93980000D03*
X86360000Y-91440000D03*
X86360000Y-88900000D03*
X86360000Y-86360000D03*
X86360000Y-83820000D03*
X86360000Y-81280000D03*
X86360000Y-78740000D03*
X86360000Y-76200000D03*
X86360000Y-73660000D03*
X86360000Y-71120000D03*
X86360000Y-68580000D03*
X86360000Y-66040000D03*
X86360000Y-63500000D03*
X86360000Y-60960000D03*
X86360000Y-58420000D03*
X86360000Y-55880000D03*
X86360000Y-53340000D03*
X86360000Y-50800000D03*
X86360000Y-48260000D03*
X86360000Y-45720000D03*
%TD*%
M02*
